<svg width="500" height="500" viewBox="0 0 500 500" fill="none" xmlns="http://www.w3.org/2000/svg">
<g clip-path="url(#clip0)">
<rect width="500" height="500" fill="#FFBC4B"/>
<path d="M232.945 207.978C232.735 208.232 232.525 208.476 232.31 208.716H179.284C178.889 208.476 178.495 208.23 178.104 207.978C172.506 204.378 167.295 199.584 162.639 193.749C159.547 189.878 156.702 185.881 154.64 182.136C151.763 176.909 149.113 171.213 147.881 164.723C146.651 158.233 147.018 150.794 149.766 145.412C150.616 143.756 151.662 142.341 152.853 141.234C153.05 141.049 153.25 140.872 153.455 140.706C156.749 137.972 160.906 137.308 164.616 138.722C169.928 140.75 174.342 146.413 177.491 153.054C180.641 159.692 182.686 167.316 184.7 174.855C186.745 161.399 192.936 149.346 201.3 143.218C209.661 137.09 220.05 137.163 228.234 143.801C230.809 145.902 233.135 148.61 235.12 151.817C235.317 152.131 235.51 152.452 235.7 152.777C239.692 159.607 242.189 168.354 242.394 177.374C242.656 188.995 239.012 200.668 232.945 207.978Z" fill="#FF4935"/>
<path d="M181.403 208.716H180.653C180.643 208.469 180.631 208.225 180.616 207.978C180.353 203.146 179.805 198.358 178.976 193.668C177.074 182.961 173.825 172.879 169.4 163.947C164.987 154.988 159.423 147.399 153.027 141.615C152.98 141.575 152.94 141.52 152.91 141.454C152.88 141.388 152.86 141.313 152.852 141.234C152.84 141.131 152.848 141.025 152.875 140.928C152.902 140.831 152.947 140.748 153.005 140.687C153.063 140.627 153.131 140.592 153.202 140.587C153.273 140.582 153.343 140.606 153.405 140.658C153.422 140.673 153.439 140.689 153.455 140.706C157.078 143.97 160.442 147.826 163.483 152.201C168.922 160.042 173.308 169.333 176.409 179.583C179.144 188.561 180.82 198.165 181.363 207.978C181.378 208.225 181.39 208.473 181.403 208.716Z" fill="white"/>
<path d="M235.7 152.777C235.694 152.781 235.688 152.784 235.682 152.785C235.135 152.932 234.585 153.088 234.04 153.254C229.567 154.611 225.188 156.576 220.959 159.123C216.742 161.667 212.685 164.757 208.836 168.358C204.983 171.957 201.349 176.045 197.975 180.577C194.602 185.102 191.508 190.062 188.729 195.397C186.652 199.394 184.764 203.597 183.078 207.978C182.983 208.221 182.89 208.469 182.798 208.716H181.94C182.03 208.469 182.123 208.221 182.218 207.978C184.258 202.611 186.597 197.504 189.212 192.711C192.103 187.407 195.307 182.493 198.788 178.028C202.246 173.588 205.958 169.599 209.881 166.105C213.821 162.596 217.963 159.61 222.259 157.18C226.428 154.825 230.733 153.03 235.12 151.817C235.242 151.784 235.362 151.75 235.485 151.717C235.952 151.592 236.152 152.633 235.7 152.777Z" fill="white"/>
<path d="M99.4121 210.912C100.746 207.192 100.966 202.347 99.3076 198.924C98.3206 196.887 96.7795 195.549 95.1625 194.795C93.5454 194.04 91.8396 193.819 90.1484 193.635C88.4744 193.454 86.7705 193.308 85.1352 193.868C83.4998 194.428 81.9158 195.794 81.1192 197.978C79.7734 201.666 80.9993 206.396 80.0109 210.323C79.1037 213.928 76.5221 216.035 73.9842 216.885C71.4463 217.736 68.7974 217.645 66.2583 218.487C63.7192 219.33 61.1332 221.417 60.21 225.013C59.5424 227.613 59.8741 230.607 60.7538 233.066C61.6335 235.524 63.0112 237.514 64.4735 239.264C66.6551 241.875 69.2075 244.111 72.0106 244.338C74.9643 244.576 77.8523 242.498 79.9781 239.459C82.104 236.419 83.5513 232.492 84.7076 228.468C85.4411 225.916 86.1342 223.169 87.6042 221.445C88.6844 220.179 90.0583 219.624 91.3907 219.099L92.8994 218.505C94.2665 217.976 95.546 217.04 96.6591 215.753C97.7722 214.467 98.6954 212.857 99.3719 211.024C99.3854 210.987 99.3988 210.95 99.4121 210.912Z" fill="#2F2E41"/>
<path d="M87.5145 333.279H84.4502L82.9922 315.812H87.5153L87.5145 333.279Z" fill="#FFB8B8"/>
<path d="M82.2602 331.985H88.1703V337.484H78.5391C78.5391 336.762 78.6353 336.047 78.8223 335.38C79.0093 334.713 79.2834 334.106 79.629 333.596C79.9745 333.085 80.3847 332.68 80.8362 332.404C81.2877 332.127 81.7715 331.985 82.2602 331.985V331.985Z" fill="#2F2E41"/>
<path d="M113.011 333.279H109.946L108.488 315.812H113.011L113.011 333.279Z" fill="#FFB8B8"/>
<path d="M107.757 331.985H113.667V337.484H104.036C104.036 336.762 104.132 336.047 104.319 335.38C104.506 334.713 104.78 334.106 105.126 333.596C105.472 333.085 105.882 332.68 106.333 332.404C106.785 332.127 107.269 331.985 107.757 331.985V331.985Z" fill="#2F2E41"/>
<path d="M93.4047 319.396C93.362 319.396 93.3193 319.393 93.2768 319.386L80.8093 317.412C80.6437 317.386 80.4838 317.308 80.3402 317.183C80.1967 317.058 80.0727 316.89 79.9766 316.689C79.8805 316.488 79.8145 316.259 79.783 316.017C79.7514 315.776 79.755 315.527 79.7936 315.287L90.8326 253.242C90.8843 252.927 90.9946 252.638 91.1512 252.411C91.3078 252.183 91.5044 252.024 91.7188 251.952L101.959 247.734C102.165 247.667 102.378 247.683 102.578 247.779C102.778 247.875 102.957 248.049 103.096 248.281C109.68 259.256 114.642 283.584 118.401 314.247C118.429 314.479 118.425 314.716 118.389 314.945C118.354 315.175 118.287 315.391 118.193 315.58C118.099 315.77 117.979 315.929 117.842 316.049C117.705 316.168 117.553 316.245 117.395 316.275L107.18 318.203C106.89 318.258 106.597 318.152 106.358 317.904C106.118 317.656 105.951 317.284 105.887 316.863L100.917 284.118C100.872 283.816 100.757 283.547 100.593 283.356C100.429 283.164 100.226 283.061 100.017 283.065C99.8079 283.069 99.6061 283.178 99.4452 283.375C99.2843 283.573 99.1742 283.845 99.1332 284.148L94.5513 318.002C94.4994 318.395 94.3566 318.749 94.1474 319.004C93.9382 319.258 93.6756 319.397 93.4047 319.396V319.396Z" fill="#2F2E41"/>
<path d="M91.5085 219.432C94.8991 219.432 97.6478 215.37 97.6478 210.36C97.6478 205.349 94.8991 201.287 91.5085 201.287C88.1178 201.287 85.3691 205.349 85.3691 210.36C85.3691 215.37 88.1178 219.432 91.5085 219.432Z" fill="#FFB8B8"/>
<path d="M91.337 253.417C91.0789 253.416 90.8281 253.29 90.6237 253.057C90.4193 252.824 90.2727 252.498 90.2068 252.129L86.5134 231.625C86.2468 230.152 86.3572 228.585 86.8235 227.224C87.2897 225.864 88.0791 224.805 89.0406 224.251C92.0136 222.536 94.8461 221.899 97.4594 222.359C99.782 222.768 102.647 243.088 102.458 243.522L103.374 247.585C103.426 247.815 103.445 248.059 103.429 248.301C103.413 248.543 103.363 248.777 103.282 248.988C103.2 249.199 103.09 249.383 102.958 249.527C102.826 249.671 102.674 249.773 102.514 249.825L91.5917 253.375C91.5081 253.403 91.4227 253.417 91.337 253.417V253.417Z" fill="#FF4935"/>
<path d="M94.6464 274.385C94.6991 273.982 94.6911 273.566 94.6233 273.168C94.5554 272.769 94.4292 272.397 94.2537 272.079C94.0781 271.76 93.8573 271.502 93.607 271.323C93.3566 271.144 93.0828 271.048 92.8047 271.043L90.6768 261.561L88.502 265.638L90.8561 274.017C90.8806 274.708 91.0758 275.361 91.4047 275.854C91.7335 276.346 92.1732 276.644 92.6404 276.689C93.1077 276.734 93.5699 276.525 93.9396 276.101C94.3094 275.676 94.5608 275.066 94.6464 274.385V274.385Z" fill="#FFB8B8"/>
<path d="M122.005 251.598C121.877 251.232 121.697 250.913 121.477 250.661C121.257 250.41 121.003 250.233 120.731 250.143C120.46 250.052 120.178 250.051 119.907 250.139C119.635 250.227 119.38 250.402 119.159 250.651L113.521 245.139L113.516 250.331L118.87 254.769C119.179 255.29 119.605 255.625 120.07 255.712C120.534 255.799 121.004 255.631 121.391 255.24C121.777 254.85 122.053 254.263 122.166 253.591C122.279 252.92 122.222 252.211 122.005 251.598H122.005Z" fill="#FFB8B8"/>
<path d="M90.1858 270.005C89.9392 270.005 89.6989 269.89 89.499 269.676C89.2991 269.463 89.1499 269.162 89.0725 268.816L84.084 253.222C83.8794 252.308 83.7752 251.352 83.7754 250.389L85.2752 230.121C85.2751 228.986 85.5681 227.894 86.0944 227.068C86.6208 226.241 87.3407 225.743 88.1072 225.674C88.8737 225.606 89.6291 225.972 90.219 226.698C90.809 227.425 91.1891 228.457 91.2817 229.583L88.9871 252.718L92.6488 266.917C92.7067 267.295 92.6771 267.69 92.5648 268.04C92.4525 268.39 92.2639 268.674 92.0293 268.847L90.71 269.822C90.5472 269.942 90.3677 270.005 90.1858 270.005Z" fill="#FF4935"/>
<path d="M116.827 253.645C116.644 253.645 116.463 253.581 116.299 253.459L106.378 246.054C105.797 245.62 105.266 245.051 104.806 244.369L95.1235 230.014C94.5814 229.21 94.2673 228.131 94.2454 226.997C94.2234 225.863 94.4953 224.759 95.0054 223.91C95.5155 223.062 96.2255 222.534 96.9903 222.433C97.7552 222.332 98.5173 222.666 99.121 223.367L109.61 240.582L117.925 248.383C118.146 248.59 118.314 248.901 118.402 249.266C118.489 249.631 118.491 250.029 118.408 250.396L117.939 252.463C117.861 252.807 117.711 253.106 117.512 253.318C117.313 253.531 117.073 253.645 116.827 253.645L116.827 253.645Z" fill="#FF4935"/>
<path d="M84.5254 205.669C85.5683 207.685 87.0673 209.079 88.7485 209.596C90.4526 210.116 92.2261 209.741 93.7628 208.534C94.9992 207.547 95.9887 206.065 96.9578 204.607C97.3622 203.998 97.793 203.296 97.7727 202.465C97.7411 201.178 96.6943 200.475 95.7958 200.194C92.8466 199.285 89.7779 199.795 87.039 201.649C85.8192 202.487 84.5482 204.002 84.7314 205.885" fill="#2F2E41"/>
<path d="M245.751 207.978H125.269C124.142 207.98 123.062 208.642 122.266 209.819C121.469 210.997 121.021 212.592 121.02 214.257V282.962C121.021 284.627 121.469 286.223 122.266 287.4C123.062 288.577 124.142 289.239 125.269 289.242H245.751C246.877 289.239 247.957 288.577 248.754 287.4C249.55 286.223 249.998 284.627 250 282.962V214.257C249.998 212.592 249.55 210.997 248.754 209.819C247.957 208.642 246.877 207.98 245.751 207.978V207.978ZM249.5 282.962C249.499 284.431 249.103 285.839 248.4 286.878C247.698 287.917 246.745 288.501 245.751 288.503H125.269C124.275 288.501 123.322 287.917 122.619 286.878C121.916 285.839 121.521 284.431 121.519 282.962V214.257C121.521 212.788 121.916 211.38 122.619 210.341C123.322 209.303 124.275 208.718 125.269 208.716H245.751C246.745 208.718 247.698 209.303 248.4 210.341C249.103 211.38 249.499 212.788 249.5 214.257V282.962Z" fill="white"/>
<path d="M147.144 270.034C144.277 270.034 141.474 268.777 139.09 266.423C136.706 264.069 134.847 260.723 133.75 256.808C132.653 252.893 132.366 248.586 132.925 244.43C133.484 240.274 134.865 236.457 136.893 233.46C138.92 230.464 141.504 228.424 144.316 227.597C147.128 226.77 150.043 227.195 152.692 228.816C155.341 230.438 157.606 233.184 159.199 236.707C160.792 240.23 161.642 244.372 161.642 248.61C161.638 254.29 160.109 259.735 157.391 263.752C154.673 267.768 150.988 270.027 147.144 270.034V270.034ZM147.144 227.924C144.376 227.924 141.669 229.137 139.367 231.41C137.066 233.683 135.271 236.914 134.212 240.694C133.152 244.473 132.875 248.633 133.415 252.645C133.955 256.658 135.289 260.343 137.246 263.236C139.204 266.129 141.698 268.099 144.413 268.897C147.129 269.696 149.943 269.286 152.501 267.72C155.059 266.155 157.245 263.503 158.783 260.102C160.321 256.7 161.142 252.701 161.142 248.61C161.138 243.125 159.662 237.868 157.038 233.99C154.413 230.112 150.855 227.93 147.144 227.924Z" fill="#FFE818"/>
<path d="M234.999 234.943H177.258C176.45 234.943 175.675 235.405 175.093 236.232C174.512 237.059 174.169 238.187 174.138 239.379C174.134 239.439 174.132 239.499 174.133 239.56C174.134 240.784 174.464 241.957 175.049 242.823C175.635 243.688 176.429 244.175 177.258 244.177H234.999C235.827 244.177 236.622 243.691 237.208 242.825C237.794 241.959 238.123 240.784 238.123 239.56C238.123 238.335 237.794 237.161 237.208 236.295C236.622 235.429 235.827 234.943 234.999 234.943Z" fill="#171313"/>
<path d="M234.999 253.042H177.258C176.45 253.043 175.675 253.505 175.093 254.332C174.512 255.159 174.169 256.287 174.138 257.479C174.134 257.539 174.132 257.599 174.133 257.66C174.134 258.884 174.464 260.057 175.049 260.923C175.635 261.788 176.429 262.275 177.258 262.277H234.999C235.827 262.277 236.622 261.79 237.208 260.924C237.794 260.058 238.123 258.884 238.123 257.66C238.123 256.435 237.794 255.261 237.208 254.395C236.622 253.529 235.827 253.042 234.999 253.042V253.042Z" fill="#171313"/>
<path d="M145.527 257.97C145.122 257.972 144.728 257.778 144.405 257.42L144.385 257.397L140.159 252.617C139.964 252.395 139.799 252.119 139.676 251.803C139.553 251.488 139.472 251.14 139.44 250.779C139.408 250.418 139.424 250.051 139.487 249.699C139.551 249.347 139.661 249.017 139.811 248.728C139.961 248.438 140.148 248.196 140.361 248.013C140.575 247.831 140.81 247.712 141.055 247.665C141.299 247.617 141.547 247.641 141.786 247.735C142.024 247.829 142.247 247.991 142.443 248.213L145.18 251.314L151.647 238.849C151.797 238.56 151.984 238.318 152.198 238.135C152.411 237.953 152.647 237.835 152.891 237.787C153.136 237.739 153.384 237.763 153.622 237.858C153.86 237.952 154.084 238.114 154.279 238.336L154.239 238.417L154.28 238.337C154.675 238.785 154.933 239.447 154.998 240.176C155.063 240.905 154.93 241.642 154.628 242.227L147.02 256.888C146.844 257.226 146.618 257.499 146.359 257.687C146.1 257.875 145.815 257.972 145.527 257.97Z" fill="white"/>
<path d="M145.485 338H50.25C50.1837 338 50.1201 337.961 50.0732 337.892C50.0263 337.823 50 337.729 50 337.631C50 337.533 50.0263 337.439 50.0732 337.369C50.1201 337.3 50.1837 337.261 50.25 337.261H145.485C145.552 337.261 145.615 337.3 145.662 337.369C145.709 337.439 145.735 337.533 145.735 337.631C145.735 337.729 145.709 337.823 145.662 337.892C145.615 337.961 145.552 338 145.485 338Z" fill="#3F3D56"/>
<path d="M220.789 191.337C215.567 190.275 210.264 190.452 205.08 191.86C199.911 193.257 194.921 195.835 190.289 199.502C187.686 201.569 185.216 203.981 182.908 206.708C182.531 207.153 183.065 207.933 183.438 207.492C187.488 202.732 192.027 198.962 196.883 196.324C201.701 193.69 206.765 192.172 211.897 191.823C214.8 191.626 217.71 191.821 220.59 192.405C220.685 192.439 220.786 192.418 220.872 192.346C220.958 192.274 221.022 192.157 221.051 192.018C221.077 191.877 221.064 191.726 221.015 191.598C220.966 191.47 220.885 191.377 220.789 191.337H220.789Z" fill="white"/>
<path d="M417.04 -338.972C418.007 -348.57 431.993 -348.57 432.96 -338.972L458.663 -83.782C459.146 -78.9847 463.731 -75.7017 468.429 -76.7903L693.789 -129.019C702.923 -131.136 707.62 -118.519 699.324 -114.148L487.813 -2.71231C483.985 -0.695752 482.454 3.99829 484.357 7.88373L596.397 236.688C600.6 245.271 588.933 252.666 582.964 245.202L431.248 55.4735C428.045 51.4684 421.955 51.4684 418.752 55.4735L267.036 245.202C261.067 252.666 249.4 245.271 253.603 236.688L365.643 7.88371C367.546 3.99827 366.015 -0.695751 362.187 -2.7123L150.676 -114.148C142.38 -118.519 147.077 -131.136 156.211 -129.019L381.572 -76.7903C386.269 -75.7017 390.854 -78.9847 391.337 -83.782L417.04 -338.972Z" fill="#A4C9D8"/>
<path d="M-20.9734 292.296C-20.4266 287.576 -13.5734 287.576 -13.0266 292.296L-2.51195 383.05C-2.24257 385.375 -0.0430731 386.973 2.25151 386.511L91.8134 368.466C96.471 367.528 98.5888 374.046 94.2692 376.024L11.2056 414.069C9.07751 415.044 8.23739 417.629 9.38613 419.669L54.2238 499.271C56.5555 503.411 51.0112 507.439 47.7947 503.942L-14.056 436.701C-15.6406 434.978 -18.3594 434.978 -19.944 436.701L-81.7947 503.942C-85.0111 507.439 -90.5556 503.411 -88.2238 499.271L-43.3861 419.669C-42.2374 417.629 -43.0775 415.044 -45.2056 414.069L-128.269 376.024C-132.589 374.046 -130.471 367.528 -125.813 368.466L-36.2515 386.511C-33.9569 386.973 -31.7574 385.375 -31.488 383.05L-20.9734 292.296Z" fill="#FF4935" fill-opacity="0.75"/>
<path d="M366.769 567.245C370.555 571.378 370.204 577.815 365.992 581.513L363.369 583.816C359.132 587.535 352.66 587.019 349.066 582.675L155.553 348.746C154.139 347.036 154.34 344.512 156.007 343.048V343.048C157.685 341.576 160.231 341.715 161.739 343.361L366.769 567.245Z" fill="white"/>
<path d="M574.237 573.365C578.024 577.498 577.674 583.936 573.462 587.635L570.844 589.933C566.606 593.654 560.132 593.136 556.539 588.79L365.552 357.746C364.138 356.036 364.34 353.512 366.007 352.049V352.049C367.685 350.576 370.232 350.714 371.74 352.36L574.237 573.365Z" fill="white"/>
<path d="M-6.58357 -55.9051C-10.6538 -59.7599 -10.7606 -66.2071 -6.82021 -70.1946L-4.3716 -72.6725C-0.407786 -76.6837 6.08695 -76.6257 9.97858 -72.5445L216.842 144.4C218.373 146.005 218.35 148.537 216.791 150.115V150.115C215.222 151.703 212.671 151.745 211.051 150.21L-6.58357 -55.9051Z" fill="white"/>
<path d="M102.237 128.364C106.024 132.498 105.674 138.936 101.462 142.635L98.8437 144.933C94.6059 148.654 88.1315 148.136 84.5386 143.79L-106.448 -87.2538C-107.862 -88.9638 -107.66 -91.4878 -105.993 -92.9515V-92.9515C-104.315 -94.4242 -101.768 -94.2858 -100.26 -92.64L102.237 128.364Z" fill="white"/>
<path d="M301.75 237.6C300.95 236.133 299.85 235.017 298.45 234.25C297.05 233.483 295.417 233.1 293.55 233.1C291.483 233.1 289.65 233.567 288.05 234.5C286.45 235.433 285.2 236.767 284.3 238.5C283.4 240.233 282.95 242.233 282.95 244.5C282.95 246.833 283.4 248.867 284.3 250.6C285.233 252.333 286.517 253.667 288.15 254.6C289.783 255.533 291.683 256 293.85 256C296.517 256 298.7 255.3 300.4 253.9C302.1 252.467 303.217 250.483 303.75 247.95H291.75V242.6H310.65V248.7C310.183 251.133 309.183 253.383 307.65 255.45C306.117 257.517 304.133 259.183 301.7 260.45C299.3 261.683 296.6 262.3 293.6 262.3C290.233 262.3 287.183 261.55 284.45 260.05C281.75 258.517 279.617 256.4 278.05 253.7C276.517 251 275.75 247.933 275.75 244.5C275.75 241.067 276.517 238 278.05 235.3C279.617 232.567 281.75 230.45 284.45 228.95C287.183 227.417 290.217 226.65 293.55 226.65C297.483 226.65 300.9 227.617 303.8 229.55C306.7 231.45 308.7 234.133 309.8 237.6H301.75ZM341.579 247.55C341.579 248.55 341.512 249.45 341.379 250.25H321.129C321.296 252.25 321.996 253.817 323.229 254.95C324.462 256.083 325.979 256.65 327.779 256.65C330.379 256.65 332.229 255.533 333.329 253.3H340.879C340.079 255.967 338.546 258.167 336.279 259.9C334.012 261.6 331.229 262.45 327.929 262.45C325.262 262.45 322.862 261.867 320.729 260.7C318.629 259.5 316.979 257.817 315.779 255.65C314.612 253.483 314.029 250.983 314.029 248.15C314.029 245.283 314.612 242.767 315.779 240.6C316.946 238.433 318.579 236.767 320.679 235.6C322.779 234.433 325.196 233.85 327.929 233.85C330.562 233.85 332.912 234.417 334.979 235.55C337.079 236.683 338.696 238.3 339.829 240.4C340.996 242.467 341.579 244.85 341.579 247.55ZM334.329 245.55C334.296 243.75 333.646 242.317 332.379 241.25C331.112 240.15 329.562 239.6 327.729 239.6C325.996 239.6 324.529 240.133 323.329 241.2C322.162 242.233 321.446 243.683 321.179 245.55H334.329ZM354.838 240.05V253.45C354.838 254.383 355.055 255.067 355.488 255.5C355.955 255.9 356.722 256.1 357.788 256.1H361.038V262H356.638C350.738 262 347.788 259.133 347.788 253.4V240.05H344.488V234.3H347.788V227.45H354.838V234.3H361.038V240.05H354.838ZM301.39 288.966V312H296.77V297.018L290.599 312H287.101L280.897 297.018V312H276.277V288.966H281.524L288.85 306.093L296.176 288.966H301.39ZM322.953 302.463C322.953 303.123 322.909 303.717 322.821 304.245H309.456C309.566 305.565 310.028 306.599 310.842 307.347C311.656 308.095 312.657 308.469 313.845 308.469C315.561 308.469 316.782 307.732 317.508 306.258H322.491C321.963 308.018 320.951 309.47 319.455 310.614C317.959 311.736 316.122 312.297 313.944 312.297C312.184 312.297 310.6 311.912 309.192 311.142C307.806 310.35 306.717 309.239 305.925 307.809C305.155 306.379 304.77 304.729 304.77 302.859C304.77 300.967 305.155 299.306 305.925 297.876C306.695 296.446 307.773 295.346 309.159 294.576C310.545 293.806 312.14 293.421 313.944 293.421C315.682 293.421 317.233 293.795 318.597 294.543C319.983 295.291 321.05 296.358 321.798 297.744C322.568 299.108 322.953 300.681 322.953 302.463ZM318.168 301.143C318.146 299.955 317.717 299.009 316.881 298.305C316.045 297.579 315.022 297.216 313.812 297.216C312.668 297.216 311.7 297.568 310.908 298.272C310.138 298.954 309.665 299.911 309.489 301.143H318.168ZM349.029 293.454C351.273 293.454 353.077 294.147 354.441 295.533C355.827 296.897 356.52 298.811 356.52 301.275V312H351.9V301.902C351.9 300.472 351.537 299.383 350.811 298.635C350.085 297.865 349.095 297.48 347.841 297.48C346.587 297.48 345.586 297.865 344.838 298.635C344.112 299.383 343.749 300.472 343.749 301.902V312H339.129V301.902C339.129 300.472 338.766 299.383 338.04 298.635C337.314 297.865 336.324 297.48 335.07 297.48C333.794 297.48 332.782 297.865 332.034 298.635C331.308 299.383 330.945 300.472 330.945 301.902V312H326.325V293.718H330.945V295.929C331.539 295.159 332.298 294.554 333.222 294.114C334.168 293.674 335.202 293.454 336.324 293.454C337.754 293.454 339.03 293.762 340.152 294.378C341.274 294.972 342.143 295.83 342.759 296.952C343.353 295.896 344.211 295.049 345.333 294.411C346.477 293.773 347.709 293.454 349.029 293.454ZM365.524 296.391C366.118 295.511 366.932 294.796 367.966 294.246C369.022 293.696 370.221 293.421 371.563 293.421C373.125 293.421 374.533 293.806 375.787 294.576C377.063 295.346 378.064 296.446 378.79 297.876C379.538 299.284 379.912 300.923 379.912 302.793C379.912 304.663 379.538 306.324 378.79 307.776C378.064 309.206 377.063 310.317 375.787 311.109C374.533 311.901 373.125 312.297 371.563 312.297C370.199 312.297 369 312.033 367.966 311.505C366.954 310.955 366.14 310.251 365.524 309.393V312H360.904V287.58H365.524V296.391ZM375.193 302.793C375.193 301.693 374.962 300.747 374.5 299.955C374.06 299.141 373.466 298.525 372.718 298.107C371.992 297.689 371.2 297.48 370.342 297.48C369.506 297.48 368.714 297.7 367.966 298.14C367.24 298.558 366.646 299.174 366.184 299.988C365.744 300.802 365.524 301.759 365.524 302.859C365.524 303.959 365.744 304.916 366.184 305.73C366.646 306.544 367.24 307.171 367.966 307.611C368.714 308.029 369.506 308.238 370.342 308.238C371.2 308.238 371.992 308.018 372.718 307.578C373.466 307.138 374.06 306.511 374.5 305.697C374.962 304.883 375.193 303.915 375.193 302.793ZM400.264 302.463C400.264 303.123 400.22 303.717 400.132 304.245H386.767C386.877 305.565 387.339 306.599 388.153 307.347C388.967 308.095 389.968 308.469 391.156 308.469C392.872 308.469 394.093 307.732 394.819 306.258H399.802C399.274 308.018 398.262 309.47 396.766 310.614C395.27 311.736 393.433 312.297 391.255 312.297C389.495 312.297 387.911 311.912 386.503 311.142C385.117 310.35 384.028 309.239 383.236 307.809C382.466 306.379 382.081 304.729 382.081 302.859C382.081 300.967 382.466 299.306 383.236 297.876C384.006 296.446 385.084 295.346 386.47 294.576C387.856 293.806 389.451 293.421 391.255 293.421C392.993 293.421 394.544 293.795 395.908 294.543C397.294 295.291 398.361 296.358 399.109 297.744C399.879 299.108 400.264 300.681 400.264 302.463ZM395.479 301.143C395.457 299.955 395.028 299.009 394.192 298.305C393.356 297.579 392.333 297.216 391.123 297.216C389.979 297.216 389.011 297.568 388.219 298.272C387.449 298.954 386.976 299.911 386.8 301.143H395.479ZM408.256 296.556C408.85 295.588 409.62 294.829 410.566 294.279C411.534 293.729 412.634 293.454 413.866 293.454V298.305H412.645C411.193 298.305 410.093 298.646 409.345 299.328C408.619 300.01 408.256 301.198 408.256 302.892V312H403.636V293.718H408.256V296.556ZM423.974 312.297C422.478 312.297 421.136 312.033 419.948 311.505C418.76 310.955 417.814 310.218 417.11 309.294C416.428 308.37 416.054 307.347 415.988 306.225H420.641C420.729 306.929 421.07 307.512 421.664 307.974C422.28 308.436 423.039 308.667 423.941 308.667C424.821 308.667 425.503 308.491 425.987 308.139C426.493 307.787 426.746 307.336 426.746 306.786C426.746 306.192 426.438 305.752 425.822 305.466C425.228 305.158 424.271 304.828 422.951 304.476C421.587 304.146 420.465 303.805 419.585 303.453C418.727 303.101 417.979 302.562 417.341 301.836C416.725 301.11 416.417 300.131 416.417 298.899C416.417 297.887 416.703 296.963 417.275 296.127C417.869 295.291 418.705 294.631 419.783 294.147C420.883 293.663 422.17 293.421 423.644 293.421C425.822 293.421 427.56 293.971 428.858 295.071C430.156 296.149 430.871 297.612 431.003 299.46H426.581C426.515 298.734 426.207 298.162 425.657 297.744C425.129 297.304 424.414 297.084 423.512 297.084C422.676 297.084 422.027 297.238 421.565 297.546C421.125 297.854 420.905 298.283 420.905 298.833C420.905 299.449 421.213 299.922 421.829 300.252C422.445 300.56 423.402 300.879 424.7 301.209C426.02 301.539 427.109 301.88 427.967 302.232C428.825 302.584 429.562 303.134 430.178 303.882C430.816 304.608 431.146 305.576 431.168 306.786C431.168 307.842 430.871 308.788 430.277 309.624C429.705 310.46 428.869 311.12 427.769 311.604C426.691 312.066 425.426 312.297 423.974 312.297ZM445.257 293.454C446.643 293.454 447.875 293.762 448.953 294.378C450.031 294.972 450.867 295.863 451.461 297.051C452.077 298.217 452.385 299.625 452.385 301.275V312H447.765V301.902C447.765 300.45 447.402 299.339 446.676 298.569C445.95 297.777 444.96 297.381 443.706 297.381C442.43 297.381 441.418 297.777 440.67 298.569C439.944 299.339 439.581 300.45 439.581 301.902V312H434.961V287.58H439.581V295.995C440.175 295.203 440.967 294.587 441.957 294.147C442.947 293.685 444.047 293.454 445.257 293.454ZM459.121 291.54C458.307 291.54 457.625 291.287 457.075 290.781C456.547 290.253 456.283 289.604 456.283 288.834C456.283 288.064 456.547 287.426 457.075 286.92C457.625 286.392 458.307 286.128 459.121 286.128C459.935 286.128 460.606 286.392 461.134 286.92C461.684 287.426 461.959 288.064 461.959 288.834C461.959 289.604 461.684 290.253 461.134 290.781C460.606 291.287 459.935 291.54 459.121 291.54ZM461.398 293.718V312H456.778V293.718H461.398ZM470.583 296.358C471.177 295.522 471.991 294.829 473.025 294.279C474.081 293.707 475.28 293.421 476.622 293.421C478.184 293.421 479.592 293.806 480.846 294.576C482.122 295.346 483.123 296.446 483.849 297.876C484.597 299.284 484.971 300.923 484.971 302.793C484.971 304.663 484.597 306.324 483.849 307.776C483.123 309.206 482.122 310.317 480.846 311.109C479.592 311.901 478.184 312.297 476.622 312.297C475.28 312.297 474.092 312.022 473.058 311.472C472.046 310.922 471.221 310.229 470.583 309.393V320.712H465.963V293.718H470.583V296.358ZM480.252 302.793C480.252 301.693 480.021 300.747 479.559 299.955C479.119 299.141 478.525 298.525 477.777 298.107C477.051 297.689 476.259 297.48 475.401 297.48C474.565 297.48 473.773 297.7 473.025 298.14C472.299 298.558 471.705 299.174 471.243 299.988C470.803 300.802 470.583 301.759 470.583 302.859C470.583 303.959 470.803 304.916 471.243 305.73C471.705 306.544 472.299 307.171 473.025 307.611C473.773 308.029 474.565 308.238 475.401 308.238C476.259 308.238 477.051 308.018 477.777 307.578C478.525 307.138 479.119 306.511 479.559 305.697C480.021 304.883 480.252 303.915 480.252 302.793Z" fill="#171313"/>
<path d="M401.687 231.6H385.487V240.15C386.187 239.283 387.187 238.583 388.487 238.05C389.787 237.483 391.17 237.2 392.637 237.2C395.304 237.2 397.487 237.783 399.187 238.95C400.887 240.117 402.12 241.617 402.887 243.45C403.654 245.25 404.037 247.183 404.037 249.25C404.037 253.083 402.937 256.167 400.737 258.5C398.57 260.833 395.47 262 391.437 262C387.637 262 384.604 261.05 382.337 259.15C380.07 257.25 378.787 254.767 378.487 251.7H385.287C385.587 253.033 386.254 254.1 387.287 254.9C388.354 255.7 389.704 256.1 391.337 256.1C393.304 256.1 394.787 255.483 395.787 254.25C396.787 253.017 397.287 251.383 397.287 249.35C397.287 247.283 396.77 245.717 395.737 244.65C394.737 243.55 393.254 243 391.287 243C389.887 243 388.72 243.35 387.787 244.05C386.854 244.75 386.187 245.683 385.787 246.85H379.087V225.45H401.687V231.6ZM409.365 243.3C409.365 237.533 410.398 233.017 412.465 229.75C414.565 226.483 418.032 224.85 422.865 224.85C427.698 224.85 431.148 226.483 433.215 229.75C435.315 233.017 436.365 237.533 436.365 243.3C436.365 249.1 435.315 253.65 433.215 256.95C431.148 260.25 427.698 261.9 422.865 261.9C418.032 261.9 414.565 260.25 412.465 256.95C410.398 253.65 409.365 249.1 409.365 243.3ZM429.465 243.3C429.465 240.833 429.298 238.767 428.965 237.1C428.665 235.4 428.032 234.017 427.065 232.95C426.132 231.883 424.732 231.35 422.865 231.35C420.998 231.35 419.582 231.883 418.615 232.95C417.682 234.017 417.048 235.4 416.715 237.1C416.415 238.767 416.265 240.833 416.265 243.3C416.265 245.833 416.415 247.967 416.715 249.7C417.015 251.4 417.648 252.783 418.615 253.85C419.582 254.883 420.998 255.4 422.865 255.4C424.732 255.4 426.148 254.883 427.115 253.85C428.082 252.783 428.715 251.4 429.015 249.7C429.315 247.967 429.465 245.833 429.465 243.3ZM440.889 234.5C440.889 231.967 441.622 229.983 443.089 228.55C444.589 227.117 446.506 226.4 448.839 226.4C451.172 226.4 453.072 227.117 454.539 228.55C456.039 229.983 456.789 231.967 456.789 234.5C456.789 237.067 456.039 239.067 454.539 240.5C453.072 241.933 451.172 242.65 448.839 242.65C446.506 242.65 444.589 241.933 443.089 240.5C441.622 239.067 440.889 237.067 440.889 234.5ZM472.989 227L453.339 262H446.539L466.139 227H472.989ZM448.789 230.6C446.956 230.6 446.039 231.9 446.039 234.5C446.039 237.133 446.956 238.45 448.789 238.45C449.689 238.45 450.389 238.133 450.889 237.5C451.389 236.833 451.639 235.833 451.639 234.5C451.639 231.9 450.689 230.6 448.789 230.6ZM462.839 254.45C462.839 251.883 463.572 249.9 465.039 248.5C466.539 247.067 468.456 246.35 470.789 246.35C473.122 246.35 475.006 247.067 476.439 248.5C477.906 249.9 478.639 251.883 478.639 254.45C478.639 257.017 477.906 259.017 476.439 260.45C475.006 261.883 473.122 262.6 470.789 262.6C468.422 262.6 466.506 261.883 465.039 260.45C463.572 259.017 462.839 257.017 462.839 254.45ZM470.739 250.55C468.839 250.55 467.889 251.85 467.889 254.45C467.889 257.083 468.839 258.4 470.739 258.4C472.606 258.4 473.539 257.083 473.539 254.45C473.539 251.85 472.606 250.55 470.739 250.55Z" fill="#FF0000"/>
</g>
<defs>
<clipPath id="clip0">
<rect width="500" height="500" fill="white"/>
</clipPath>
</defs>
</svg>
