<svg width="500" height="500" viewBox="0 0 500 500" fill="none" xmlns="http://www.w3.org/2000/svg">
<rect width="500" height="500" fill="#FFB9B9"/>
<path d="M238.548 110.152C237.484 109.8 235.386 108.58 233.218 107.219C235.285 108.353 237.359 109.432 239.441 110.468C239.076 110.335 238.769 110.226 238.548 110.152ZM231.423 98.6532L230.693 98.7876C231.19 98.8081 231.685 98.8457 232.176 98.8965C231.7 98.7397 231.423 98.6532 231.423 98.6532ZM256.364 115.86C256.451 115.633 256.525 115.402 256.587 115.165C256.73 114.576 256.834 113.979 256.92 113.378C255.778 110.827 251.955 109.083 249.921 107.762C243.096 103.331 235.894 99.1961 227.78 99.6179C227.258 100.454 226.789 101.397 226.383 102.475C228.709 103.368 230.931 104.495 232.852 105.544C237.834 108.263 242.654 111.089 247.857 113.301C250.323 114.35 252.927 115.254 255.528 116.194C255.758 116.053 256.087 115.924 256.357 115.886C256.36 115.877 256.361 115.87 256.364 115.86ZM257.144 111.003C257.146 110.965 257.149 110.928 257.151 110.891C257.101 110.879 257.043 110.864 256.988 110.851C257.04 110.901 257.093 110.951 257.144 111.003ZM224.244 318.105C223.572 317.914 222.918 317.676 222.282 317.392C222.856 317.714 223.521 317.946 224.244 318.105ZM267.844 249.728C261.469 244.949 258.576 238.028 256.689 230.375C253.657 232.573 249.527 232.717 246.049 232.205C242.775 231.725 238.291 230.842 235.961 227.956C233.082 224.391 232.883 217.796 232.85 213.293C232.81 207.776 233.302 202.194 234.774 196.904C234.878 196.532 235.332 196.338 235.722 196.363C236.044 196.186 236.455 196.095 236.701 196.223C240.984 198.468 247.199 200.172 251.845 198.579C252.247 198.441 252.516 198.554 252.635 198.751C252.697 198.742 252.758 198.739 252.817 198.739C253.989 196.066 256.362 193.529 259.065 191.941C258.433 190.91 257.877 189.814 257.296 188.736C256.918 188.035 258.454 187.442 258.762 188.014C259.326 189.06 259.869 190.123 260.478 191.128C260.549 191.112 260.661 191.09 260.81 191.066C262.506 190.371 264.25 190.096 265.851 190.41C266.17 188.881 266.754 187.497 267.542 186.299C267.332 186.328 267.16 186.306 267.101 186.189C260.896 173.885 259.73 158.032 265.51 145.285C263.592 145.104 261.747 144.658 260.13 143.681C257.785 153.283 255.219 164.828 258.98 174.303C259.072 174.289 259.164 174.276 259.255 174.262C260.264 174.102 259.799 174.792 259.185 175.003C259.013 175.412 257.808 175.784 257.6 175.295C257.597 175.287 257.594 175.28 257.591 175.272C254.148 175.801 250.689 176.27 247.216 176.432C243.839 176.589 239.532 176.951 236.407 175.197C233.958 173.823 233.379 170.359 232.691 167.64C231.693 163.693 230.874 159.432 231.346 155.316C231.179 155.296 231.076 155.238 231.116 155.132C231.304 154.643 231.459 154.134 231.604 153.616C231.216 153.623 230.841 153.648 230.479 153.691C227.175 156.992 226.636 164.69 229.543 168.302C229.63 168.41 229.53 168.548 229.348 168.674C233.67 179.044 231.911 191.794 230.766 202.716C229.237 217.308 223.758 231.148 220.315 245.289C217.601 256.434 215.2 267.769 214.064 279.259C213.385 286.13 213.017 293.213 214.016 300.072C215.28 308.759 219.334 317.206 228.07 317.927C234.248 318.438 240.383 314.025 245.744 311.157C246.487 310.76 254.698 306.008 258.917 304.156L259.728 303.693C257.336 298.818 255.086 293.858 253.222 288.704C252.066 285.507 251.063 282.273 250.11 279.026C250.015 279.109 249.901 279.187 249.742 279.242C247.143 280.151 245.015 282.287 242.961 284.179C242.529 284.577 240.95 284.486 241.67 283.823C244.066 281.617 246.483 279.326 249.505 278.268C249.644 278.22 249.762 278.206 249.869 278.206C248.71 274.221 247.616 270.217 246.408 266.231C245.199 262.238 243.613 260.247 239.968 258.947C237.485 258.062 234.998 257.246 232.926 255.43C232.241 254.828 233.663 254.033 234.164 254.472C238.163 257.979 244.208 257.288 246.856 262.629C248.048 265.033 248.518 267.83 249.157 270.45C250.025 274.009 251.194 277.502 252.323 280.97C254.743 288.408 257.612 295.472 260.973 302.445C262.287 305.171 263.616 308.188 265.242 310.923C266.758 313.041 268.494 315.229 270.257 316.965C278.642 323.413 289.525 314.106 294.296 306.473C294.619 305.956 294.924 305.43 295.221 304.902L297.536 300.242C299.119 296.698 300.475 293.052 302.195 289.555C302.296 286.133 302.171 282.42 301.601 278.814C301.587 278.719 301.571 278.624 301.556 278.528C300.925 274.695 299.787 270.999 297.881 267.934C296.804 266.2 295.521 264.435 293.746 263.528C291.358 262.307 289.676 264.774 288.367 266.681C286.139 269.931 284.302 273.456 283.799 277.479C283.93 279.975 284.022 282.473 284.034 284.976C284.037 285.515 282.448 285.788 282.447 285.445C282.437 283.5 282.37 281.558 282.284 279.618C282.157 279.55 282.073 279.437 282.079 279.261C282.097 278.758 282.143 278.256 282.203 277.755C281.801 270.182 281.046 262.63 280.99 255.037C280.909 255.011 280.815 254.978 280.727 254.949C276.143 254.194 271.681 252.604 267.844 249.728ZM275.452 320.278C276.47 320.455 277.62 320.287 278.834 319.885C277.708 320.134 276.565 320.28 275.452 320.278ZM236.181 197.536C234.987 202.012 234.486 206.797 234.458 211.449C234.43 215.994 234.622 221.035 236.362 225.249C237.876 228.914 241.97 230.151 245.323 230.733C248.905 231.356 253.369 231.685 256.365 229.001C256.054 227.644 255.766 226.271 255.494 224.882C254.417 219.379 253.411 213.856 252.493 208.318C252.172 206.378 251.847 204.437 251.583 202.486C251.503 201.898 251.18 200.821 251.4 200.231C251.443 200.117 251.571 200.021 251.739 199.947C251.739 199.889 251.742 199.828 251.743 199.77C246.885 201.262 240.757 199.772 236.181 197.536Z" fill="#E2EAFF"/>
<path d="M229.673 123.067C228.838 124.455 225.261 130.488 228.951 130.097C230 129.985 228.714 130.81 228.276 130.856C226.736 131.02 225.352 130.478 225.768 128.492C226.159 126.624 227.153 124.938 228.103 123.36C228.369 122.919 229.817 122.829 229.673 123.067ZM234.98 133.101C234.804 133.651 234.591 134.175 234.158 134.532C233.765 134.857 233.171 134.757 232.727 134.684C231.948 134.555 231.107 135.776 232.175 135.953C234.124 136.275 235.822 135.407 236.499 133.299C236.805 132.344 235.215 132.371 234.98 133.101ZM234.485 123.168C235.565 121.83 237.112 121.693 238.027 123.296C238.408 123.964 239.923 123.299 239.481 122.525C237.977 119.891 234.807 120.609 233.156 122.654C232.488 123.482 234.01 123.756 234.485 123.168ZM247.29 127.914C247.998 126.798 249.903 125.868 250.784 127.216C250.888 127.374 249.466 128.098 249.196 127.685C249.132 127.587 249.054 127.495 248.968 127.415C248.927 127.478 248.888 127.539 248.854 127.592C248.668 127.885 248.213 127.995 247.919 128.055C247.877 128.064 247.133 128.16 247.29 127.914ZM248.742 127.266C248.657 127.264 248.654 127.234 248.742 127.266ZM176.48 122.844C182.927 133.442 183.593 145.971 179.778 157.861C179.662 158.225 181.199 158.024 181.347 157.562C185.171 145.644 184.548 133.025 178.068 122.373C177.794 121.923 176.337 122.609 176.48 122.844ZM180.933 116.542C184.395 123.215 185.908 130.34 185.969 138.004C185.977 138.938 187.586 138.68 187.58 137.877C187.517 129.988 185.95 122.634 182.385 115.763C182.023 115.066 180.512 115.732 180.933 116.542ZM170.474 95.5793C170.654 93.6232 171.459 91.7881 172.469 90.0693C172.732 89.6208 174.194 89.5221 174.041 89.7818C173.148 91.3015 172.407 92.9078 172.138 94.6157C177.257 94.3071 182.133 98.0177 182.171 104.107C182.208 110.053 177.226 114.427 171.94 113.88C162.716 112.927 161.783 97.2521 170.474 95.5793ZM171.77 112.679C176.725 113.535 181.374 109.02 180.494 103.393C179.783 98.8493 176.646 95.753 172.561 95.6876C172.565 95.8903 172.329 96.1663 172.041 96.3455C172.062 96.8103 172.117 97.2812 172.223 97.7605C172.324 98.2229 170.732 98.6744 170.635 98.2302C170.516 97.6873 170.454 97.1522 170.44 96.6263C163.555 97.8507 165.056 111.521 171.77 112.679ZM319.913 197.722C320.457 207.227 320.129 217.126 319.227 226.587C318.322 236.085 314.504 245.307 306.782 250.277C304.982 251.436 303.084 252.359 301.127 253.087C301.188 253.125 301.202 253.184 301.136 253.273C300.494 254.142 298.471 254.32 297.577 254.513C294.93 255.083 292.226 255.411 289.531 255.492C287.246 255.56 284.912 255.486 282.593 255.215C282.666 261.032 283.122 266.827 283.508 272.626C284.714 269.51 286.57 266.639 288.672 264.345C291.116 261.675 293.45 261.393 296.301 263.573C298.185 265.015 299.618 267.012 300.703 269.322C300.783 269.311 300.87 269.302 300.967 269.296C310.243 267.039 310.752 292.092 310.856 297.957C310.977 304.784 309.961 312.022 304.533 316.266C302.798 317.622 300.261 318.587 298.114 318.166C294.949 317.546 293.141 314.81 292.01 311.734C289.834 314.231 287.339 316.41 284.48 317.841C282.846 318.659 280.868 319.436 278.833 319.886C277.706 320.136 276.564 320.282 275.451 320.28C274.139 320.277 272.868 320.07 271.721 319.569C267.028 317.513 264.109 312.403 261.743 307.736C261.159 306.583 260.581 305.425 260.008 304.264C259.84 304.343 259.673 304.423 259.507 304.507C259.024 304.751 258.543 305 258.064 305.254C256.75 305.951 255.441 306.663 254.135 307.375C250.602 309.301 247.073 311.238 243.508 313.091C239.198 315.331 234.195 318.635 229.293 318.732C227.556 318.767 225.854 318.564 224.242 318.106C223.571 317.916 222.916 317.677 222.281 317.393C219.799 316.284 217.623 314.456 216.014 311.765C213.065 306.838 212.158 300.67 211.917 294.876C211.48 284.375 212.932 273.787 214.849 263.532C216.294 255.81 218.042 248.158 220.005 240.577C222.336 231.576 225.348 222.756 227.487 213.703C229.332 205.9 230.03 197.44 230.303 189.377C230.32 188.874 230.335 188.369 230.346 187.863C224.823 197.418 215.218 209.031 204.266 208.863C197.845 208.764 193.214 204.125 189.324 198.871C184.551 192.424 180.895 185.091 176.164 178.61C176.073 178.485 176.137 178.348 176.276 178.224C176.129 178.177 176.065 178.078 176.178 177.908C177.223 176.318 178.446 174.94 179.781 173.694C169.608 172.618 163.176 156.026 168.913 147.01C169.099 146.717 169.35 146.354 169.649 145.957C170.444 142.148 173.648 137.603 177.02 136.606C178.959 136.033 180.942 137.57 181.417 139.713C182.026 142.458 180.247 144.445 179.159 146.693C179.047 146.924 178.661 147.082 178.297 147.145C177.453 150.531 174.331 153.886 174.426 157.253C174.45 158.087 172.839 158.327 172.812 157.367C172.7 153.405 176.085 150.356 176.717 146.58C176.906 145.455 176.959 144.07 175.952 143.346C174.591 142.368 173.058 143.909 172.189 144.935C171.824 145.366 171.466 145.817 171.122 146.282C171.122 146.284 171.122 146.286 171.121 146.288C171.105 146.398 171.022 146.497 170.904 146.582C170.134 147.661 169.453 148.825 168.969 150.075C165.825 158.203 172.335 171.641 180.465 172.376C180.745 172.401 180.895 172.51 180.954 172.656C184.185 169.949 187.95 167.902 191.57 165.787C191.442 165.635 191.417 165.409 191.591 165.118C193.994 161.088 193.352 156.825 193.291 152.291C193.26 149.977 193.945 147.981 194.73 145.857C195.327 144.242 197.741 139.531 196.279 137.926C195.046 136.571 193.592 135.873 192.289 137.526C189.837 140.634 188.858 145.257 188.185 149.203C187.66 152.289 186.948 155.96 187.569 159.092C187.733 159.922 186.143 160.38 185.981 159.561C185.104 155.142 186.313 149.638 187.41 145.402C188.249 142.162 189.695 136.236 193.26 135.331C194.823 134.934 196.117 135.527 197.293 136.674C198.899 138.241 198.084 140.821 197.443 142.727C196.268 146.224 194.759 149.309 194.934 153.127C195.124 157.292 195.234 161.051 193.442 164.673C194.243 164.184 195.032 163.686 195.798 163.167C196.055 162.994 196.636 162.946 196.906 163.055C197.107 163.006 197.288 162.999 197.391 163.073C200.756 165.516 202.142 170.132 204.113 173.796C204.98 175.407 206.197 177.798 208.036 178.198C210.841 178.809 213.863 174.114 215.159 171.85C217.833 167.178 219.26 161.637 222.584 157.428C224.446 155.07 226.951 153.785 229.631 153.249C229.636 153.245 229.641 153.239 229.646 153.234C229.863 153.053 230.817 152.881 230.995 153.041C231.256 153.013 231.517 152.992 231.78 152.977C232.132 151.678 232.486 150.372 233.211 149.284C233.889 148.266 234.844 147.669 235.9 147.43C234.579 145.322 232.826 144.055 230.177 143.122C227.752 142.269 225.255 141.044 223.587 138.823C221.227 135.684 220.612 131.67 220.52 127.578C216.162 127.535 212.647 123.3 210.443 119.566C207.913 115.281 206.743 109.967 209.665 105.563C213.449 99.8606 219.492 100.114 225.132 102.027C227.519 96.4532 231.91 93.9772 237.44 93.3659C240.045 93.0778 243.223 92.4127 245.811 93.073C248.814 93.8392 251.588 95.6016 254.027 97.6455C255.689 99.0375 257.627 100.489 258.19 102.834C258.837 105.532 258.924 108.444 258.692 111.216C258.67 111.485 258.599 112.1 258.469 112.835C258.486 112.872 258.509 112.908 258.526 112.946C258.563 113.033 258.506 113.133 258.395 113.228C258.139 114.531 257.707 116.064 257.043 116.751C260.277 117.949 263.468 119.261 266.347 121.044C269.993 123.3 270.57 127.532 267.231 130.598C263.446 134.073 258.454 134.62 253.718 134.056C252.688 135.935 251.581 137.813 250.782 139.741C250.758 139.798 250.717 139.85 250.667 139.899C250.758 140.116 250.852 140.332 250.948 140.545C251.073 140.521 251.191 140.519 251.288 140.551C252.107 140.821 253.863 139.653 254.877 139.744C257.07 139.94 258.653 141.105 260.539 142.263C265.822 145.504 272.871 143.876 278.719 144.105C288.817 144.499 296.139 151.484 301.709 160.392C307.434 169.547 311.015 180.243 311.895 191.332C313.055 191.156 314.258 191.252 315.361 191.617C315.512 191.399 315.671 191.188 315.842 190.989C316.281 190.478 317.824 190.633 317.15 191.417C316.947 191.652 316.767 191.908 316.599 192.173C317.613 192.762 318.453 193.637 318.974 194.799C319.037 194.85 319.087 194.918 319.117 195.003C319.299 195.516 319.411 196.025 319.466 196.529C319.471 196.559 319.478 196.586 319.482 196.617C319.487 196.65 319.483 196.683 319.482 196.715C319.486 196.767 319.492 196.819 319.495 196.87C319.655 196.872 319.78 196.916 319.826 197.02C319.913 197.218 319.901 197.506 319.913 197.722ZM172.03 143.315C174.055 141.482 176.484 140.365 177.93 143.18C178.298 143.898 178.469 144.612 178.5 145.325C179.151 144.248 179.803 143.139 179.936 141.891C180.17 139.686 178.285 136.143 176.093 137.949C174.542 139.226 172.997 141.192 172.03 143.315ZM311.979 192.47C311.985 192.563 311.994 192.657 311.999 192.75C312.244 196.958 312.263 201.176 312.138 205.389C315.237 203.991 318.411 200.323 317.792 196.518C317.506 195.241 316.828 194.218 315.931 193.511C315.646 194.286 315.487 195.119 315.467 195.959C315.451 196.666 313.847 196.975 313.866 196.126C313.893 194.964 314.188 193.813 314.681 192.779C313.843 192.442 312.913 192.33 311.979 192.47ZM310.249 217.987C306.707 220.171 303.271 220.754 299.088 220.14C296.433 219.75 293.511 219.434 290.771 218.637C290.332 223.209 285.97 225.436 284.365 229.479C283.858 230.755 283.508 232.756 284.424 233.963C285.427 235.284 287.135 233.426 287.9 232.674C289.134 231.461 290.241 230.114 291.376 228.793C291.379 228.726 291.388 228.658 291.391 228.591C291.406 228.213 291.786 227.958 292.173 227.895C292.727 227.467 294.06 227.725 293.404 228.465C293.293 228.591 293.141 228.773 292.96 228.993C292.793 231.003 292.158 233.017 291.745 234.961C291.472 236.244 291.185 237.537 291.028 238.845C291.003 239.047 290.692 242.108 291.415 241.64C293.243 240.454 294.266 237.154 295.05 235.113C295.706 233.402 296.271 231.653 296.917 229.938C297.186 229.223 298.785 229.206 298.435 230.135C297.328 233.074 296.435 236.125 295.006 238.904C294.829 239.249 294.607 239.685 294.348 240.14C298.97 240.422 301.626 231.226 302.637 227.423C302.795 226.828 304.392 226.576 304.225 227.204C303.426 230.208 302.03 234.689 299.777 237.761C303.405 235.939 306.078 230.218 306.744 226.199C306.853 225.545 308.462 225.263 308.339 226.006C307.967 228.245 307.103 230.682 305.858 232.859C309.741 229.372 310.81 223.478 310.249 217.987ZM234.458 211.449C234.43 215.994 234.621 221.035 236.362 225.249C237.876 228.915 241.97 230.151 245.323 230.734C248.905 231.357 253.369 231.686 256.365 229.001C256.054 227.645 255.766 226.271 255.494 224.882C254.416 219.379 253.411 213.856 252.493 208.318C252.171 206.378 251.847 204.437 251.583 202.487C251.503 201.898 251.18 200.821 251.4 200.231C251.442 200.117 251.571 200.022 251.738 199.947C251.738 199.889 251.742 199.828 251.743 199.77C246.885 201.262 240.757 199.772 236.181 197.536C234.986 202.013 234.487 206.798 234.458 211.449ZM253.469 201.029C254.546 206.169 261.646 207.9 266.239 208.693C262.037 204.531 264.113 197.502 268.179 193.449C267.702 192.834 267.177 192.362 266.619 192.011C266.154 192.165 265.599 192.125 265.641 191.719C265.648 191.658 265.66 191.6 265.668 191.54C264.179 190.99 262.53 191.176 260.94 191.853C261.476 192.657 262.071 193.411 262.782 194.067C263.283 194.529 261.794 195.231 261.316 194.789C260.615 194.142 260.025 193.401 259.495 192.609C256.609 194.409 254.18 197.673 253.701 200.745C253.684 200.851 253.595 200.946 253.469 201.029ZM276.224 185.612C276.224 184.631 276.224 183.651 276.224 182.671C271.559 182.416 268.074 185.821 267.313 190.891C268.044 191.237 268.725 191.739 269.334 192.422C270.552 191.462 271.89 190.772 273.262 190.478C272.862 189.722 272.413 188.991 271.903 188.291C271.587 187.858 273.105 187.265 273.39 187.654C274.011 188.505 274.554 189.4 275.019 190.334C275.124 190.339 275.228 190.337 275.331 190.347C278.695 190.671 281.438 193.186 282.979 196.387C283.672 195.23 284.62 194.315 285.715 193.631C285.397 189.886 283.767 186.411 281.068 184.41C280.599 184.503 280.116 184.383 280.309 183.91C280.309 183.909 280.31 183.907 280.31 183.906C280.196 183.838 280.079 183.772 279.961 183.708C279.487 183.939 278.793 183.821 278.782 183.186C278.782 183.184 278.782 183.182 278.782 183.18C278.476 183.07 278.161 182.979 277.838 182.903C277.838 183.766 277.838 184.629 277.838 185.492C277.837 186.317 276.224 186.561 276.224 185.612ZM283.819 178.606C284.788 177.701 285.888 177.026 287.089 176.733C285.703 174.919 284.029 173.338 282.402 172.038C280.665 170.649 278.758 169.306 276.742 168.233C278.56 172.889 280.187 177.41 280.376 182.578C280.525 182.642 280.674 182.708 280.819 182.779C281.344 181.716 282.003 180.658 282.776 179.722C282.54 179.569 282.299 179.424 282.054 179.288C281.147 178.787 282.309 177.733 282.969 178.097C283.263 178.259 283.544 178.429 283.819 178.606ZM267.351 208.877C267.523 208.904 267.692 208.931 267.853 208.955C271.612 209.542 275.393 209.816 279.18 209.944C279.14 209.843 279.208 209.707 279.47 209.533C282.791 207.322 283.386 202.897 282.256 198.962C282.105 198.889 282.022 198.755 282.076 198.544C282.084 198.513 282.094 198.485 282.102 198.456C281.087 195.361 279.005 192.65 276.356 191.691C276.083 191.592 275.81 191.522 275.539 191.465C276.106 192.831 276.508 194.279 276.728 195.807C276.806 196.345 275.208 196.744 275.141 196.277C274.89 194.542 274.406 192.916 273.711 191.392C267.428 192.174 262.543 203.244 267.905 208.217C268.122 208.419 267.775 208.714 267.351 208.877ZM280.45 209.981C282.577 210.035 284.707 210.051 286.836 210.05C286.938 210.05 287.015 210.062 287.08 210.079C288.091 206.799 289.068 203.493 289.657 200.129C290.521 195.2 290.471 189.872 290.305 184.879C290.215 182.202 289.187 179.756 287.719 177.605C286.599 177.718 285.588 178.357 284.711 179.252C284.958 179.456 285.201 179.671 285.431 179.919C285.725 180.235 285.297 180.702 285.058 180.83C284.694 181.023 284.272 181.01 283.978 180.695C283.894 180.605 283.802 180.525 283.713 180.442C283.016 181.405 282.438 182.482 282.005 183.465C284.91 185.391 286.838 188.727 287.267 192.848C287.998 192.557 288.763 192.347 289.537 192.222C290.622 192.047 290.211 193.273 289.372 193.408C286.837 193.816 284.491 195.474 283.715 198.262C285.046 202.509 284.338 207.385 280.45 209.981ZM286.918 215.416C287.792 216.092 288.749 216.631 289.757 217.063C290.184 216.919 290.709 217.011 290.791 217.463C292.943 218.225 295.25 218.605 297.387 218.943C301.964 219.667 305.85 220.095 309.941 217.266C309.963 217.251 309.993 217.236 310.027 217.222C309.462 215.412 310.259 212.176 310.35 210.334C310.414 209.027 310.472 207.718 310.519 206.407C310.381 206.537 310.201 206.64 309.995 206.675C303.262 207.848 296.264 207.966 289.521 206.767C288.69 209.647 287.767 212.501 286.949 215.354C286.943 215.376 286.93 215.396 286.918 215.416ZM266.886 145.374C261.425 157.809 262.542 173.106 268.41 185.146C270.357 182.901 273.138 181.588 276.224 181.669C276.224 180.966 276.224 180.263 276.224 179.56C276.224 178.736 277.837 178.492 277.837 179.441C277.837 180.236 277.837 181.032 277.837 181.827C278.139 181.878 278.439 181.936 278.731 182.009C278.393 176.705 276.48 172.073 274.569 167.212C272.744 166.466 270.853 165.985 268.932 165.932C268.152 165.91 269.637 165.22 269.965 165.229C271.624 165.275 273.286 165.623 274.908 166.179C275.322 165.998 275.886 166.049 276.066 166.507C276.082 166.548 276.098 166.588 276.113 166.628C278.708 167.693 281.17 169.263 283.314 170.977C286.92 173.861 291.694 178.44 291.873 183.823C292.042 188.883 292.182 194.343 291.305 199.347C290.939 201.434 290.436 203.496 289.87 205.542C296.561 206.761 303.47 206.653 310.159 205.488C310.323 205.46 310.448 205.466 310.547 205.494C310.667 201.71 310.684 197.917 310.464 194.142C309.8 182.717 306.67 171.391 300.745 161.915C297.755 157.134 294.164 152.371 289.756 149.103C285.017 145.589 280.019 145.121 274.456 145.175C272.108 145.196 269.465 145.464 266.886 145.374ZM251.451 141.597C251.662 142.015 251.881 142.425 252.107 142.826C252.143 142.693 252.187 142.561 252.22 142.426C252.334 141.964 253.892 141.717 253.79 142.13C252.225 148.456 247.414 153.87 242.419 157.239C242.352 157.359 242.29 157.479 242.23 157.599C242.224 157.613 242.216 157.625 242.209 157.639C239.162 163.82 245.367 169.301 247.29 174.98C247.39 175.273 247.146 175.535 246.82 175.677C247.641 175.634 248.45 175.574 249.235 175.513C251.937 175.305 254.624 174.96 257.306 174.56C253.571 164.872 256.328 152.984 258.7 143.309C258.732 143.178 258.848 143.064 259.002 142.973C256.841 141.587 254.772 140.295 252.152 141.357C251.919 141.452 251.685 141.538 251.451 141.597ZM232.853 105.544C237.834 108.263 242.655 111.089 247.857 113.302C250.324 114.35 252.927 115.254 255.529 116.194C255.759 116.053 256.088 115.924 256.357 115.886C256.36 115.877 256.361 115.87 256.364 115.86C256.451 115.633 256.525 115.401 256.586 115.164C256.73 114.576 256.834 113.979 256.92 113.378C255.778 110.826 251.954 109.082 249.921 107.762C243.096 103.33 235.894 99.1955 227.78 99.6173C227.258 100.454 226.789 101.396 226.383 102.475C228.709 103.368 230.931 104.495 232.853 105.544ZM228.323 98.8196C229.12 98.7724 229.911 98.7555 230.693 98.7882C231.19 98.8087 231.685 98.8463 232.176 98.8971C238.796 99.5804 244.889 102.901 250.655 106.645C252.36 107.752 255.136 109.068 256.988 110.851C257.04 110.901 257.092 110.952 257.143 111.003C257.146 110.965 257.149 110.928 257.151 110.891C257.227 109.487 257.233 108.074 257.115 106.675C256.774 102.653 255.48 100.605 252.53 98.2362C250.482 96.5912 248.211 94.9008 245.755 94.1049C243.487 93.3702 241.132 93.6794 238.803 93.8634C234.349 94.2145 230.792 95.4618 228.323 98.8196ZM220.506 126.65C220.494 124.126 220.641 121.6 220.674 119.25C220.484 119.253 220.293 119.258 220.105 119.259C219.919 119.261 219.798 119.225 219.722 119.169C219.443 119.153 219.245 119.032 219.322 118.775C224.491 101.328 244.15 117.631 254.218 120.32C254.488 120.273 254.74 120.303 254.842 120.46C254.845 120.463 254.847 120.467 254.849 120.472C254.966 120.497 255.084 120.522 255.198 120.543C255.662 120.628 255.552 120.909 255.259 121.155C257.666 125.466 256.232 129.32 254.213 133.14C257.683 133.618 261.634 133.652 264.667 131.489C266.239 130.368 268.205 128.34 267.97 126.01C267.48 121.151 260.573 119.688 257.148 118.316C251.097 115.894 245.232 113.349 239.441 110.47C237.359 109.434 235.286 108.355 233.218 107.221C233.043 107.125 232.867 107.034 232.693 106.937C226.263 103.38 214.406 96.9586 210.229 107.257C208.563 111.366 210.07 116.017 212.292 119.534C214.144 122.466 217.048 126.147 220.506 126.65ZM237.853 147.439C237.855 147.445 237.859 147.451 237.861 147.458C238.294 148.33 238.664 149.256 239 150.214C239.085 150.456 239.001 150.669 238.837 150.828C239.807 152.685 241.64 153.972 242.16 156.006C242.377 155.977 242.587 155.987 242.737 156.043C246.438 153.182 249.811 149.198 251.537 144.609C251.374 144.598 251.239 144.546 251.171 144.435C248.94 140.761 247.139 136.309 247.553 131.8C247.604 131.243 248.636 131.115 248.98 131.268C254.636 133.791 254.226 126.609 251.779 124.723C251.174 124.472 250.502 124.392 250.031 124.372C249.821 124.437 249.606 124.531 249.385 124.677C249.12 124.852 248.259 125.159 248.101 124.66C247.543 122.91 247.191 121.76 247.827 119.998C247.868 119.886 247.964 119.788 248.087 119.707C248.105 119.502 248.12 119.348 248.129 119.248C244.472 117.495 240.268 115.173 236.24 113.622C232.787 117.841 227.326 118.956 222.289 119.201C222.277 120.004 222.251 120.838 222.223 121.692C223.795 120.19 226.261 119.925 227.423 122.224C227.829 123.028 226.315 123.679 225.969 122.995C225.181 121.436 223.926 121.538 222.976 122.867C222.805 123.106 222.479 123.213 222.177 123.208C221.989 129.677 222.112 136.888 227.606 140.298C229.786 141.652 232.389 141.936 234.511 143.379C236.016 144.402 237.048 145.822 237.853 147.439ZM233.22 153.009C233.241 153.045 233.25 153.086 233.239 153.138C232.222 157.713 233.095 162.727 234.279 167.171C234.887 169.45 235.45 173.384 237.694 174.444C240.215 175.635 243.12 175.815 245.939 175.717C245.83 175.662 245.744 175.576 245.701 175.451C243.695 169.527 237.449 163.987 240.692 157.54C240.691 157.516 240.687 157.496 240.688 157.472C240.759 155.911 239.843 154.851 238.936 153.788C238.059 152.762 237.282 151.734 236.863 150.383C236.786 150.134 236.883 149.917 237.061 149.757C236.821 149.162 236.568 148.616 236.296 148.112C234.487 148.182 233.775 150.86 233.22 153.009ZM230.37 186.471C230.437 180.162 229.919 173.693 227.272 168.033C227.245 167.977 227.277 167.908 227.348 167.838C225.141 163.853 225.91 157.368 228.852 154.024C219.17 156.914 219.603 174.142 209.971 178.434C206.892 179.806 204.622 178.022 203.004 175.135C202.465 174.175 201.973 173.136 201.482 172.078C195.126 175.875 189.599 181.197 182.939 184.396C182.273 184.717 181.32 184.3 182.344 183.808C189.081 180.57 194.64 175.063 201.13 171.319C199.834 168.527 198.464 165.705 196.215 163.907C189.859 168.083 182.109 171.067 177.64 177.865C177.628 177.883 177.611 177.9 177.594 177.917C177.617 177.932 177.637 177.95 177.653 177.971C181.66 183.461 184.838 189.589 188.673 195.215C191.97 200.053 196.305 206.297 201.976 207.657C213.503 210.422 224.165 196.505 229.471 186.897C229.595 186.672 230 186.527 230.37 186.471ZM303.3 316.324L300.83 317.46C301.708 317.292 302.536 316.886 303.3 316.324ZM305.388 314.24C304.772 314.943 304.233 315.502 303.89 315.847C304.43 315.374 304.931 314.828 305.388 314.24ZM280.991 254.996C280.903 254.982 280.817 254.965 280.73 254.95C276.143 254.195 271.68 252.605 267.844 249.729C261.468 244.949 258.576 238.028 256.689 230.376C253.657 232.573 249.527 232.717 246.049 232.206C242.775 231.725 238.291 230.842 235.96 227.956C233.082 224.392 232.883 217.796 232.85 213.294C232.809 207.776 233.302 202.194 234.774 196.904C234.878 196.532 235.332 196.339 235.722 196.363C236.044 196.186 236.455 196.095 236.701 196.224C240.983 198.468 247.198 200.172 251.845 198.579C252.247 198.441 252.516 198.554 252.635 198.751C252.697 198.743 252.758 198.739 252.817 198.74C253.989 196.066 256.362 193.529 259.065 191.941C258.433 190.91 257.877 189.814 257.296 188.736C256.918 188.035 258.454 187.442 258.762 188.014C259.325 189.06 259.869 190.123 260.478 191.128C260.492 191.151 260.504 191.174 260.518 191.196C260.616 191.153 260.713 191.107 260.811 191.066C262.506 190.371 264.251 190.096 265.852 190.41C266.171 188.881 266.754 187.497 267.543 186.299C267.333 186.328 267.16 186.306 267.101 186.189C260.896 173.885 259.73 158.032 265.511 145.285C263.592 145.104 261.747 144.658 260.131 143.682C257.785 153.283 255.219 164.828 258.98 174.304C259.072 174.29 259.164 174.276 259.256 174.262C260.264 174.103 259.799 174.792 259.185 175.003C259.013 175.412 257.808 175.784 257.6 175.296C257.597 175.288 257.594 175.28 257.591 175.272C254.148 175.802 250.689 176.27 247.216 176.432C243.839 176.59 239.532 176.951 236.408 175.198C233.958 173.823 233.379 170.359 232.691 167.641C231.693 163.693 230.874 159.433 231.346 155.316C231.179 155.296 231.076 155.238 231.117 155.132C231.305 154.643 231.459 154.134 231.605 153.616C231.217 153.624 230.842 153.648 230.48 153.691C227.176 156.992 226.636 164.69 229.544 168.302C229.631 168.411 229.531 168.548 229.349 168.674C233.67 179.044 231.911 191.795 230.767 202.716C229.237 217.309 223.758 231.148 220.315 245.289C217.601 256.434 215.2 267.77 214.064 279.26C213.385 286.131 213.018 293.214 214.016 300.073C215.281 308.76 219.335 317.206 228.07 317.928C234.248 318.439 240.383 314.026 245.744 311.158C246.487 310.761 254.698 306.009 258.918 304.157C259.23 304.02 259.516 303.902 259.78 303.799C259.763 303.764 259.746 303.729 259.729 303.694C257.337 298.818 255.087 293.858 253.223 288.705C252.067 285.508 251.064 282.274 250.111 279.026C250.016 279.11 249.902 279.187 249.743 279.243C247.144 280.152 245.016 282.287 242.961 284.18C242.53 284.577 240.951 284.487 241.671 283.823C244.066 281.617 246.484 279.326 249.506 278.269C249.645 278.221 249.763 278.206 249.87 278.207C248.711 274.222 247.617 270.218 246.409 266.232C245.199 262.238 243.614 260.248 239.969 258.948C237.486 258.062 234.998 257.246 232.927 255.43C232.241 254.829 233.664 254.034 234.165 254.473C238.164 257.98 244.208 257.288 246.857 262.629C248.049 265.033 248.519 267.831 249.158 270.45C250.026 274.009 251.195 277.503 252.324 280.971C254.744 288.408 257.613 295.473 260.974 302.446C262.288 305.171 263.617 308.188 265.243 310.923C266.507 313.05 267.949 315.007 269.702 316.524C269.886 316.683 270.072 316.823 270.259 316.966C278.644 323.414 289.526 314.106 294.298 306.473C294.62 305.956 294.926 305.431 295.222 304.903C296.075 303.385 296.83 301.824 297.537 300.242C299.12 296.699 300.476 293.053 302.196 289.556C302.298 286.134 302.172 282.421 301.603 278.815C301.588 278.719 301.573 278.624 301.557 278.529C300.927 274.695 299.789 270.999 297.883 267.934C296.805 266.201 295.523 264.435 293.747 263.528C291.36 262.307 289.678 264.774 288.369 266.682C286.141 269.931 284.304 273.457 283.801 277.479C283.931 279.975 284.023 282.474 284.036 284.976C284.039 285.515 282.449 285.788 282.448 285.446C282.438 283.501 282.372 281.559 282.286 279.618C282.158 279.551 282.075 279.437 282.081 279.262C282.098 278.758 282.144 278.256 282.204 277.756C281.803 270.183 281.047 262.631 280.991 255.038C280.992 255.025 280.991 255.011 280.991 254.996ZM318.32 213.904C316.954 214.896 315.583 215.796 313.98 216.339C313.847 216.384 313.184 216.567 313.12 216.302C313.054 216.03 313.715 215.84 313.848 215.796C315.477 215.243 316.843 214.051 318.239 213.015C318.264 212.996 318.303 212.978 318.347 212.959C318.412 210.211 318.446 207.462 318.442 204.713C318.441 203.686 318.608 202.166 318.638 200.708C317.276 203.419 314.539 205.594 312.101 206.563C312.076 207.273 312.047 207.983 312.014 208.692C311.927 210.567 311.82 212.44 311.71 214.314C311.671 214.992 311.409 216.13 311.624 216.789C311.646 216.857 311.645 216.921 311.632 216.984C311.73 217.024 311.795 217.092 311.807 217.192C312.601 224.162 310.776 231.499 304.738 234.803C304.679 234.835 304.606 234.86 304.525 234.879C303.109 236.758 301.383 238.269 299.438 238.998C299.125 239.116 298.901 239.08 298.761 238.977C297.373 240.427 295.707 241.31 293.723 241.14C292.934 242.279 291.922 243.246 290.752 242.958C288.662 242.441 289.267 239.705 289.577 237.938C289.964 235.736 290.664 233.489 291.075 231.238C288.469 234.207 284.589 237.904 282.967 234.725C279.601 228.13 289.019 224.259 289.196 218.115C287.739 217.561 286.364 216.829 285.147 215.823C285.024 215.722 285.196 215.543 285.465 215.391C285.902 213.884 286.37 212.374 286.839 210.859C286.642 210.991 286.415 211.087 286.227 211.087C279.216 211.091 272.128 211.011 265.205 209.648C261.81 208.98 256.385 207.796 253.568 204.668C253.734 205.73 253.904 206.79 254.081 207.85C254.435 209.965 254.803 212.078 255.178 214.19C255.304 214.184 255.409 214.204 255.467 214.264C259.15 218.016 264.585 218.824 269.319 219.853C271.82 220.397 274.39 220.538 276.935 220.564C278.518 220.579 281.03 220.908 282.403 220.435C282.989 220.233 284.025 220.406 282.939 220.781C281.585 221.248 280.059 221.202 278.656 221.229C275.738 221.286 272.773 221.273 269.875 220.841C265.268 220.156 259.585 219.213 255.541 216.21C255.919 218.3 256.303 220.389 256.705 222.474C258.395 231.237 260.035 240.385 266.415 246.623C268.711 248.868 271.311 250.581 274.084 251.851C274.423 251.738 274.772 251.703 274.901 251.893C275.416 252.648 277.849 252.941 278.638 253.135C281.481 253.835 284.384 254.284 287.296 254.423C295.189 254.801 303.685 253.168 309.575 246.884C316.368 239.637 317.654 229.924 318.105 220.01C318.198 217.976 318.265 215.94 318.32 213.904ZM189.85 235.203C191.379 243.003 179.737 242.271 175.51 240.807C175.441 240.827 175.372 240.847 175.303 240.866C175.787 241.559 176.181 242.309 176.406 243.135C182.909 242.791 184.224 254.263 177.589 256.166C173.9 257.224 169.246 255.546 168.945 250.706C168.689 246.584 171.169 243.757 174.563 242.869C174.336 242.32 174.039 241.807 173.693 241.322C173.258 241.445 172.822 241.569 172.387 241.692C170.443 242.241 168.498 242.785 166.562 243.369C165.868 243.579 165.172 243.784 164.485 244.022C164.094 244.157 163.745 244.51 164.02 244.099C163.913 244.259 163.743 244.362 163.558 244.415C163.334 245.637 163.132 246.864 162.939 248.088C161.871 254.856 161.117 261.68 160.457 268.51C160.221 270.959 160.206 273.642 159.885 276.175C160.313 275.538 160.738 274.889 161.163 274.239C160.19 268.333 165.706 255.463 171.92 259.918C179.359 265.253 168.271 273.612 162.726 275.122C162.465 275.297 162.06 275.417 161.759 275.392C161.112 276.378 160.459 277.345 159.774 278.253C159.688 283.889 159.616 289.526 159.559 295.162C159.781 294.69 160.024 294.229 160.317 293.8C162.162 291.088 164.735 289.313 167.188 287.382C167.058 284.007 169.202 280.001 170.93 277.549C172.431 275.417 175.127 272.269 177.914 273.477C181.726 275.13 180.279 279.913 178.402 282.587C176.432 285.393 173.071 288.145 169.708 288.009C168.631 287.965 169.641 286.888 170.302 286.915C173.086 287.028 176.12 283.999 177.527 281.571C178.244 280.333 179.058 278.689 178.737 277.151C178.492 275.976 177.634 274.325 176.343 274.35C173.865 274.399 171.747 278.452 170.748 280.528C169.989 282.107 169.046 284.095 168.83 286.026C169.875 285.112 170.859 284.12 171.704 282.95C172.084 282.424 173.608 282.492 173 283.332C171.843 284.935 170.357 286.181 168.81 287.355C168.819 287.456 168.827 287.558 168.842 287.659C168.93 288.251 167.861 288.644 167.428 288.384C167.001 288.7 166.578 289.019 166.159 289.342C166.425 289.256 166.689 289.222 166.838 289.314C167.542 289.744 168.254 290.116 168.975 290.438C169.197 290.403 169.402 290.423 169.515 290.522C169.585 290.498 169.656 290.48 169.731 290.472C173.348 290.058 177.25 288.745 180.862 289.897C182.611 290.454 184.238 291.642 184.825 293.651C185.237 295.065 185.819 297.681 184.822 299.02C182.954 301.527 179.368 300.164 177.192 298.991C173.95 297.242 170.185 294.75 168.15 291.346C167.213 290.964 166.293 290.504 165.39 289.955C164.012 291.082 162.749 292.322 161.812 293.904C158.65 299.244 160.256 306.82 159.847 312.86C159.816 313.327 159.027 313.621 158.57 313.485C158.203 313.525 157.861 313.412 157.862 313.053C157.863 309.229 157.883 305.407 157.909 301.584C157.887 301.567 157.87 301.547 157.864 301.522C156.99 297.967 157.098 293.834 156.735 290.187C156.052 283.317 155.311 276.432 154.148 269.636C153.994 268.734 153.846 267.833 153.691 266.94C153.507 266.919 153.342 266.84 153.237 266.684C153.043 266.395 150.671 265.884 150.022 265.692C148.226 265.161 146.425 264.65 144.623 264.141C142.984 263.679 141.342 263.224 139.705 262.748C139.34 262.642 138.79 262.569 138.321 262.41C138.683 263.261 138.926 264.145 138.971 265.07C145.764 265.997 143.949 278.094 137.095 278.237C133.167 278.319 129.293 275.095 130.276 270.353C131.058 266.583 133.968 264.562 137.24 264.424C137.004 263.34 136.522 262.31 135.953 261.342C135.807 261.093 137.274 260.417 137.541 260.872C137.6 260.973 137.653 261.074 137.71 261.176C137.828 261.054 137.978 260.96 138.134 260.926C138.144 260.924 138.153 260.922 138.161 260.92C138.473 260.853 138.718 260.931 138.876 261.074C138.882 261.06 138.888 261.045 138.894 261.03C139.224 261.343 141.071 261.673 141.76 261.869C143.698 262.419 145.639 262.96 147.576 263.512C149.336 264.014 151.101 264.504 152.845 265.07C152.992 265.117 153.176 265.163 153.371 265.215C152.633 261.468 151.553 257.944 148.89 255.167C145.792 251.938 142.256 248.825 138.43 246.408C133.421 248.091 121.733 245.745 124.939 237.978C128.117 230.277 137.385 239.832 138.714 244.456C138.755 244.597 138.573 244.754 138.32 244.876C140.582 246.151 142.756 247.683 144.804 249.362C142.899 243.795 143.215 236.054 150.16 236.933C159.44 238.106 154.666 249.42 152.403 255.356C152.311 255.598 151.905 255.767 151.526 255.831C152.359 256.806 153.086 257.869 153.492 259.161C154.377 261.974 154.987 264.889 155.501 267.809C156.622 274.179 157.393 280.621 158.055 287.068C158.09 284.418 158.131 281.768 158.171 279.119C157.982 279.115 157.854 279.073 157.876 278.985C157.999 278.486 158.103 277.975 158.196 277.457C158.488 258.701 158.873 239.946 158.992 221.188C154.062 215.911 152.434 203.703 161.912 203.85C170.779 203.988 164.511 217.01 161.275 220.743C161.123 220.919 160.864 221.013 160.603 221.033C160.597 221.043 160.591 221.053 160.584 221.062C160.507 233.17 160.32 245.277 160.115 257.384C160.666 252.847 161.317 248.325 162.18 243.85C163.522 236.89 166.535 229.14 171.227 223.573C171.035 223.535 170.85 223.494 170.683 223.446C170.179 223.299 171.569 222.623 171.971 222.726C174.437 220.024 177.333 217.919 180.665 216.808C181.58 216.503 181.683 216.967 180.777 217.269C177.85 218.245 175.307 220.346 173.124 222.931C177.164 223.331 185.486 221.557 184.617 216.463C184.366 214.994 183.573 213.278 182.344 212.535C180.259 211.275 178.11 212.964 176.606 214.554C174.571 216.703 172.685 219.313 171.847 222.325C171.715 222.8 170.158 223.034 170.276 222.613C171.492 218.241 174.906 213.962 178.633 212.011C181.603 210.456 185.441 211.521 186.13 215.554C187.195 221.785 177.611 224.113 172.463 223.734C170.154 226.67 168.28 230.118 166.823 233.253C165.414 236.286 164.532 239.536 163.862 242.849C164.195 242.744 164.527 242.666 164.774 242.588C166.522 242.035 168.282 241.531 170.043 241.031C170.969 240.768 171.894 240.507 172.82 240.246C172.754 240.174 172.691 240.099 172.624 240.028C172.351 239.74 173.804 239.087 174.118 239.419C174.231 239.538 174.339 239.663 174.449 239.786C174.537 239.761 174.624 239.737 174.712 239.712C174.698 239.698 174.691 239.683 174.7 239.664C176.434 236.265 188.36 227.6 189.85 235.203ZM137.828 246.039C135.635 244.707 133.353 243.605 131.004 242.85C130.595 242.719 131.977 242.102 132.318 242.211C133.828 242.696 135.316 243.324 136.772 244.057C134.852 240.148 127.125 231.823 126.185 238.924C125.416 244.739 133.654 247.644 137.828 246.039ZM150.463 241.167C150.463 245.488 150.463 249.808 150.463 254.128C150.463 254.275 150.406 254.404 150.314 254.511C150.539 254.746 150.763 254.982 150.984 255.223C152.607 251.119 156.735 242.379 152.578 239.055C150.847 237.67 147.11 236.739 145.954 239.393C145.337 240.81 145.161 242.372 145.302 243.934C145.553 246.713 146.308 249.463 147.714 251.802C147.737 251.839 147.734 251.88 147.715 251.925C148.101 252.287 148.481 252.653 148.855 253.023C148.855 249.116 148.855 245.21 148.855 241.304C148.854 240.522 150.463 240.25 150.463 241.167ZM138.93 266.114C138.906 266.315 138.882 266.515 138.837 266.72C138.737 267.176 137.174 267.441 137.267 267.017C137.355 266.619 137.385 266.23 137.389 265.845C136.843 265.819 137.027 265.531 137.374 265.3C137.373 265.287 137.371 265.275 137.37 265.263C137.341 265.266 137.313 265.268 137.29 265.266C133.743 264.982 131.007 268.84 131.871 272.644C132.564 275.698 136.212 278.859 139.113 276.979C142.535 274.761 142.722 267.573 138.93 266.114ZM170.943 291.174C172.311 291.584 173.724 291.807 175.209 291.833C176.013 291.847 174.552 292.603 174.19 292.597C172.987 292.576 171.823 292.429 170.688 292.164C172.191 293.998 174.183 295.508 176.021 296.717C177.578 297.741 183.974 301.88 183.717 297.308C183.249 288.986 176.481 290.383 170.943 291.174ZM162.64 272.028C164.153 269.833 165.787 267.767 167.828 266.257C168.12 266.042 169.718 265.835 169.05 266.33C166.492 268.222 164.594 271.036 162.758 273.858C162.786 274.004 162.817 274.148 162.854 274.291C167.192 272.976 176.741 265.839 171.397 261.317C167.686 258.177 165.082 262.969 163.888 266.492C163.335 268.128 162.719 270.12 162.64 272.028ZM159.004 218.474C159.016 216.014 159.035 213.554 159.036 211.094C159.036 210.477 160.628 210.116 160.628 210.892C160.627 213.729 160.608 216.566 160.592 219.403C163.026 215.872 168.104 205.727 162.46 205.162C154.63 204.376 155.879 213.314 159.004 218.474ZM176.563 243.901C176.601 244.184 176.624 244.473 176.62 244.773C176.613 245.306 175.028 245.558 175.032 245.243C175.038 244.83 174.99 244.439 174.917 244.059C174.578 244.023 174.473 243.804 174.663 243.597C171.7 244.356 169.853 247.812 170.668 251.117C171.476 254.39 175.101 257.173 178.124 255.125C181.702 252.698 180.916 244.159 176.563 243.901ZM188.382 236.286C187.029 229.382 178.334 235.469 176.315 239.257C176.851 239.105 177.388 238.953 177.922 238.791C178.162 238.719 178.859 238.324 178.5 238.665C178.5 238.668 178.501 238.671 178.502 238.674C178.703 238.483 178.988 238.361 179.275 238.422C179.284 238.424 179.293 238.426 179.302 238.428C179.858 238.548 179.993 239.086 179.561 239.497C179.027 240.004 177.95 240.113 177.305 240.299C177.306 240.299 177.305 240.299 177.305 240.299C181.004 241.394 189.539 242.189 188.382 236.286ZM362.778 253.076C360.476 255.761 359.444 259.535 358.77 263.326C359.242 263.156 359.753 263.051 360.088 262.946C360.661 262.765 361.236 262.596 361.811 262.424C361.809 262.349 361.803 262.275 361.8 262.2C361.788 261.791 363.091 261.51 363.346 261.678C363.443 261.741 363.541 261.816 363.639 261.884C364.224 261.715 364.808 261.545 365.393 261.379C366.688 261.01 367.985 260.645 369.28 260.28C367.507 255.712 369.044 244.215 375.103 244.693C383.392 245.348 376.569 255.242 372.595 259.337C373.009 259.219 373.422 259.103 373.834 258.979C374.323 258.832 375.008 258.316 374.469 258.935C374.472 258.942 374.475 258.95 374.479 258.957C374.673 258.687 375.026 258.48 375.38 258.548C375.389 258.549 375.399 258.551 375.408 258.553C375.646 258.599 375.867 258.778 375.93 259.002C375.952 258.964 375.971 258.926 375.993 258.888C376.251 258.448 377.698 258.359 377.562 258.592C376.876 259.761 376.311 260.995 376.113 262.309C380.208 262.05 384.202 265.28 383.731 270.216C383.315 274.573 379.387 277.347 375.555 276.968C372.955 276.711 371.254 275.01 370.449 272.876C370.452 273.025 370.464 273.174 370.459 273.322C370.354 276.832 367.881 279.266 364.821 279.677C359.391 280.407 360.543 268.18 361.914 263.892C361.908 263.834 361.905 263.776 361.9 263.719C361.287 263.902 360.675 264.085 360.066 264.285C359.792 264.375 358.898 264.84 359.09 264.538C358.962 264.739 358.741 264.852 358.508 264.89C358.273 266.395 358.075 267.878 357.858 269.272C356.766 276.291 355.983 283.365 355.298 290.444C354.956 293.973 355.052 297.971 354.198 301.41C354.165 301.54 353.988 301.65 353.763 301.73C353.975 305.764 353.535 309.997 353.794 313.776C353.845 314.521 352.252 314.914 352.206 314.246C351.769 307.854 353.776 298.823 349.774 293.496C348.585 291.913 347.157 290.64 345.666 289.449C344.853 289.93 344.026 290.351 343.185 290.712C341.008 294.301 336.971 297.086 333.525 298.888C331.75 299.816 326.39 302.405 325.302 298.971C323.974 294.786 326.683 290.329 330.416 289.438C334.399 288.488 338.267 289.622 342.231 290.072C342.363 290.087 342.438 290.121 342.477 290.165C342.628 290.127 342.783 290.107 342.922 290.108C343.631 289.788 344.332 289.419 345.027 288.994C345.039 288.988 345.053 288.982 345.065 288.975C344.554 288.576 344.039 288.181 343.525 287.786C343.06 287.921 342.542 287.835 342.608 287.392C342.622 287.294 342.63 287.194 342.64 287.095C342.443 286.941 342.249 286.784 342.055 286.626C342.101 286.937 341.736 287.356 341.225 287.376C337.514 287.527 333.692 284.281 331.772 280.965C330.184 278.224 329.357 273.672 332.889 272.14C336.12 270.739 338.871 273.7 340.593 276.442C342.255 279.087 344.39 282.909 344.275 286.362C347.207 288.577 350.317 290.61 352.016 294.02C352.62 295.234 353.022 296.529 353.297 297.874C353.682 294.49 353.699 290.92 354.033 287.68C354.169 286.352 354.309 285.023 354.452 283.695C354.132 283.792 353.812 283.813 353.706 283.671C351.571 280.782 350.094 277.253 348.413 274.038C348.333 273.884 348.252 273.726 348.17 273.568C342.33 271.694 331.262 262.551 339.59 257.614C341.914 256.237 343.963 256.668 345.661 258.115C345.554 257.733 345.464 257.407 345.418 257.21C344.906 255.033 344.375 252.86 343.841 250.69C343.687 250.064 343.532 249.439 343.378 248.814C343.012 248.725 342.64 248.659 342.27 248.632C345.671 258.994 329.983 263.658 328.676 252.897C327.787 245.572 338.885 240.946 341.49 248.019C342.04 247.925 342.598 247.896 343.159 247.925C343.079 247.603 343.002 247.28 342.923 246.956C342.793 246.964 342.684 246.944 342.621 246.883C338.4 242.792 332.579 231.281 341.744 230.005C348.147 229.113 347.12 242.713 345.084 246.376C345.005 246.516 344.799 246.617 344.56 246.685C344.683 247.188 344.807 247.69 344.93 248.192C345.245 248.268 345.561 248.357 345.877 248.461C346.215 248.572 345.656 248.919 345.15 249.086C345.428 250.215 345.706 251.343 345.981 252.473C346.503 254.611 347.035 256.748 347.497 258.904C347.6 259.389 347.896 260.221 347.885 260.866C347.892 260.876 347.898 260.886 347.904 260.896C349.711 263.967 351.638 269.263 350.542 273.036C350.906 273.148 350.544 273.465 350.118 273.675C350.102 273.683 350.085 273.691 350.068 273.699C350.065 273.7 350.063 273.701 350.061 273.703C351.503 276.55 352.849 279.594 354.612 282.215C355.25 276.439 355.996 270.667 357.091 264.981C357.654 262.055 358.166 258.876 359.311 256.141C359.97 254.566 361.242 253.165 362.499 251.933C362.327 251.845 362.207 251.686 362.207 251.439C362.207 246.833 362.207 242.226 362.207 237.621C362.207 236.839 363.816 236.568 363.816 237.484C363.816 241.879 363.816 246.274 363.816 250.669C363.834 250.652 363.853 250.634 363.871 250.617C364.313 250.195 364.762 249.777 365.215 249.362C365.144 249.306 365.127 249.221 365.203 249.094C366.876 246.32 367.986 242.47 367.733 239.12C367.628 237.73 367.383 236.059 366.407 235.052C364.8 233.392 361.667 233.255 359.92 234.806C355.395 238.824 360.016 248.041 361.721 252.517C361.884 252.946 360.329 253.502 360.133 252.987C357.819 246.914 352.827 235.666 361.632 233.262C364.944 232.359 368.679 233.304 369.215 237.574C369.623 240.827 368.956 244.31 367.593 247.273C371.993 243.567 376.863 240.396 382.145 238.704C383.062 238.411 383.168 238.873 382.257 239.165C379.951 239.904 377.651 240.986 375.418 242.31C375.425 242.312 375.433 242.314 375.44 242.317C379.882 244.519 390.645 241.481 387.757 234.218C385.143 227.642 377.382 237.337 376.311 241.088C376.18 241.544 374.635 241.764 374.742 241.389C375.846 237.527 379.389 233.664 382.725 232.081C385.329 230.845 388.695 230.518 389.524 234.345C391.275 242.427 379.439 245.329 374.221 243.045C371.561 244.744 369.021 246.772 366.711 248.957C366.694 248.985 366.679 249.015 366.662 249.043C366.618 249.116 366.528 249.183 366.415 249.242C365.12 250.482 363.898 251.769 362.778 253.076ZM342.185 244.053C342.04 243.544 341.92 242.996 342.035 242.568C342.199 241.963 343.187 241.835 343.523 242.286C343.529 242.294 343.535 242.303 343.541 242.311C343.634 242.435 343.661 242.56 343.645 242.677C343.73 242.778 343.792 243.493 343.85 243.743C343.959 244.205 344.071 244.666 344.182 245.128C345.548 241.02 345.848 233.545 342.772 231.292C340.786 229.837 338.336 231.697 338.285 234.174C338.251 235.789 338.625 237.36 339.247 238.82C340.029 240.655 341.007 242.455 342.185 244.053ZM340.761 249.363C340.45 249.412 340.17 249.369 340.118 249.17C340.113 249.152 340.107 249.137 340.102 249.119C339.77 249.329 339.375 249.473 338.988 249.447C338.698 249.427 338.611 249.207 338.887 249.031C339.221 248.819 339.56 248.65 339.902 248.501C337.679 242.602 329.106 246.24 330.265 252.428C330.916 255.907 334.128 259.699 337.633 257.987C340.774 256.452 341.758 252.75 340.761 249.363ZM347.385 272.007C346.011 269.263 344.464 266.273 342.242 264.571C341.995 264.382 343.361 263.678 343.737 263.966C346.103 265.778 347.707 269.081 349.137 271.898C349.214 269.081 348.059 264.828 346.348 261.681C346.288 261.625 346.247 261.554 346.231 261.468C344.219 257.88 341.483 255.857 339.075 259.367C335.792 264.152 342.471 269.736 347.385 272.007ZM342.535 284.986C342.174 282.928 341.171 280.811 340.319 279.219C339.138 277.011 337.286 273.623 334.839 272.952C332.863 272.41 331.632 274.93 331.95 276.826C332.224 278.466 332.925 279.956 333.898 281.23C335.637 283.507 338.499 286.414 341.416 286.296C341.516 286.292 341.598 286.3 341.673 286.313C340.363 285.221 339.126 284.034 338.085 282.592C337.641 281.976 339.167 281.336 339.551 281.87C340.402 283.051 341.43 284.057 342.535 284.986ZM341.156 291.468C339.488 291.977 337.764 292.255 335.978 292.286C334.919 292.305 336.196 291.53 336.651 291.522C338.086 291.497 339.446 291.285 340.763 290.904C337.828 290.511 334.835 289.626 331.873 290.015C329.775 290.289 327.784 291.275 327.117 293.689C326.739 295.056 326.258 297.142 326.89 298.504C328.97 302.979 338.252 295.023 341.156 291.468ZM367.986 269.946C366.92 267.55 365.408 265.293 363.521 263.574C363.952 267.435 365.305 271.064 366.725 274.627C366.825 274.877 365.287 275.475 365.137 275.096C364.162 272.648 363.219 270.168 362.583 267.604C362.47 268.731 362.435 269.862 362.448 270.933C362.473 273.132 362.494 276.742 364.173 278.338C365.877 279.959 368.215 277.514 368.656 275.558C369.086 273.654 368.764 271.695 367.986 269.946ZM376.399 263.158C376.357 263.264 376.221 263.389 376.049 263.499C376.061 263.876 376.095 264.257 376.18 264.647C376.276 265.085 374.684 265.536 374.592 265.117C374.499 264.692 374.465 264.276 374.455 263.864C369.623 264.918 370.926 274.754 375.47 275.955C379.442 277.005 382.937 273.013 382.041 268.689C381.378 265.493 379.234 263.388 376.399 263.158ZM370.422 257.576C371.146 255.037 372.187 252.618 373.067 250.119C373.25 249.602 374.81 249.394 374.646 249.859C373.579 252.886 372.273 255.793 371.586 258.943C375.015 255.47 380.585 248.173 375.667 245.966C371.271 243.993 369.949 252.708 370.422 257.576ZM364.873 262.851C366.939 264.642 368.969 267.276 369.912 270.039C369.846 266.958 371.364 263.863 374.479 263.106C374.587 261.915 374.991 260.782 375.543 259.708C374.978 260.112 374.113 260.225 373.525 260.396C371.769 260.905 370.008 261.396 368.249 261.893C367.124 262.21 365.998 262.528 364.873 262.851ZM249.617 162.392C249.286 163.816 247.907 164.647 246.641 164.674C245.514 164.699 243.223 163.719 244.012 162.042C244.561 160.874 245.692 160.252 246.862 160.028C247.068 159.957 247.285 159.928 247.492 159.945C247.788 159.925 248.081 159.92 248.361 159.946C248.592 159.968 248.672 160.122 248.626 160.284C249.341 160.672 249.853 161.375 249.617 162.392ZM248.072 162.235C248.003 161.409 247.469 161.012 246.806 160.871C246.152 161.015 245.499 161.49 245.474 162.268C245.447 163.086 246.618 163.99 247.315 163.753C247.789 163.59 248.113 162.74 248.072 162.235Z" fill="#030404"/>
<path d="M114.3 405.21C112.84 405.21 111.52 404.96 110.34 404.46C109.18 403.96 108.26 403.24 107.58 402.3C106.9 401.36 106.55 400.25 106.53 398.97H111.03C111.09 399.83 111.39 400.51 111.93 401.01C112.49 401.51 113.25 401.76 114.21 401.76C115.19 401.76 115.96 401.53 116.52 401.07C117.08 400.59 117.36 399.97 117.36 399.21C117.36 398.59 117.17 398.08 116.79 397.68C116.41 397.28 115.93 396.97 115.35 396.75C114.79 396.51 114.01 396.25 113.01 395.97C111.65 395.57 110.54 395.18 109.68 394.8C108.84 394.4 108.11 393.81 107.49 393.03C106.89 392.23 106.59 391.17 106.59 389.85C106.59 388.61 106.9 387.53 107.52 386.61C108.14 385.69 109.01 384.99 110.13 384.51C111.25 384.01 112.53 383.76 113.97 383.76C116.13 383.76 117.88 384.29 119.22 385.35C120.58 386.39 121.33 387.85 121.47 389.73H116.85C116.81 389.01 116.5 388.42 115.92 387.96C115.36 387.48 114.61 387.24 113.67 387.24C112.85 387.24 112.19 387.45 111.69 387.87C111.21 388.29 110.97 388.9 110.97 389.7C110.97 390.26 111.15 390.73 111.51 391.11C111.89 391.47 112.35 391.77 112.89 392.01C113.45 392.23 114.23 392.49 115.23 392.79C116.59 393.19 117.7 393.59 118.56 393.99C119.42 394.39 120.16 394.99 120.78 395.79C121.4 396.59 121.71 397.64 121.71 398.94C121.71 400.06 121.42 401.1 120.84 402.06C120.26 403.02 119.41 403.79 118.29 404.37C117.17 404.93 115.84 405.21 114.3 405.21ZM134.711 388.14C135.971 388.14 137.091 388.42 138.071 388.98C139.051 389.52 139.811 390.33 140.351 391.41C140.911 392.47 141.191 393.75 141.191 395.25V405H136.991V395.82C136.991 394.5 136.661 393.49 136.001 392.79C135.341 392.07 134.441 391.71 133.301 391.71C132.141 391.71 131.221 392.07 130.541 392.79C129.881 393.49 129.551 394.5 129.551 395.82V405H125.351V382.8H129.551V390.45C130.091 389.73 130.811 389.17 131.711 388.77C132.611 388.35 133.611 388.14 134.711 388.14ZM152.565 405.27C150.965 405.27 149.525 404.92 148.245 404.22C146.965 403.5 145.955 402.49 145.215 401.19C144.495 399.89 144.135 398.39 144.135 396.69C144.135 394.99 144.505 393.49 145.245 392.19C146.005 390.89 147.035 389.89 148.335 389.19C149.635 388.47 151.085 388.11 152.685 388.11C154.285 388.11 155.735 388.47 157.035 389.19C158.335 389.89 159.355 390.89 160.095 392.19C160.855 393.49 161.235 394.99 161.235 396.69C161.235 398.39 160.845 399.89 160.065 401.19C159.305 402.49 158.265 403.5 156.945 404.22C155.645 404.92 154.185 405.27 152.565 405.27ZM152.565 401.61C153.325 401.61 154.035 401.43 154.695 401.07C155.375 400.69 155.915 400.13 156.315 399.39C156.715 398.65 156.915 397.75 156.915 396.69C156.915 395.11 156.495 393.9 155.655 393.06C154.835 392.2 153.825 391.77 152.625 391.77C151.425 391.77 150.415 392.2 149.595 393.06C148.795 393.9 148.395 395.11 148.395 396.69C148.395 398.27 148.785 399.49 149.565 400.35C150.365 401.19 151.365 401.61 152.565 401.61ZM187.356 388.38L182.496 405H177.966L174.936 393.39L171.906 405H167.346L162.456 388.38H166.716L169.656 401.04L172.836 388.38H177.276L180.396 401.01L183.336 388.38H187.356ZM204.157 405.27C202.557 405.27 201.117 404.92 199.837 404.22C198.557 403.5 197.547 402.49 196.807 401.19C196.087 399.89 195.727 398.39 195.727 396.69C195.727 394.99 196.097 393.49 196.837 392.19C197.597 390.89 198.627 389.89 199.927 389.19C201.227 388.47 202.677 388.11 204.277 388.11C205.877 388.11 207.327 388.47 208.627 389.19C209.927 389.89 210.947 390.89 211.687 392.19C212.447 393.49 212.827 394.99 212.827 396.69C212.827 398.39 212.437 399.89 211.657 401.19C210.897 402.49 209.857 403.5 208.537 404.22C207.237 404.92 205.777 405.27 204.157 405.27ZM204.157 401.61C204.917 401.61 205.627 401.43 206.287 401.07C206.967 400.69 207.507 400.13 207.907 399.39C208.307 398.65 208.507 397.75 208.507 396.69C208.507 395.11 208.087 393.9 207.247 393.06C206.427 392.2 205.417 391.77 204.217 391.77C203.017 391.77 202.007 392.2 201.187 393.06C200.387 393.9 199.987 395.11 199.987 396.69C199.987 398.27 200.377 399.49 201.157 400.35C201.957 401.19 202.957 401.61 204.157 401.61ZM223.528 391.83H220.618V405H216.358V391.83H214.468V388.38H216.358V387.54C216.358 385.5 216.938 384 218.098 383.04C219.258 382.08 221.008 381.63 223.348 381.69V385.23C222.328 385.21 221.618 385.38 221.218 385.74C220.818 386.1 220.618 386.75 220.618 387.69V388.38H223.528V391.83ZM256.447 388.38L246.157 412.86H241.687L245.287 404.58L238.627 388.38H243.337L247.627 399.99L251.977 388.38H256.447ZM266.091 405.27C264.491 405.27 263.051 404.92 261.771 404.22C260.491 403.5 259.481 402.49 258.741 401.19C258.021 399.89 257.661 398.39 257.661 396.69C257.661 394.99 258.031 393.49 258.771 392.19C259.531 390.89 260.561 389.89 261.861 389.19C263.161 388.47 264.611 388.11 266.211 388.11C267.811 388.11 269.261 388.47 270.561 389.19C271.861 389.89 272.881 390.89 273.621 392.19C274.381 393.49 274.761 394.99 274.761 396.69C274.761 398.39 274.371 399.89 273.591 401.19C272.831 402.49 271.791 403.5 270.471 404.22C269.171 404.92 267.711 405.27 266.091 405.27ZM266.091 401.61C266.851 401.61 267.561 401.43 268.221 401.07C268.901 400.69 269.441 400.13 269.841 399.39C270.241 398.65 270.441 397.75 270.441 396.69C270.441 395.11 270.021 393.9 269.181 393.06C268.361 392.2 267.351 391.77 266.151 391.77C264.951 391.77 263.941 392.2 263.121 393.06C262.321 393.9 261.921 395.11 261.921 396.69C261.921 398.27 262.311 399.49 263.091 400.35C263.891 401.19 264.891 401.61 266.091 401.61ZM293.531 388.38V405H289.301V402.9C288.761 403.62 288.051 404.19 287.171 404.61C286.311 405.01 285.371 405.21 284.351 405.21C283.051 405.21 281.901 404.94 280.901 404.4C279.901 403.84 279.111 403.03 278.531 401.97C277.971 400.89 277.691 399.61 277.691 398.13V388.38H281.891V397.53C281.891 398.85 282.221 399.87 282.881 400.59C283.541 401.29 284.441 401.64 285.581 401.64C286.741 401.64 287.651 401.29 288.311 400.59C288.971 399.87 289.301 398.85 289.301 397.53V388.38H293.531ZM301.875 390.96C302.415 390.08 303.115 389.39 303.975 388.89C304.855 388.39 305.855 388.14 306.975 388.14V392.55H305.865C304.545 392.55 303.545 392.86 302.865 393.48C302.205 394.1 301.875 395.18 301.875 396.72V405H297.675V388.38H301.875V390.96Z" fill="#0A0B0E"/>
<path d="M324.273 384.06C326.473 384.06 328.403 384.49 330.063 385.35C331.743 386.21 333.033 387.44 333.933 389.04C334.853 390.62 335.313 392.46 335.313 394.56C335.313 396.66 334.853 398.5 333.933 400.08C333.033 401.64 331.743 402.85 330.063 403.71C328.403 404.57 326.473 405 324.273 405H316.953V384.06H324.273ZM324.123 401.43C326.323 401.43 328.023 400.83 329.223 399.63C330.423 398.43 331.023 396.74 331.023 394.56C331.023 392.38 330.423 390.68 329.223 389.46C328.023 388.22 326.323 387.6 324.123 387.6H321.153V401.43H324.123ZM353.907 396.33C353.907 396.93 353.867 397.47 353.787 397.95H341.637C341.737 399.15 342.157 400.09 342.897 400.77C343.637 401.45 344.547 401.79 345.627 401.79C347.187 401.79 348.297 401.12 348.957 399.78H353.487C353.007 401.38 352.087 402.7 350.727 403.74C349.367 404.76 347.697 405.27 345.717 405.27C344.117 405.27 342.677 404.92 341.397 404.22C340.137 403.5 339.147 402.49 338.427 401.19C337.727 399.89 337.377 398.39 337.377 396.69C337.377 394.97 337.727 393.46 338.427 392.16C339.127 390.86 340.107 389.86 341.367 389.16C342.627 388.46 344.077 388.11 345.717 388.11C347.297 388.11 348.707 388.45 349.947 389.13C351.207 389.81 352.177 390.78 352.857 392.04C353.557 393.28 353.907 394.71 353.907 396.33ZM349.557 395.13C349.537 394.05 349.147 393.19 348.387 392.55C347.627 391.89 346.697 391.56 345.597 391.56C344.557 391.56 343.677 391.88 342.957 392.52C342.257 393.14 341.827 394.01 341.667 395.13H349.557ZM363.332 405.27C361.972 405.27 360.752 405.03 359.672 404.55C358.592 404.05 357.732 403.38 357.092 402.54C356.472 401.7 356.132 400.77 356.072 399.75H360.302C360.382 400.39 360.692 400.92 361.232 401.34C361.792 401.76 362.482 401.97 363.302 401.97C364.102 401.97 364.722 401.81 365.162 401.49C365.622 401.17 365.852 400.76 365.852 400.26C365.852 399.72 365.572 399.32 365.012 399.06C364.472 398.78 363.602 398.48 362.402 398.16C361.162 397.86 360.142 397.55 359.342 397.23C358.562 396.91 357.882 396.42 357.302 395.76C356.742 395.1 356.462 394.21 356.462 393.09C356.462 392.17 356.722 391.33 357.242 390.57C357.782 389.81 358.542 389.21 359.522 388.77C360.522 388.33 361.692 388.11 363.032 388.11C365.012 388.11 366.592 388.61 367.772 389.61C368.952 390.59 369.602 391.92 369.722 393.6H365.702C365.642 392.94 365.362 392.42 364.862 392.04C364.382 391.64 363.732 391.44 362.912 391.44C362.152 391.44 361.562 391.58 361.142 391.86C360.742 392.14 360.542 392.53 360.542 393.03C360.542 393.59 360.822 394.02 361.382 394.32C361.942 394.6 362.812 394.89 363.992 395.19C365.192 395.49 366.182 395.8 366.962 396.12C367.742 396.44 368.412 396.94 368.972 397.62C369.552 398.28 369.852 399.16 369.872 400.26C369.872 401.22 369.602 402.08 369.062 402.84C368.542 403.6 367.782 404.2 366.782 404.64C365.802 405.06 364.652 405.27 363.332 405.27ZM375.45 386.4C374.71 386.4 374.09 386.17 373.59 385.71C373.11 385.23 372.87 384.64 372.87 383.94C372.87 383.24 373.11 382.66 373.59 382.2C374.09 381.72 374.71 381.48 375.45 381.48C376.19 381.48 376.8 381.72 377.28 382.2C377.78 382.66 378.03 383.24 378.03 383.94C378.03 384.64 377.78 385.23 377.28 385.71C376.8 386.17 376.19 386.4 375.45 386.4ZM377.52 388.38V405H373.32V388.38H377.52ZM388.18 388.11C389.42 388.11 390.51 388.36 391.45 388.86C392.39 389.34 393.13 389.97 393.67 390.75V388.38H397.9V405.12C397.9 406.66 397.59 408.03 396.97 409.23C396.35 410.45 395.42 411.41 394.18 412.11C392.94 412.83 391.44 413.19 389.68 413.19C387.32 413.19 385.38 412.64 383.86 411.54C382.36 410.44 381.51 408.94 381.31 407.04H385.48C385.7 407.8 386.17 408.4 386.89 408.84C387.63 409.3 388.52 409.53 389.56 409.53C390.78 409.53 391.77 409.16 392.53 408.42C393.29 407.7 393.67 406.6 393.67 405.12V402.54C393.13 403.32 392.38 403.97 391.42 404.49C390.48 405.01 389.4 405.27 388.18 405.27C386.78 405.27 385.5 404.91 384.34 404.19C383.18 403.47 382.26 402.46 381.58 401.16C380.92 399.84 380.59 398.33 380.59 396.63C380.59 394.95 380.92 393.46 381.58 392.16C382.26 390.86 383.17 389.86 384.31 389.16C385.47 388.46 386.76 388.11 388.18 388.11ZM393.67 396.69C393.67 395.67 393.47 394.8 393.07 394.08C392.67 393.34 392.13 392.78 391.45 392.4C390.77 392 390.04 391.8 389.26 391.8C388.48 391.8 387.76 391.99 387.1 392.37C386.44 392.75 385.9 393.31 385.48 394.05C385.08 394.77 384.88 395.63 384.88 396.63C384.88 397.63 385.08 398.51 385.48 399.27C385.9 400.01 386.44 400.58 387.1 400.98C387.78 401.38 388.5 401.58 389.26 401.58C390.04 401.58 390.77 401.39 391.45 401.01C392.13 400.61 392.67 400.05 393.07 399.33C393.47 398.59 393.67 397.71 393.67 396.69ZM411.212 388.14C413.192 388.14 414.792 388.77 416.012 390.03C417.232 391.27 417.842 393.01 417.842 395.25V405H413.642V395.82C413.642 394.5 413.312 393.49 412.652 392.79C411.992 392.07 411.092 391.71 409.952 391.71C408.792 391.71 407.872 392.07 407.192 392.79C406.532 393.49 406.202 394.5 406.202 395.82V405H402.002V388.38H406.202V390.45C406.762 389.73 407.472 389.17 408.332 388.77C409.212 388.35 410.172 388.14 411.212 388.14Z" fill="#1400FF"/>
</svg>
