<svg version="1.1" id="Layer_1" xmlns="http://www.w3.org/2000/svg" xmlns:xlink="http://www.w3.org/1999/xlink" x="0px" y="0px" width="595.28px" height="595.28px" viewBox="0 0 595.28 595.28" enable-background="new 0 0 595.28 595.28" xml:space="preserve">
<path id="color_x5F_2" fill="#FBC02D" d="M263.72,140.695c-1.942-0.583-5.77-2.599-9.725-4.847
	c3.772,1.874,7.555,3.657,11.353,5.368C264.682,140.996,264.122,140.816,263.72,140.695z M250.72,121.695l-1.332,0.222
	c0.908,0.034,1.81,0.096,2.707,0.18C251.226,121.838,250.72,121.695,250.72,121.695z M296.224,150.126
	c0.159-0.375,0.294-0.758,0.406-1.149c0.262-0.973,0.452-1.959,0.608-2.952c-2.083-4.216-9.059-7.097-12.769-9.279
	c-12.451-7.322-25.592-14.154-40.395-13.457c-0.953,1.382-1.808,2.939-2.548,4.721c4.243,1.475,8.296,3.337,11.802,5.071
	c9.088,4.492,17.883,9.162,27.375,12.817c4.5,1.733,9.25,3.226,13.996,4.779c0.42-0.233,1.02-0.446,1.512-0.509
	C296.217,150.154,296.218,150.142,296.224,150.126z M297.646,142.1c0.004-0.062,0.01-0.123,0.014-0.185
	c-0.092-0.02-0.198-0.044-0.297-0.066C297.458,141.932,297.554,142.015,297.646,142.1z M237.622,484.29
	c-1.225-0.315-2.419-0.709-3.578-1.178C235.09,483.644,236.303,484.028,237.622,484.29z M317.169,371.313
	c-11.632-7.897-16.91-19.333-20.352-31.977c-5.532,3.631-13.067,3.869-19.412,3.024c-5.973-0.794-14.154-2.253-18.406-7.021
	c-5.251-5.89-5.615-16.787-5.675-24.227c-0.074-9.116,0.825-18.339,3.511-27.08c0.189-0.615,1.017-0.934,1.729-0.894
	c0.587-0.292,1.337-0.443,1.786-0.23c7.813,3.708,19.152,6.524,27.63,3.892c0.733-0.228,1.223-0.041,1.44,0.284
	c0.114-0.014,0.225-0.02,0.333-0.019c2.138-4.417,6.468-8.609,11.399-11.233c-1.153-1.704-2.168-3.514-3.228-5.295
	c-0.689-1.159,2.113-2.139,2.675-1.194c1.028,1.729,2.019,3.485,3.131,5.146c0.129-0.026,0.333-0.063,0.606-0.103
	c3.093-1.148,6.276-1.603,9.197-1.084c0.582-2.526,1.647-4.813,3.085-6.792c-0.383,0.048-0.698,0.011-0.805-0.182
	c-11.321-20.33-13.449-46.523-2.902-67.585c-3.5-0.298-6.866-1.036-9.816-2.649c-4.279,15.864-8.961,34.94-2.099,50.596
	c0.168-0.023,0.336-0.045,0.503-0.069c1.84-0.263,0.992,0.876-0.129,1.225c-0.313,0.675-2.512,1.29-2.891,0.483
	c-0.006-0.013-0.011-0.026-0.017-0.039c-6.281,0.875-12.592,1.649-18.929,1.917c-6.161,0.26-14.018,0.857-19.719-2.04
	c-4.469-2.271-5.525-7.995-6.78-12.486c-1.821-6.522-3.316-13.562-2.454-20.363c-0.305-0.033-0.493-0.13-0.419-0.304
	c0.343-0.808,0.625-1.65,0.89-2.505c-0.708,0.012-1.392,0.052-2.052,0.124c-6.028,5.453-7.013,18.173-1.708,24.141
	c0.159,0.179-0.024,0.406-0.356,0.614c7.884,17.135,4.675,38.202,2.587,56.247c-2.79,24.111-12.786,46.978-19.068,70.342
	c-4.951,18.415-9.332,37.144-11.404,56.129c-1.239,11.353-1.91,23.056-0.088,34.389c2.307,14.353,9.703,28.309,25.641,29.501
	c11.271,0.844,22.464-6.447,32.245-11.186c1.355-0.656,16.336-8.507,24.034-11.567l1.479-0.765
	c-4.363-8.056-8.469-16.251-11.87-24.766c-2.109-5.283-3.938-10.626-5.677-15.992c-0.173,0.138-0.381,0.266-0.672,0.358
	c-4.741,1.502-8.623,5.03-12.372,8.157c-0.788,0.657-3.668,0.507-2.354-0.589c4.37-3.645,8.78-7.43,14.294-9.177
	c0.253-0.08,0.469-0.104,0.664-0.103c-2.114-6.584-4.111-13.2-6.314-19.786c-2.207-6.598-5.099-9.887-11.75-12.035
	c-4.529-1.463-9.068-2.811-12.847-5.812c-1.251-0.994,1.345-2.307,2.258-1.582c7.297,5.795,18.324,4.652,23.156,13.477
	c2.175,3.972,3.032,8.594,4.198,12.922c1.584,5.881,3.717,11.653,5.776,17.383c4.415,12.289,9.649,23.961,15.782,35.483
	c2.397,4.503,4.822,9.488,7.788,14.007c2.766,3.499,5.934,7.115,9.15,9.984c15.298,10.653,35.153-4.725,43.858-17.337
	c0.589-0.854,1.146-1.722,1.687-2.595l4.223-7.7c2.888-5.855,5.362-11.879,8.5-17.657c0.186-5.654-0.043-11.789-1.082-17.747
	c-0.027-0.158-0.055-0.315-0.083-0.473c-1.151-6.334-3.227-12.441-6.704-17.505c-1.966-2.864-4.306-5.781-7.545-7.28
	c-4.356-2.017-7.425,2.059-9.813,5.211c-4.065,5.369-7.416,11.194-8.334,17.84c0.238,4.124,0.406,8.252,0.429,12.387
	c0.005,0.891-2.895,1.342-2.897,0.776c-0.018-3.214-0.139-6.422-0.296-9.629c-0.233-0.111-0.385-0.299-0.374-0.589
	c0.032-0.832,0.116-1.661,0.225-2.488c-0.732-12.513-2.111-24.991-2.213-37.536c-0.148-0.044-0.319-0.098-0.479-0.146
	C332.31,378.692,324.168,376.065,317.169,371.313z M331.049,487.881c1.857,0.292,3.956,0.015,6.17-0.65
	C335.164,487.643,333.08,487.884,331.049,487.881z M259.401,285.077c-2.179,7.396-3.092,15.302-3.144,22.987
	c-0.051,7.51,0.299,15.839,3.474,22.802c2.762,6.056,10.232,8.099,16.35,9.062c6.534,1.029,14.679,1.573,20.145-2.863
	c-0.568-2.241-1.093-4.51-1.589-6.805c-1.966-9.093-3.801-18.218-5.476-27.369c-0.586-3.205-1.178-6.412-1.659-9.635
	c-0.146-0.972-0.736-2.752-0.335-3.727c0.078-0.188,0.313-0.346,0.618-0.469c0-0.096,0.006-0.196,0.008-0.292
	C278.93,291.233,267.75,288.771,259.401,285.077z"></path>
<path id="color_x5F_1" d="M247.528,162.034c-1.523,2.292-8.049,12.261-1.317,11.614c1.913-0.184-0.433,1.178-1.231,1.255
	c-2.811,0.27-5.335-0.624-4.577-3.906c0.713-3.086,2.527-5.873,4.26-8.479C245.148,161.788,247.791,161.64,247.528,162.034z
	 M257.211,178.612c-0.322,0.909-0.711,1.774-1.501,2.365c-0.716,0.536-1.8,0.371-2.611,0.25c-1.42-0.213-2.954,1.805-1.006,2.097
	c3.555,0.533,6.653-0.901,7.888-4.385C260.539,177.361,257.639,177.406,257.211,178.612z M256.308,162.2
	c1.97-2.21,4.792-2.437,6.461,0.212c0.696,1.104,3.46,0.005,2.653-1.274c-2.743-4.352-8.527-3.166-11.539,0.212
	C252.664,162.719,255.441,163.172,256.308,162.2z M279.669,170.041c1.292-1.843,4.767-3.38,6.375-1.153
	c0.189,0.262-2.405,1.458-2.897,0.776c-0.118-0.163-0.259-0.315-0.416-0.446c-0.075,0.103-0.147,0.204-0.209,0.292
	c-0.339,0.484-1.168,0.665-1.705,0.765C280.74,170.289,279.383,170.449,279.669,170.041z M282.319,168.971
	C282.158,168.919,282.163,168.967,282.319,168.971L282.319,168.971z M150.48,161.664c11.763,17.512,12.978,38.213,6.018,57.858
	c-0.213,0.602,2.592,0.269,2.862-0.493c6.977-19.692,5.839-40.542-5.982-58.142C152.878,160.143,150.22,161.276,150.48,161.664z
	 M158.604,151.252c6.317,11.026,9.078,22.798,9.189,35.462c0.014,1.543,2.95,1.116,2.938-0.211
	c-0.115-13.034-2.974-25.186-9.478-36.538C160.594,148.813,157.837,149.913,158.604,151.252z M139.522,116.616
	c0.329-3.232,1.797-6.264,3.64-9.104c0.481-0.741,3.147-0.904,2.868-0.475c-1.629,2.511-2.98,5.165-3.471,7.987
	c9.339-0.51,18.234,5.621,18.304,15.682c0.068,9.824-9.021,17.051-18.666,16.148C125.369,145.279,123.667,119.38,139.522,116.616z
	 M141.887,144.87c9.041,1.413,17.523-6.047,15.916-15.344c-1.297-7.507-7.019-12.623-14.472-12.731
	c0.007,0.335-0.424,0.791-0.949,1.087c0.037,0.768,0.139,1.546,0.331,2.338c0.185,0.764-2.72,1.51-2.897,0.776
	c-0.217-0.897-0.33-1.781-0.355-2.65C126.899,120.369,129.638,142.956,141.887,144.87z M412.166,285.384
	c0.992,15.704,0.393,32.061-1.252,47.692c-1.651,15.694-8.616,30.931-22.705,39.143c-3.284,1.915-6.747,3.44-10.318,4.643
	c0.112,0.062,0.137,0.16,0.017,0.307c-1.171,1.435-4.862,1.729-6.493,2.048c-4.829,0.942-9.762,1.484-14.68,1.618
	c-4.168,0.113-8.426-0.01-12.658-0.457c0.133,9.611,0.966,19.185,1.67,28.767c2.2-5.149,5.587-9.892,9.421-13.683
	c4.46-4.41,8.718-4.877,13.919-1.274c3.438,2.381,6.052,5.682,8.031,9.498c0.146-0.018,0.305-0.033,0.481-0.043
	c16.925-3.729,17.853,37.665,18.042,47.356c0.221,11.28-1.633,23.239-11.535,30.251c-3.166,2.241-7.795,3.835-11.711,3.14
	c-5.775-1.025-9.073-5.546-11.137-10.627c-3.97,4.125-8.521,7.725-13.737,10.09c-2.982,1.352-6.591,2.635-10.303,3.379
	c-2.056,0.412-4.14,0.654-6.17,0.65c-2.395-0.004-4.713-0.346-6.805-1.175c-8.563-3.397-13.889-11.84-18.205-19.551
	c-1.066-1.905-2.121-3.818-3.166-5.737c-0.306,0.131-0.611,0.263-0.914,0.402c-0.881,0.404-1.759,0.815-2.633,1.235
	c-2.397,1.151-4.784,2.327-7.168,3.504c-6.445,3.182-12.883,6.383-19.387,9.444c-7.864,3.701-16.992,9.161-25.935,9.321
	c-3.17,0.057-6.275-0.277-9.215-1.034c-1.225-0.315-2.419-0.709-3.578-1.178c-4.529-1.833-8.498-4.853-11.435-9.299
	c-5.379-8.142-7.035-18.333-7.474-27.905c-0.797-17.352,1.851-34.845,5.35-51.79c2.635-12.759,5.824-25.401,9.406-37.927
	c4.253-14.873,9.748-29.445,13.651-44.403c3.365-12.893,4.64-26.872,5.138-40.193c0.031-0.831,0.057-1.666,0.078-2.502
	c-10.077,15.788-27.6,34.975-47.581,34.697c-11.716-0.163-20.165-7.828-27.261-16.509c-8.708-10.653-15.379-22.768-24.01-33.477
	c-0.166-0.206-0.05-0.432,0.204-0.637c-0.269-0.078-0.384-0.242-0.179-0.523c1.906-2.626,4.139-4.904,6.574-6.962
	c-18.56-1.778-30.296-29.193-19.829-44.09c0.34-0.484,0.798-1.083,1.344-1.739c1.45-6.294,7.296-13.803,13.448-15.45
	c3.537-0.947,7.155,1.592,8.022,5.133c1.111,4.536-2.135,7.819-4.12,11.532c-0.205,0.383-0.908,0.643-1.572,0.747
	c-1.541,5.595-7.237,11.139-7.063,16.701c0.043,1.378-2.895,1.775-2.944,0.189c-0.205-6.547,5.971-11.584,7.124-17.823
	c0.344-1.858,0.442-4.147-1.396-5.343c-2.483-1.616-5.28,0.93-6.865,2.625c-0.667,0.713-1.32,1.458-1.947,2.226
	c0,0.003-0.001,0.007-0.002,0.01c-0.029,0.181-0.181,0.345-0.396,0.485c-1.405,1.783-2.648,3.706-3.531,5.772
	c-5.736,13.429,6.142,35.632,20.974,36.847c0.511,0.042,0.786,0.222,0.892,0.462c5.896-4.472,12.765-7.854,19.369-11.348
	c-0.234-0.252-0.279-0.625,0.038-1.106c4.385-6.659,3.214-13.702,3.102-21.193c-0.057-3.825,1.193-7.122,2.625-10.631
	c1.089-2.669,5.494-10.453,2.827-13.105c-2.25-2.238-4.902-3.392-7.28-0.661c-4.474,5.135-6.26,12.774-7.487,19.294
	c-0.959,5.099-2.257,11.164-1.125,16.339c0.3,1.371-2.602,2.128-2.897,0.776c-1.599-7.302,0.606-16.397,2.608-23.396
	c1.531-5.352,4.169-15.144,10.672-16.64c2.852-0.656,5.212,0.324,7.358,2.219c2.931,2.589,1.443,6.853,0.275,10.002
	c-2.144,5.778-4.898,10.875-4.579,17.183c0.348,6.882,0.547,13.093-2.722,19.077c1.462-0.808,2.902-1.631,4.299-2.487
	c0.468-0.287,1.529-0.366,2.022-0.186c0.367-0.081,0.697-0.093,0.885,0.03c6.139,4.036,8.667,11.663,12.264,17.718
	c1.581,2.661,3.802,6.611,7.157,7.273c5.117,1.009,10.631-6.749,12.995-10.489c4.878-7.72,7.482-16.875,13.546-23.829
	c3.397-3.896,7.967-6.019,12.857-6.905c0.01-0.007,0.019-0.017,0.028-0.024c0.395-0.299,2.137-0.584,2.461-0.32
	c0.476-0.046,0.953-0.081,1.432-0.106c0.643-2.146,1.288-4.303,2.61-6.101c1.237-1.683,2.98-2.669,4.906-3.064
	c-2.409-3.482-5.608-5.576-10.441-7.117c-4.423-1.41-8.979-3.434-12.023-7.103c-4.305-5.187-5.427-11.82-5.596-18.581
	c-7.95-0.07-14.363-7.068-18.384-13.237c-4.616-7.081-6.75-15.861-1.419-23.137c6.903-9.422,17.928-9.003,28.219-5.842
	c4.354-9.21,12.365-13.301,22.455-14.311c4.752-0.476,10.55-1.575,15.272-0.484c5.478,1.266,10.539,4.178,14.989,7.555
	c3.032,2.3,6.569,4.698,7.595,8.572c1.181,4.458,1.339,9.27,0.917,13.85c-0.041,0.445-0.17,1.46-0.408,2.675
	c0.032,0.062,0.073,0.121,0.104,0.184c0.069,0.144-0.036,0.308-0.238,0.465c-0.467,2.153-1.256,4.686-2.467,5.821
	c5.901,1.98,11.722,4.147,16.975,7.093c6.652,3.729,7.704,10.721,1.612,15.787c-6.905,5.741-16.012,6.645-24.653,5.713
	c-1.879,3.104-3.9,6.207-5.357,9.393c-0.043,0.095-0.119,0.181-0.21,0.262c0.166,0.358,0.337,0.714,0.513,1.066
	c0.228-0.039,0.444-0.042,0.621,0.01c1.493,0.447,4.698-1.483,6.548-1.333c4,0.324,6.888,2.249,10.33,4.162
	c9.638,5.356,22.498,2.666,33.167,3.043c18.423,0.652,31.782,12.192,41.945,26.912c10.444,15.125,16.978,32.799,18.583,51.121
	c2.116-0.291,4.312-0.132,6.323,0.47c0.277-0.36,0.566-0.709,0.878-1.037c0.801-0.844,3.617-0.589,2.386,0.707
	c-0.37,0.389-0.698,0.812-1.004,1.249c1.85,0.973,3.383,2.419,4.332,4.339c0.115,0.085,0.207,0.196,0.262,0.337
	c0.331,0.847,0.536,1.688,0.637,2.521c0.008,0.05,0.022,0.095,0.029,0.145c0.008,0.056,0.002,0.109-0.001,0.163
	c0.008,0.085,0.019,0.171,0.024,0.256c0.292,0.003,0.52,0.075,0.604,0.248C412.166,284.551,412.144,285.027,412.166,285.384z
	 M142.362,195.488c3.694-3.028,8.125-4.874,10.763-0.222c0.672,1.185,0.984,2.365,1.04,3.544c1.189-1.78,2.378-3.612,2.62-5.675
	c0.427-3.643-3.011-9.496-7.011-6.512C146.945,188.733,144.125,191.98,142.362,195.488z M397.69,276.706
	c0.011,0.154,0.028,0.308,0.038,0.462c0.446,6.953,0.48,13.922,0.253,20.884c5.654-2.311,11.444-8.371,10.315-14.658
	c-0.521-2.11-1.759-3.8-3.395-4.969c-0.521,1.281-0.811,2.657-0.846,4.045c-0.03,1.168-2.957,1.68-2.921,0.276
	c0.049-1.919,0.586-3.821,1.486-5.529C401.091,276.66,399.394,276.474,397.69,276.706z M394.535,318.866
	c-6.463,3.609-12.732,4.573-20.363,3.558c-4.844-0.645-10.176-1.166-15.174-2.484c-0.802,7.555-8.76,11.234-11.688,17.914
	c-0.924,2.109-1.563,5.416,0.108,7.409c1.83,2.183,4.946-0.887,6.341-2.129c2.253-2.005,4.272-4.23,6.342-6.413
	c0.006-0.111,0.023-0.222,0.028-0.333c0.027-0.625,0.72-1.046,1.426-1.151c1.011-0.707,3.443-0.28,2.247,0.942
	c-0.203,0.208-0.48,0.509-0.81,0.873c-0.306,3.32-1.464,6.649-2.218,9.861c-0.498,2.12-1.02,4.256-1.308,6.417
	c-0.044,0.333-0.613,5.392,0.706,4.618c3.336-1.959,5.203-7.412,6.632-10.785c1.197-2.827,2.229-5.717,3.407-8.55
	c0.491-1.181,3.408-1.21,2.77,0.326c-2.02,4.855-3.649,9.896-6.257,14.489c-0.323,0.57-0.728,1.289-1.201,2.042
	c8.434,0.465,13.279-14.728,15.124-21.013c0.288-0.983,3.202-1.399,2.897-0.362c-1.457,4.964-4.005,12.368-8.116,17.443
	c6.62-3.01,11.496-12.462,12.712-19.102c0.198-1.081,3.134-1.548,2.909-0.32c-0.678,3.7-2.255,7.726-4.525,11.323
	C393.607,337.678,395.557,327.94,394.535,318.866z M256.257,308.064c-0.051,7.51,0.299,15.839,3.474,22.802
	c2.762,6.056,10.232,8.099,16.35,9.062c6.534,1.029,14.679,1.573,20.145-2.863c-0.568-2.241-1.093-4.51-1.589-6.805
	c-1.966-9.093-3.801-18.218-5.476-27.369c-0.586-3.205-1.178-6.412-1.659-9.635c-0.146-0.972-0.736-2.752-0.335-3.727
	c0.078-0.188,0.313-0.346,0.618-0.469c0-0.096,0.006-0.196,0.008-0.292c-8.863,2.464-20.043,0.002-28.392-3.691
	C257.222,292.473,256.31,300.379,256.257,308.064z M290.943,290.847c1.965,8.494,14.918,11.353,23.297,12.663
	c-7.665-6.876-3.879-18.49,3.54-25.186c-0.871-1.017-1.829-1.796-2.846-2.376c-0.849,0.254-1.861,0.187-1.784-0.483
	c0.012-0.101,0.035-0.196,0.048-0.296c-2.715-0.909-5.724-0.602-8.625,0.518c0.978,1.328,2.063,2.573,3.36,3.657
	c0.914,0.764-1.802,1.923-2.675,1.194c-1.279-1.069-2.354-2.294-3.321-3.602c-5.266,2.974-9.698,8.366-10.572,13.443
	C291.335,290.553,291.172,290.711,290.943,290.847z M332.458,265.374c0-1.62,0-3.24,0-4.859c-8.512-0.421-14.87,5.205-16.258,13.582
	c1.334,0.572,2.577,1.401,3.688,2.529c2.221-1.585,4.663-2.726,7.165-3.211c-0.729-1.25-1.548-2.458-2.479-3.614
	c-0.576-0.715,2.194-1.695,2.713-1.052c1.133,1.406,2.124,2.885,2.973,4.428c0.19,0.008,0.38,0.004,0.569,0.021
	c6.137,0.536,11.141,4.691,13.953,9.979c1.264-1.911,2.994-3.423,4.991-4.553c-0.58-6.187-3.553-11.93-8.477-15.235
	c-0.856,0.153-1.737-0.045-1.386-0.827c0.001-0.002,0.002-0.004,0.003-0.006c-0.209-0.113-0.422-0.222-0.637-0.327
	c-0.866,0.381-2.131,0.186-2.152-0.863c0-0.003,0-0.006,0-0.01c-0.557-0.181-1.132-0.332-1.722-0.458c0,1.426,0,2.852,0,4.278
	C335.4,266.539,332.458,266.942,332.458,265.374z M346.315,253.798c1.767-1.494,3.774-2.61,5.966-3.094
	c-2.53-2.998-5.583-5.609-8.552-7.758c-3.169-2.295-6.648-4.513-10.326-6.286c3.316,7.693,6.285,15.162,6.63,23.701
	c0.272,0.107,0.543,0.215,0.808,0.333c0.958-1.756,2.161-3.505,3.571-5.052c-0.432-0.252-0.871-0.492-1.318-0.716
	c-1.655-0.829,0.466-2.57,1.669-1.968C345.3,253.226,345.813,253.507,346.315,253.798z M316.269,303.814
	c0.315,0.045,0.623,0.089,0.917,0.13c6.857,0.969,13.755,1.422,20.665,1.633c-0.074-0.167,0.051-0.391,0.528-0.679
	c6.06-3.653,7.145-10.964,5.084-17.466c-0.275-0.12-0.428-0.342-0.329-0.691c0.014-0.05,0.034-0.096,0.048-0.145
	c-1.853-5.114-5.651-9.593-10.484-11.178c-0.498-0.163-0.995-0.279-1.49-0.372c1.034,2.256,1.767,4.648,2.17,7.174
	c0.142,0.889-2.774,1.547-2.897,0.776c-0.458-2.866-1.341-5.554-2.608-8.071c-11.464,1.292-20.376,19.583-10.593,27.799
	C317.676,303.058,317.042,303.546,316.269,303.814z M340.167,305.639c3.882,0.089,7.768,0.116,11.651,0.114
	c0.186,0,0.327,0.02,0.446,0.047c1.844-5.418,3.626-10.882,4.702-16.44c1.576-8.144,1.485-16.946,1.181-25.196
	c-0.163-4.424-2.039-8.466-4.718-12.02c-2.042,0.188-3.888,1.243-5.487,2.722c0.451,0.337,0.893,0.693,1.313,1.102
	c0.537,0.522-0.245,1.294-0.681,1.505c-0.664,0.32-1.434,0.298-1.97-0.223c-0.153-0.149-0.32-0.28-0.483-0.417
	c-1.272,1.591-2.326,3.37-3.117,4.994c5.301,3.182,8.819,8.694,9.601,15.503c1.334-0.48,2.729-0.828,4.142-1.034
	c1.979-0.289,1.229,1.737-0.301,1.96c-4.625,0.673-8.905,3.414-10.321,8.019C348.552,293.293,347.261,301.349,340.167,305.639z
	 M351.968,314.619c1.594,1.117,3.34,2.007,5.18,2.721c0.779-0.238,1.736-0.086,1.887,0.661c3.925,1.259,8.134,1.887,12.034,2.446
	c8.349,1.196,15.439,1.902,22.903-2.771c0.041-0.026,0.096-0.05,0.158-0.074c-1.032-2.99,0.423-8.336,0.588-11.38
	c0.117-2.159,0.223-4.323,0.309-6.488c-0.252,0.215-0.58,0.384-0.956,0.443c-12.284,1.938-25.052,2.132-37.354,0.151
	c-1.515,4.759-3.199,9.474-4.693,14.188C352.013,314.552,351.991,314.586,351.968,314.619z M315.421,198.89
	c-9.963,20.547-7.926,45.821,2.78,65.715c3.553-3.71,8.627-5.88,14.257-5.746c0-1.161,0-2.323,0-3.484
	c0-1.362,2.942-1.765,2.942-0.197c0,1.314,0,2.629,0,3.943c0.552,0.084,1.099,0.179,1.631,0.301
	c-0.617-8.765-4.107-16.417-7.592-24.45c-3.33-1.232-6.781-2.026-10.286-2.114c-1.422-0.036,1.287-1.177,1.885-1.162
	c3.027,0.076,6.059,0.651,9.018,1.57c0.756-0.299,1.785-0.215,2.113,0.542c0.029,0.067,0.058,0.133,0.087,0.2
	c4.734,1.76,9.225,4.353,13.137,7.186c6.579,4.764,15.289,12.331,15.616,21.224c0.308,8.361,0.563,17.382-1.037,25.65
	c-0.667,3.449-1.586,6.855-2.618,10.236c12.208,2.015,24.812,1.836,37.016-0.089c0.299-0.047,0.528-0.036,0.708,0.01
	c0.219-6.253,0.25-12.52-0.151-18.757c-1.212-18.877-6.922-37.59-17.732-53.247c-5.455-7.9-12.007-15.77-20.049-21.17
	c-8.646-5.806-17.764-6.578-27.914-6.489C324.948,198.597,320.126,199.039,315.421,198.89z M287.26,192.649
	c0.385,0.692,0.786,1.369,1.198,2.032c0.066-0.221,0.145-0.439,0.206-0.662c0.208-0.763,3.051-1.171,2.864-0.488
	c-2.855,10.452-11.632,19.397-20.745,24.963c-0.123,0.199-0.236,0.397-0.345,0.596c-0.012,0.022-0.026,0.043-0.038,0.065
	c-5.56,10.213,5.761,19.27,9.269,28.652c0.182,0.485-0.263,0.917-0.857,1.153c1.497-0.072,2.974-0.171,4.406-0.271
	c4.93-0.344,9.832-0.915,14.725-1.576c-6.815-16.006-1.785-35.649,2.543-51.635c0.059-0.216,0.27-0.404,0.551-0.555
	c-3.943-2.289-7.717-4.425-12.498-2.67C288.114,192.41,287.688,192.552,287.26,192.649z M253.329,133.081
	c9.088,4.492,17.883,9.162,27.375,12.817c4.5,1.733,9.25,3.226,13.996,4.779c0.42-0.233,1.02-0.446,1.512-0.509
	c0.005-0.015,0.006-0.027,0.012-0.043c0.159-0.375,0.294-0.758,0.406-1.149c0.262-0.973,0.452-1.959,0.608-2.952
	c-2.083-4.216-9.059-7.097-12.769-9.279c-12.451-7.322-25.592-14.154-40.395-13.457c-0.953,1.382-1.808,2.939-2.548,4.721
	C245.77,129.485,249.823,131.348,253.329,133.081z M245.065,121.97c1.454-0.078,2.897-0.106,4.323-0.052
	c0.908,0.034,1.81,0.096,2.707,0.18c12.077,1.129,23.193,6.616,33.714,12.802c3.11,1.829,8.175,4.003,11.553,6.949
	c0.096,0.083,0.191,0.167,0.284,0.251c0.004-0.062,0.01-0.123,0.014-0.185c0.139-2.32,0.15-4.655-0.066-6.966
	c-0.621-6.645-2.982-10.029-8.364-13.943c-3.737-2.718-7.88-5.511-12.362-6.826c-4.137-1.214-8.433-0.703-12.683-0.399
	C256.059,114.361,249.569,116.422,245.065,121.97z M230.803,167.953c-0.022-4.17,0.247-8.344,0.307-12.227
	c-0.347,0.005-0.696,0.013-1.039,0.016c-0.338,0.002-0.559-0.056-0.698-0.149c-0.51-0.026-0.87-0.226-0.73-0.652
	c9.431-28.827,45.297-1.89,63.665,2.553c0.494-0.078,0.954-0.027,1.139,0.231c0.005,0.006,0.009,0.013,0.013,0.02
	c0.214,0.042,0.428,0.083,0.636,0.118c0.847,0.141,0.646,0.605,0.113,1.011c4.391,7.123,1.774,13.491-1.91,19.802
	c6.332,0.791,13.54,0.846,19.073-2.727c2.869-1.853,6.455-5.203,6.026-9.053c-0.893-8.028-13.495-10.446-19.744-12.712
	c-11.039-4.002-21.739-8.207-32.305-12.965c-3.798-1.711-7.581-3.494-11.353-5.368c-0.32-0.159-0.64-0.309-0.959-0.469
	c-11.731-5.877-33.363-16.487-40.983,0.528c-3.04,6.79-0.29,14.475,3.763,20.285C219.197,161.04,224.495,167.122,230.803,167.953z
	 M262.451,202.302c0.005,0.01,0.011,0.021,0.016,0.031c0.79,1.441,1.464,2.972,2.077,4.554c0.156,0.401,0.003,0.753-0.297,1.015
	c1.769,3.068,5.114,5.195,6.062,8.556c0.396-0.049,0.779-0.032,1.053,0.06c6.752-4.726,12.907-11.309,16.055-18.891
	c-0.296-0.018-0.544-0.105-0.667-0.288c-4.071-6.071-7.356-13.426-6.601-20.877c0.093-0.919,1.976-1.132,2.603-0.879
	c10.319,4.17,9.572-7.698,5.107-10.814c-1.104-0.415-2.329-0.547-3.189-0.579c-0.384,0.106-0.776,0.262-1.178,0.503
	c-0.484,0.29-2.055,0.796-2.344-0.028c-1.017-2.892-1.659-4.791-0.499-7.702c0.074-0.186,0.249-0.348,0.474-0.482
	c0.033-0.338,0.06-0.593,0.077-0.757c-6.672-2.897-14.342-6.734-21.691-9.297c-6.3,6.972-16.263,8.814-25.453,9.218
	c-0.022,1.327-0.069,2.705-0.12,4.116c2.868-2.482,7.367-2.919,9.487,0.879c0.741,1.328-2.022,2.405-2.653,1.274
	c-1.438-2.576-3.727-2.407-5.461-0.212c-0.312,0.395-0.907,0.573-1.458,0.564c-0.343,10.689-0.118,22.604,9.905,28.238
	c3.978,2.236,8.728,2.706,12.598,5.09C259.1,197.285,260.983,199.631,262.451,202.302z M254,211.505
	c0.037,0.06,0.054,0.128,0.033,0.214c-1.855,7.559-0.261,15.843,1.899,23.186c1.108,3.766,2.135,10.265,6.23,12.017
	c4.599,1.967,9.899,2.266,15.042,2.104c-0.199-0.091-0.356-0.233-0.434-0.441c-3.659-9.787-15.056-18.941-9.138-29.593
	c-0.002-0.039-0.01-0.072-0.008-0.113c0.13-2.578-1.541-4.33-3.197-6.086c-1.6-1.696-3.016-3.394-3.781-5.627
	c-0.141-0.411,0.036-0.77,0.36-1.033c-0.437-0.983-0.899-1.886-1.395-2.718C256.31,203.53,255.011,207.955,254,211.505z
	 M248.8,266.794c0.122-10.425-0.824-21.113-5.653-30.464c-0.048-0.094,0.01-0.207,0.14-0.323c-4.028-6.584-2.624-17.3,2.743-22.825
	c-17.665,4.776-16.874,33.241-34.448,40.333c-5.617,2.266-9.759-0.681-12.711-5.451c-0.982-1.586-1.88-3.303-2.776-5.051
	c-11.596,6.273-21.679,15.066-33.831,20.353c-1.215,0.529-2.954-0.16-1.086-0.973c12.292-5.349,22.434-14.448,34.275-20.634
	c-2.364-4.614-4.864-9.277-8.968-12.247c-11.596,6.9-25.735,11.83-33.889,23.063c-0.021,0.029-0.052,0.057-0.083,0.085
	c0.041,0.025,0.079,0.054,0.107,0.089c7.311,9.072,13.109,19.196,20.105,28.493c6.015,7.993,13.925,18.309,24.271,20.557
	c21.03,4.569,40.483-18.427,50.163-34.301C247.385,267.126,248.124,266.886,248.8,266.794z M381.856,481.346l-4.506,1.877
	C378.951,482.945,380.462,482.275,381.856,481.346z M385.666,477.903c-1.125,1.161-2.107,2.085-2.733,2.655
	C383.917,479.776,384.832,478.875,385.666,477.903z M341.155,380.016c-0.16-0.023-0.318-0.052-0.477-0.076
	c-8.368-1.248-16.51-3.875-23.509-8.627c-11.632-7.897-16.91-19.333-20.352-31.977c-5.532,3.631-13.067,3.869-19.412,3.024
	c-5.973-0.794-14.154-2.253-18.406-7.021c-5.251-5.89-5.615-16.787-5.675-24.227c-0.074-9.116,0.825-18.339,3.511-27.08
	c0.189-0.615,1.017-0.934,1.729-0.894c0.587-0.292,1.337-0.443,1.786-0.23c7.813,3.708,19.152,6.524,27.63,3.892
	c0.733-0.228,1.223-0.041,1.44,0.284c0.114-0.014,0.225-0.02,0.333-0.019c2.138-4.417,6.468-8.609,11.399-11.233
	c-1.153-1.704-2.168-3.514-3.228-5.295c-0.689-1.159,2.113-2.139,2.675-1.194c1.028,1.729,2.019,3.485,3.131,5.146
	c0.025,0.037,0.048,0.075,0.073,0.112c0.178-0.071,0.355-0.148,0.534-0.215c3.093-1.148,6.276-1.603,9.197-1.084
	c0.582-2.526,1.647-4.813,3.085-6.792c-0.383,0.048-0.698,0.011-0.805-0.182c-11.321-20.33-13.449-46.523-2.902-67.585
	c-3.5-0.298-6.866-1.036-9.816-2.649c-4.279,15.864-8.961,34.94-2.099,50.596c0.168-0.023,0.336-0.045,0.503-0.069
	c1.84-0.263,0.992,0.876-0.129,1.225c-0.313,0.675-2.512,1.29-2.891,0.483c-0.006-0.013-0.011-0.026-0.017-0.039
	c-6.281,0.875-12.592,1.649-18.929,1.917c-6.161,0.26-14.018,0.857-19.719-2.04c-4.469-2.271-5.525-7.995-6.78-12.486
	c-1.821-6.522-3.316-13.562-2.454-20.363c-0.305-0.033-0.493-0.13-0.419-0.304c0.343-0.808,0.625-1.65,0.89-2.505
	c-0.708,0.012-1.392,0.052-2.052,0.124c-6.028,5.453-7.013,18.173-1.708,24.141c0.159,0.179-0.024,0.406-0.356,0.614
	c7.884,17.135,4.675,38.202,2.587,56.247c-2.79,24.111-12.786,46.978-19.068,70.342c-4.951,18.415-9.332,37.144-11.404,56.129
	c-1.239,11.353-1.91,23.056-0.088,34.389c2.307,14.353,9.703,28.309,25.641,29.501c11.271,0.844,22.464-6.447,32.245-11.186
	c1.355-0.656,16.336-8.507,24.034-11.567c0.57-0.227,1.092-0.422,1.574-0.591c-0.031-0.058-0.063-0.116-0.094-0.174
	c-4.363-8.056-8.469-16.251-11.87-24.766c-2.109-5.283-3.938-10.626-5.677-15.992c-0.173,0.138-0.381,0.266-0.672,0.358
	c-4.741,1.502-8.623,5.03-12.372,8.157c-0.788,0.657-3.668,0.507-2.354-0.589c4.37-3.645,8.78-7.43,14.294-9.177
	c0.253-0.08,0.469-0.104,0.664-0.103c-2.114-6.584-4.111-13.2-6.314-19.786c-2.207-6.598-5.099-9.887-11.75-12.035
	c-4.529-1.463-9.068-2.811-12.847-5.812c-1.251-0.994,1.345-2.307,2.258-1.582c7.297,5.795,18.324,4.652,23.156,13.477
	c2.175,3.972,3.032,8.594,4.198,12.922c1.584,5.881,3.717,11.653,5.776,17.383c4.415,12.289,9.649,23.961,15.782,35.483
	c2.397,4.503,4.822,9.488,7.788,14.007c2.306,3.514,4.938,6.747,8.136,9.253c0.335,0.263,0.675,0.495,1.015,0.731
	c15.298,10.653,35.153-4.725,43.858-17.337c0.589-0.854,1.146-1.722,1.687-2.595c1.555-2.508,2.933-5.086,4.223-7.7
	c2.888-5.855,5.362-11.879,8.5-17.657c0.186-5.654-0.043-11.789-1.082-17.747c-0.027-0.158-0.054-0.315-0.083-0.473
	c-1.151-6.334-3.227-12.441-6.704-17.505c-1.966-2.864-4.306-5.781-7.545-7.28c-4.356-2.017-7.425,2.059-9.813,5.211
	c-4.065,5.369-7.416,11.194-8.334,17.84c0.238,4.124,0.406,8.252,0.429,12.387c0.005,0.891-2.895,1.342-2.897,0.776
	c-0.018-3.214-0.139-6.422-0.296-9.629c-0.233-0.111-0.385-0.299-0.374-0.589c0.032-0.832,0.116-1.661,0.225-2.488
	c-0.732-12.513-2.111-24.991-2.213-37.536C341.157,380.063,341.155,380.04,341.155,380.016z M409.259,312.121
	c-2.491,1.639-4.993,3.125-7.918,4.023c-0.242,0.074-1.452,0.377-1.569-0.061c-0.121-0.45,1.085-0.763,1.328-0.837
	c2.973-0.913,5.465-2.882,8.011-4.594c0.046-0.031,0.117-0.062,0.197-0.093c0.119-4.541,0.181-9.083,0.174-13.625
	c-0.002-1.696,0.303-4.207,0.358-6.616c-2.486,4.478-7.479,8.073-11.926,9.674c-0.046,1.172-0.099,2.345-0.159,3.517
	c-0.159,3.098-0.355,6.193-0.555,9.289c-0.072,1.121-0.549,3-0.157,4.09c0.04,0.111,0.038,0.218,0.015,0.322
	c0.179,0.066,0.297,0.178,0.318,0.344c1.449,11.515-1.88,23.638-12.897,29.098c-0.107,0.053-0.24,0.094-0.387,0.125
	c-2.584,3.105-5.734,5.601-9.281,6.806c-0.572,0.194-0.981,0.135-1.235-0.035c-2.534,2.395-5.572,3.854-9.193,3.574
	c-1.439,1.882-3.286,3.48-5.42,3.003c-3.813-0.853-2.709-5.375-2.143-8.293c0.706-3.639,1.982-7.352,2.732-11.071
	c-4.754,4.906-11.833,11.014-14.793,5.761c-6.14-10.896,11.043-17.292,11.365-27.444c-2.658-0.915-5.167-2.125-7.387-3.786
	c-0.225-0.168,0.09-0.463,0.581-0.714c0.796-2.49,1.65-4.985,2.506-7.488c-0.359,0.218-0.774,0.376-1.116,0.376
	c-12.791,0.007-25.724-0.126-38.354-2.377c-6.194-1.104-16.092-3.061-21.231-8.228c0.302,1.754,0.613,3.506,0.936,5.256
	c0.645,3.496,1.318,6.987,2.001,10.476c0.23-0.01,0.421,0.024,0.528,0.123c6.719,6.198,16.635,7.533,25.272,9.234
	c4.563,0.899,9.252,1.132,13.895,1.174c2.888,0.026,7.471,0.569,9.975-0.213c1.07-0.334,2.961-0.047,0.979,0.572
	c-2.47,0.772-5.255,0.696-7.814,0.741c-5.324,0.093-10.733,0.072-16.021-0.641c-8.405-1.133-18.774-2.691-26.152-7.653
	c0.69,3.454,1.391,6.905,2.124,10.35c3.083,14.48,6.075,29.594,17.715,39.901c4.189,3.709,8.933,6.54,13.993,8.638
	c0.618-0.187,1.254-0.244,1.49,0.07c0.939,1.247,5.379,1.731,6.817,2.052c5.188,1.157,10.484,1.898,15.797,2.128
	c14.4,0.624,29.9-2.074,40.646-12.456c12.395-11.975,14.741-28.023,15.563-44.404C409.036,318.848,409.16,315.485,409.259,312.121z
	 M174.874,347.313c2.789,12.887-18.451,11.678-26.163,9.259c-0.126,0.033-0.252,0.065-0.378,0.097
	c0.883,1.145,1.602,2.385,2.013,3.749c11.863-0.569,14.263,18.387,2.157,21.531c-6.729,1.748-15.22-1.025-15.77-9.021
	c-0.467-6.812,4.057-11.482,10.25-12.949c-0.414-0.907-0.957-1.755-1.588-2.556c-0.794,0.203-1.588,0.408-2.382,0.611
	c-3.546,0.907-7.096,1.806-10.627,2.771c-1.266,0.346-2.537,0.686-3.79,1.078c-0.714,0.224-1.35,0.807-0.848,0.128
	c-0.196,0.265-0.505,0.435-0.843,0.522c-0.408,2.019-0.777,4.046-1.129,6.069c-1.949,11.183-3.324,22.458-4.528,33.743
	c-0.432,4.046-0.458,8.479-1.044,12.664c0.781-1.053,1.555-2.124,2.332-3.198c-1.776-9.759,8.288-31.024,19.624-23.662
	c13.573,8.814-6.657,22.625-16.773,25.12c-0.477,0.29-1.215,0.487-1.764,0.446c-1.181,1.63-2.372,3.228-3.621,4.728
	c-0.158,9.312-0.29,18.625-0.393,27.938c0.405-0.78,0.848-1.541,1.382-2.251c3.366-4.481,8.062-7.413,12.537-10.604
	c-0.238-5.576,3.674-12.195,6.826-16.247c2.739-3.522,7.657-8.724,12.743-6.727c6.955,2.731,4.314,10.633,0.89,15.051
	c-3.594,4.637-9.727,9.184-15.862,8.959c-1.965-0.072-0.122-1.852,1.083-1.808c5.081,0.187,10.616-4.818,13.182-8.829
	c1.308-2.045,2.793-4.762,2.208-7.303c-0.447-1.942-2.013-4.67-4.367-4.628c-4.521,0.081-8.386,6.778-10.208,10.208
	c-1.385,2.608-3.105,5.893-3.499,9.084c1.905-1.51,3.701-3.149,5.243-5.083c0.693-0.869,3.474-0.757,2.365,0.632
	c-2.112,2.648-4.823,4.707-7.646,6.646c0.017,0.168,0.032,0.336,0.059,0.502c0.161,0.979-1.789,1.628-2.58,1.199
	c-0.778,0.522-1.551,1.049-2.315,1.583c0.486-0.143,0.967-0.198,1.239-0.047c1.285,0.711,2.583,1.326,3.898,1.858
	c0.406-0.058,0.779-0.025,0.986,0.138c0.127-0.039,0.258-0.069,0.394-0.083c6.6-0.684,13.719-2.853,20.308-0.95
	c3.191,0.921,6.16,2.884,7.23,6.204c0.752,2.335,1.813,6.658-0.006,8.87c-3.408,4.142-9.95,1.891-13.919-0.048
	c-5.915-2.889-12.784-7.007-16.497-12.632c-1.709-0.63-3.388-1.39-5.036-2.297c-2.513,1.861-4.819,3.91-6.528,6.524
	c-5.769,8.823-2.839,21.341-3.584,31.32c-0.058,0.773-1.496,1.258-2.331,1.033c-0.669,0.067-1.293-0.12-1.292-0.714
	c0.002-6.317,0.039-12.633,0.087-18.949c-0.04-0.028-0.072-0.061-0.083-0.103c-1.595-5.874-1.398-12.703-2.06-18.728
	c-1.246-11.352-2.598-22.728-4.719-33.956c-0.282-1.491-0.551-2.979-0.834-4.455c-0.335-0.035-0.637-0.165-0.829-0.423
	c-0.353-0.477-4.68-1.322-5.864-1.639c-3.278-0.877-6.563-1.722-9.851-2.562c-2.991-0.764-5.986-1.516-8.972-2.302
	c-0.667-0.175-1.67-0.296-2.526-0.559c0.66,1.406,1.105,2.867,1.186,4.395c12.393,1.533,9.083,21.52-3.423,21.756
	c-7.166,0.136-14.234-5.191-12.44-13.027c1.426-6.229,6.735-9.568,12.706-9.795c-0.432-1.792-1.311-3.493-2.349-5.093
	c-0.267-0.411,2.41-1.528,2.897-0.776c0.107,0.166,0.205,0.334,0.308,0.502c0.215-0.202,0.489-0.357,0.775-0.413
	c0.017-0.003,0.033-0.007,0.049-0.01c0.569-0.111,1.016,0.018,1.304,0.255c0.011-0.024,0.022-0.049,0.033-0.074
	c0.602,0.518,3.972,1.063,5.229,1.386c3.536,0.909,7.076,1.803,10.611,2.716c3.21,0.829,6.431,1.639,9.613,2.573
	c0.267,0.078,0.603,0.154,0.959,0.24c-1.346-6.191-3.316-12.014-8.175-16.601c-5.652-5.336-12.104-10.479-19.084-14.473
	c-9.139,2.78-30.462-1.095-24.614-13.928c5.799-12.725,22.707,3.063,25.133,10.702c0.075,0.234-0.258,0.493-0.72,0.694
	c4.127,2.108,8.093,4.638,11.831,7.413c-3.477-9.199-2.9-21.988,9.771-20.537c16.931,1.939,8.221,20.633,4.092,30.441
	c-0.168,0.4-0.909,0.679-1.6,0.784c1.52,1.611,2.846,3.368,3.587,5.502c1.614,4.648,2.727,9.465,3.665,14.29
	c2.045,10.524,3.453,21.168,4.66,31.82c0.063-4.378,0.139-8.756,0.212-13.134c-0.345-0.006-0.578-0.075-0.538-0.221
	c0.224-0.825,0.414-1.669,0.583-2.524c0.532-30.99,1.236-61.979,1.453-92.973c-8.996-8.718-11.965-28.889,5.326-28.646
	c16.178,0.228,4.742,21.744-1.161,27.912c-0.278,0.29-0.75,0.445-1.226,0.479c-0.012,0.016-0.022,0.033-0.035,0.048
	c-0.141,20.006-0.481,40.009-0.856,60.013c1.005-7.496,2.193-14.968,3.768-22.362c2.449-11.5,7.945-24.305,16.505-33.502
	c-0.35-0.063-0.687-0.131-0.992-0.211c-0.92-0.242,1.617-1.36,2.349-1.189c4.5-4.465,9.783-7.942,15.863-9.778
	c1.669-0.504,1.857,0.263,0.204,0.762c-5.34,1.612-9.98,5.083-13.962,9.355c7.37,0.66,22.554-2.271,20.967-10.687
	c-0.458-2.427-1.904-5.263-4.146-6.49c-3.804-2.082-7.724,0.709-10.469,3.335c-3.712,3.551-7.153,7.863-8.682,12.84
	c-0.241,0.786-3.081,1.172-2.867,0.477c2.219-7.225,8.447-14.294,15.248-17.519c5.418-2.569,12.421-0.809,13.678,5.854
	c1.942,10.296-15.544,14.142-24.935,13.516c-4.214,4.852-7.633,10.549-10.291,15.729c-2.57,5.01-4.18,10.381-5.401,15.854
	c0.607-0.173,1.212-0.301,1.664-0.43c3.188-0.915,6.4-1.747,9.613-2.573c1.688-0.435,3.377-0.866,5.066-1.297
	c-0.12-0.12-0.235-0.243-0.358-0.36c-0.498-0.477,2.153-1.556,2.726-1.007c0.206,0.197,0.404,0.403,0.604,0.607
	c0.16-0.041,0.319-0.082,0.479-0.123c-0.025-0.023-0.038-0.048-0.021-0.079C150.396,349.067,172.154,334.75,174.874,347.313z
	 M79.961,365.217c-4-2.201-8.164-4.022-12.45-5.27c-0.746-0.217,1.776-1.236,2.399-1.055c2.754,0.801,5.468,1.838,8.126,3.049
	c-3.503-6.459-17.602-20.214-19.317-8.48C57.316,363.068,72.346,367.869,79.961,365.217z M103.014,357.167
	c0,7.139,0,14.277,0,21.415c0,0.243-0.104,0.456-0.273,0.632c0.411,0.388,0.82,0.779,1.224,1.176
	c2.96-6.781,10.492-21.221,2.908-26.713c-3.158-2.288-9.977-3.826-12.086,0.559c-1.126,2.34-1.446,4.921-1.189,7.503
	c0.458,4.591,1.835,9.135,4.401,12.999c0.041,0.061,0.036,0.13,0.002,0.203c0.703,0.599,1.397,1.203,2.079,1.814
	c0-6.454,0-12.908,0-19.362C100.079,356.101,103.014,355.652,103.014,357.167z M81.972,398.385c-0.044,0.332-0.088,0.664-0.17,1.002
	c-0.182,0.753-3.033,1.191-2.863,0.49c0.159-0.657,0.214-1.3,0.222-1.936c-0.996-0.042-0.66-0.518-0.028-0.901
	c-0.002-0.021-0.005-0.041-0.007-0.061c-0.053,0.005-0.103,0.008-0.146,0.005c-6.471-0.468-11.462,5.905-9.887,12.191
	c1.265,5.046,7.921,10.269,13.213,7.163C88.549,412.672,88.89,400.797,81.972,398.385z M140.379,439.792
	c2.495,0.677,5.074,1.045,7.782,1.088c1.467,0.023-1.199,1.272-1.858,1.262c-2.195-0.034-4.32-0.277-6.389-0.714
	c2.742,3.03,6.376,5.525,9.729,7.522c2.84,1.692,14.51,8.53,14.041,0.977C162.83,436.176,150.482,438.484,140.379,439.792z
	 M125.23,408.157c2.76-3.626,5.742-7.04,9.466-9.535c0.532-0.356,3.447-0.697,2.229,0.12c-4.667,3.126-8.13,7.776-11.479,12.439
	c0.05,0.241,0.106,0.479,0.174,0.715c7.914-2.172,25.336-13.964,15.587-21.436c-6.771-5.189-11.522,2.73-13.7,8.551
	C126.498,401.713,125.374,405.004,125.23,408.157z M118.597,319.672c0.022-4.065,0.055-8.129,0.057-12.194
	c0-1.02,2.906-1.616,2.905-0.334c-0.002,4.688-0.037,9.375-0.065,14.063c4.44-5.834,13.704-22.597,3.407-23.531
	C110.617,296.378,112.894,311.145,118.597,319.672z M150.631,361.684c0.07,0.467,0.112,0.945,0.105,1.441
	c-0.013,0.88-2.905,1.297-2.897,0.776c0.01-0.683-0.078-1.329-0.21-1.957c-0.618-0.059-0.81-0.42-0.463-0.762
	c-5.407,1.254-8.777,6.964-7.29,12.424c1.474,5.409,8.089,10.006,13.604,6.622C160.008,376.219,158.573,362.11,150.631,361.684z
	 M172.195,349.101c-2.469-11.407-18.332-1.35-22.016,4.91c0.979-0.252,1.958-0.502,2.933-0.77c0.437-0.12,1.708-0.772,1.053-0.208
	c0.001,0.004,0.002,0.009,0.004,0.014c0.367-0.315,0.887-0.517,1.41-0.416c0.017,0.003,0.033,0.007,0.049,0.01
	c1.015,0.198,1.261,1.087,0.473,1.766c-0.973,0.838-2.938,1.018-4.115,1.325c-0.001,0-0.001,0-0.002,0
	C158.732,357.541,174.306,358.855,172.195,349.101z M490.37,376.843c-4.2,4.437-6.083,10.673-7.311,16.936
	c0.861-0.281,1.793-0.454,2.404-0.628c1.045-0.298,2.095-0.578,3.144-0.862c-0.005-0.124-0.016-0.246-0.02-0.37
	c-0.022-0.676,2.354-1.14,2.819-0.863c0.177,0.105,0.357,0.228,0.536,0.34c1.066-0.279,2.132-0.559,3.199-0.834
	c2.364-0.609,4.729-1.212,7.093-1.816c-3.236-7.548-0.431-26.544,10.622-25.754c15.123,1.082,2.676,17.43-4.574,24.196
	c0.754-0.195,1.508-0.387,2.26-0.592c0.892-0.243,2.142-1.095,1.159-0.072c0.005,0.012,0.011,0.024,0.017,0.036
	c0.354-0.446,0.999-0.788,1.644-0.676c0.017,0.003,0.035,0.006,0.052,0.009c0.434,0.076,0.836,0.372,0.951,0.741
	c0.04-0.062,0.075-0.125,0.115-0.187c0.472-0.727,3.112-0.875,2.863-0.49c-1.252,1.931-2.283,3.97-2.644,6.141
	c7.472-0.427,14.759,4.909,13.899,13.066c-0.758,7.198-7.926,11.781-14.916,11.155c-4.744-0.425-7.848-3.235-9.317-6.761
	c0.007,0.246,0.028,0.493,0.02,0.738c-0.192,5.798-4.704,9.82-10.287,10.5c-9.907,1.206-7.805-18.997-5.303-26.082
	c-0.011-0.095-0.017-0.191-0.027-0.286c-1.118,0.302-2.235,0.605-3.345,0.936c-0.5,0.149-2.131,0.917-1.781,0.418
	c-0.233,0.332-0.637,0.519-1.061,0.582c-0.429,2.486-0.791,4.937-1.187,7.24c-1.992,11.597-3.42,23.285-4.67,34.982
	c-0.624,5.83-0.45,12.436-2.008,18.118c-0.059,0.215-0.383,0.396-0.792,0.529c0.386,6.665-0.416,13.659,0.056,19.903
	c0.093,1.231-2.814,1.881-2.897,0.776c-0.797-10.561,2.864-25.483-4.437-34.284c-2.17-2.616-4.775-4.718-7.495-6.687
	c-1.483,0.795-2.992,1.49-4.527,2.087c-3.972,5.931-11.337,10.532-17.624,13.51c-3.238,1.533-13.017,5.81-15.003,0.137
	c-2.422-6.916,2.52-14.279,9.331-15.751c7.266-1.57,14.323,0.303,21.555,1.047c0.242,0.025,0.379,0.081,0.45,0.153
	c0.275-0.062,0.558-0.096,0.811-0.094c1.294-0.528,2.572-1.138,3.841-1.84c0.021-0.011,0.047-0.021,0.07-0.032
	c-0.934-0.659-1.873-1.312-2.811-1.965c-0.847,0.223-1.793,0.081-1.672-0.651c0.026-0.161,0.039-0.326,0.057-0.49
	c-0.358-0.255-0.712-0.514-1.066-0.775c0.083,0.514-0.583,1.206-1.514,1.24c-6.771,0.249-13.744-5.115-17.248-10.594
	c-2.897-4.529-4.406-12.05,2.039-14.581c5.894-2.314,10.913,2.577,14.056,7.109c3.031,4.37,6.927,10.685,6.716,16.389
	c5.351,3.66,11.025,7.019,14.123,12.654c1.103,2.005,1.836,4.146,2.338,6.367c0.702-5.591,0.734-11.489,1.342-16.842
	c0.249-2.194,0.504-4.39,0.765-6.585c-0.584,0.16-1.168,0.195-1.36-0.04c-3.896-4.773-6.59-10.604-9.658-15.916
	c-0.146-0.254-0.294-0.515-0.442-0.777c-10.655-3.096-30.848-18.203-15.654-26.359c4.24-2.276,7.978-1.563,11.075,0.827
	c-0.194-0.631-0.359-1.17-0.443-1.495c-0.934-3.598-1.903-7.187-2.877-10.773c-0.281-1.034-0.563-2.067-0.845-3.1
	c-0.668-0.146-1.346-0.256-2.021-0.3c6.204,17.121-22.417,24.826-24.801,7.046c-1.622-12.103,18.625-19.746,23.378-8.059
	c1.004-0.156,2.021-0.203,3.044-0.155c-0.145-0.533-0.286-1.067-0.429-1.601c-0.238,0.012-0.437-0.021-0.552-0.122
	c-7.7-6.758-18.321-25.778-1.6-27.887c11.682-1.473,9.809,20.998,6.093,27.05c-0.143,0.232-0.52,0.399-0.955,0.511
	c0.225,0.83,0.45,1.66,0.675,2.489c0.575,0.126,1.151,0.273,1.727,0.445c0.617,0.184-0.402,0.757-1.326,1.033
	c0.507,1.865,1.014,3.729,1.517,5.596c0.951,3.533,1.922,7.064,2.765,10.625c0.189,0.802,0.728,2.177,0.708,3.242
	c0.012,0.017,0.023,0.033,0.035,0.05c3.297,5.075,6.812,13.824,4.813,20.059c0.664,0.185,0.003,0.708-0.773,1.055
	c-0.03,0.014-0.062,0.027-0.092,0.04c-0.005,0.002-0.009,0.004-0.013,0.006c2.631,4.705,5.087,9.734,8.303,14.065
	c1.164-9.544,2.525-19.08,4.523-28.475c1.028-4.835,1.962-10.087,4.05-14.606c1.203-2.603,3.524-4.917,5.816-6.954
	c-0.313-0.145-0.532-0.407-0.532-0.816c0-7.61,0-15.221,0-22.831c0-1.292,2.935-1.74,2.935-0.226c0,7.262,0,14.524,0,21.786
	c0.033-0.028,0.068-0.059,0.101-0.087c0.806-0.697,1.625-1.388,2.452-2.073c-0.129-0.093-0.161-0.234-0.022-0.443
	c3.052-4.583,5.077-10.945,4.616-16.479c-0.191-2.297-0.639-5.059-2.419-6.723c-2.933-2.742-8.648-2.968-11.835-0.405
	c-8.256,6.638,0.174,21.867,3.285,29.263c0.298,0.708-2.54,1.627-2.897,0.776c-4.221-10.034-13.33-28.619,2.735-32.59
	c6.042-1.493,12.856,0.068,13.834,7.123c0.745,5.376-0.472,11.131-2.959,16.026c8.028-6.123,16.913-11.362,26.55-14.158
	c1.672-0.485,1.866,0.279,0.204,0.762c-4.207,1.22-8.404,3.009-12.478,5.196c0.013,0.004,0.028,0.006,0.04,0.012
	c8.105,3.638,27.742-1.382,22.473-13.383c-4.77-10.864-18.929,5.154-20.884,11.352c-0.238,0.754-3.057,1.117-2.861,0.497
	c2.013-6.381,8.477-12.763,14.563-15.379c4.752-2.043,10.893-2.582,12.405,3.741c3.194,13.353-18.399,18.148-27.919,14.375
	c-4.854,2.806-9.488,6.157-13.702,9.768c-0.03,0.046-0.059,0.095-0.089,0.141c-0.081,0.121-0.244,0.232-0.451,0.329
	C494.643,372.558,492.414,374.684,490.37,376.843z M452.799,361.935c-0.263-0.841-0.483-1.746-0.272-2.454
	c0.299-1,2.1-1.211,2.714-0.465c0.011,0.013,0.022,0.027,0.033,0.04c0.17,0.206,0.219,0.412,0.189,0.606
	c0.156,0.167,0.269,1.347,0.375,1.76c0.198,0.764,0.403,1.526,0.606,2.289c2.491-6.787,3.038-19.138-2.574-22.861
	c-3.622-2.404-8.093,0.67-8.186,4.762c-0.061,2.669,0.621,5.264,1.755,7.676C448.866,356.32,450.65,359.294,452.799,361.935z
	 M450.201,370.709c-0.566,0.081-1.077,0.009-1.173-0.32c-0.008-0.029-0.02-0.054-0.029-0.083c-0.605,0.346-1.326,0.584-2.032,0.541
	c-0.529-0.033-0.687-0.396-0.184-0.687c0.609-0.351,1.228-0.63,1.852-0.876c-4.057-9.746-19.697-3.735-17.583,6.488
	c1.189,5.749,7.049,12.014,13.443,9.185C450.226,382.422,452.021,376.304,450.201,370.709z M462.286,408.123
	c-2.505-4.534-5.329-9.475-9.382-12.287c-0.45-0.312,2.042-1.475,2.727-1c4.317,2.994,7.244,8.452,9.853,13.107
	c0.139-4.655-1.968-11.683-5.089-16.882c-0.11-0.093-0.185-0.21-0.214-0.352c-3.67-5.928-8.662-9.27-13.055-3.471
	C441.137,395.144,453.321,404.37,462.286,408.123z M453.438,429.568c-0.658-3.401-2.488-6.899-4.042-9.53
	c-2.156-3.648-5.535-9.245-9.999-10.354c-3.604-0.896-5.85,3.268-5.27,6.401c0.5,2.709,1.779,5.171,3.554,7.277
	c3.172,3.762,8.393,8.565,13.716,8.37c0.182-0.007,0.332,0.007,0.468,0.028c-2.389-1.805-4.647-3.765-6.546-6.149
	c-0.809-1.017,1.974-2.074,2.676-1.192C449.547,426.37,451.422,428.032,453.438,429.568z M450.922,440.277
	c-3.042,0.841-6.188,1.3-9.447,1.352c-1.931,0.031,0.398-1.249,1.229-1.262c2.618-0.041,5.099-0.392,7.502-1.022
	c-5.355-0.649-10.815-2.111-16.219-1.469c-3.828,0.454-7.461,2.082-8.678,6.071c-0.689,2.258-1.568,5.706-0.415,7.955
	C428.689,459.296,445.625,446.151,450.922,440.277z M499.872,404.717c-1.944-3.959-4.703-7.688-8.145-10.528
	c0.786,6.38,3.254,12.375,5.845,18.262c0.182,0.414-2.623,1.402-2.897,0.776c-1.78-4.045-3.5-8.143-4.66-12.38
	c-0.206,1.863-0.27,3.731-0.247,5.501c0.047,3.633,0.085,9.598,3.147,12.235c3.109,2.678,7.375-1.362,8.179-4.593
	C501.879,410.843,501.292,407.607,499.872,404.717z M515.222,393.501c-0.077,0.175-0.325,0.382-0.639,0.564
	c0.022,0.623,0.083,1.252,0.239,1.897c0.175,0.723-2.73,1.468-2.897,0.776c-0.17-0.702-0.233-1.39-0.25-2.07
	c-8.816,1.742-6.438,17.994,1.851,19.978c7.248,1.735,13.624-4.862,11.989-12.005C524.306,397.359,520.394,393.882,515.222,393.501z
	 M504.317,384.279c1.321-4.196,3.219-8.192,4.826-12.321c0.333-0.854,3.179-1.199,2.88-0.43c-1.946,5.001-4.33,9.804-5.582,15.01
	c6.256-5.739,16.417-17.795,7.445-21.442C505.865,361.835,503.453,376.236,504.317,384.279z M494.193,392.994
	c3.77,2.96,7.473,7.311,9.194,11.877c-0.122-5.091,2.648-10.205,8.332-11.456c0.197-1.967,0.934-3.839,1.94-5.614
	c-1.031,0.668-2.608,0.855-3.681,1.137c-3.204,0.841-6.416,1.652-9.625,2.473C498.3,391.935,496.246,392.461,494.193,392.994z
	 M283.914,227.009c-0.603,2.352-3.12,3.725-5.428,3.77c-2.057,0.041-6.236-1.578-4.798-4.348c1.002-1.93,3.065-2.958,5.201-3.328
	c0.375-0.118,0.771-0.165,1.149-0.137c0.539-0.034,1.075-0.042,1.585,0.001c0.422,0.036,0.567,0.291,0.483,0.559
	C283.412,224.167,284.345,225.328,283.914,227.009z M281.095,226.75c-0.125-1.365-1.099-2.021-2.309-2.255
	c-1.193,0.239-2.384,1.024-2.43,2.309c-0.049,1.351,2.088,2.845,3.358,2.453C280.58,228.989,281.171,227.583,281.095,226.75z" fill="#0984E3"></path>
</svg>