<svg width="400" height="478" viewBox="0 0 474 552" fill="none" xmlns="http://www.w3.org/2000/svg">
<path fill-rule="evenodd" clip-rule="evenodd" d="M102.345 336.289C103.656 333.183 101.741 330.085 100.68 327.08C96.9071 316.659 92.7884 306.237 86.9611 296.519C84.7538 293.268 88.3851 289.28 92.5931 290.197C99.797 291.067 107.225 290.374 114.442 289.99C117.081 284.098 124.125 281.653 129.668 278.26C135.959 274.872 142.079 270.98 148.621 268.009C148.985 265.202 152.929 264.507 155.341 266.515C161.964 262.959 169.908 263.619 177.008 261.289C182.403 253.764 182.808 245.85 184.237 238.59C184.859 235.425 184.198 232.371 186.704 229.55C195.122 219.332 228.384 214.902 240.647 220.957C247.249 217.404 247.407 223.839 248.456 227.81C249.621 229.797 250.252 232.047 250.057 234.418C257.148 247.199 273.37 252.977 287.899 257.658C289.721 256.144 292.326 256.335 294.06 257.588C306.653 259.95 318.875 264.103 329.425 270.587C341.412 273.613 349.854 282.026 355.958 291.047C356.631 291.998 356.79 292.968 356.593 293.858C375.365 317.604 384.324 346.032 385.583 374.744C397.654 380.996 379.845 437.16 375.699 448.82C375.695 448.819 375.691 448.817 375.687 448.816C372.997 452.925 369.943 464.65 363.212 463.743C358.595 468.249 351.236 467.363 344.97 467.709C345.991 471.087 345.49 474.953 344.275 478.291C342.838 482.265 335.788 482.399 334.789 478.067C272.391 488.529 208.368 480.181 145.269 481.752C127.025 481.863 108.783 482.35 90.5824 483.472C88.0196 483.63 85.4214 481.37 85.5958 479.168C89.5088 443.242 93.1836 395.982 97.5593 360.408C98.597 352.295 99.4178 344.093 102.345 336.289Z" fill="white"/>
<path fill-rule="evenodd" clip-rule="evenodd" d="M247.427 223.175C247.248 222.754 246.519 222.81 246.505 223.283C246.218 233.384 249.132 245.728 258.498 252.551C263.306 256.053 269.663 257.656 275.501 259.498L276.159 259.708L286.473 263.023C289.208 263.903 292.159 265.256 294.575 264.013C292.62 268.197 290.979 272.497 288.597 276.529C285.633 281.549 282.05 286.142 277.663 290.319C260.286 306.868 232.785 311.916 208.106 307.067C195.398 304.57 183.032 299.838 174.362 291.207C167.772 284.646 163.987 275.841 163.094 267.155C163.355 267.191 163.629 267.19 163.909 267.137C167.032 266.549 170.184 265.104 172.932 263.688L173.197 263.551C175.84 262.178 178.596 260.604 180.493 258.47C181.749 257.057 183.036 254.047 184.355 249.438C184.894 246.84 185.399 241.665 185.312 239.039C185.304 238.791 184.031 238.645 183.894 238.903C182.717 241.132 182.337 246.03 181.428 248.35L181.245 248.814C180.275 251.237 179.443 254.187 177.431 256.146C173.655 259.824 167.957 261.381 162.871 263.225C162.506 259.068 154.812 259.165 154.909 263.501C154.915 263.736 154.927 263.97 154.936 264.204C154.33 264.492 153.746 264.822 153.2 265.139L152.668 265.451C150.654 266.634 148.624 267.757 146.479 268.761C142.326 270.703 137.929 272.243 133.674 274.007C129.369 275.791 125.343 277.916 121.584 280.46C119.818 281.655 118.126 282.927 116.52 284.279L116.084 284.65C114.556 285.963 112.567 287.432 111.696 289.158C111.504 289.539 110.543 290.424 110.021 290.454C101.936 290.911 93.8689 291.557 85.835 292.525C83.755 292.776 82.9328 293.701 83.7017 295.197C86.3437 300.338 96.6869 320.87 99.4374 326.381C99.1162 330.429 99.5501 335.194 99.2605 339.243C98.837 345.152 98.2825 351.059 97.6178 356.951C95.2395 378.029 91.634 399.004 88.3761 419.99C86.7454 430.493 85.2588 441.011 83.7913 451.532C83.0502 456.848 82.4214 462.17 81.9374 467.509C81.7358 469.734 81.5529 471.96 81.3917 474.188L81.2527 476.163C81.0614 478.649 80.6199 481.023 82.4027 483.157C83.2109 484.125 85.0568 484.67 86.1196 483.571C87.4556 482.188 87.9521 481.156 88.0798 479.34C88.1775 477.95 88.2008 476.553 88.2743 475.162C88.4328 472.146 88.6323 469.132 88.8659 466.119C89.332 460.096 89.864 454.074 90.4803 448.062C92.6404 426.978 96.7457 406.053 99.4775 385.022C100.854 374.419 101.832 363.796 102.35 353.134C102.609 347.81 102.703 342.487 102.642 337.158C102.619 335.167 102.51 333.186 102.352 331.209C106.444 339.232 110.747 347.178 115.245 355.018L116.311 356.874C119.161 361.83 122.088 366.804 125.514 371.475L126.103 372.272C127.491 374.169 129.387 377.161 131.918 377.76C133.681 378.177 135.835 377.883 137.643 377.853C139.437 377.824 141.232 377.817 143.025 377.755C145.036 377.685 146.954 377.457 148.897 377.005C149.22 376.93 149.526 376.849 149.804 376.745C151.762 379.509 155.088 381.615 158.489 382.842C161.213 383.825 164.069 384.498 166.929 385.122L167.938 385.34C171.004 386 174.511 386.313 176.24 388.868L176.642 389.46C177.928 391.345 179.161 393 181.289 394.352C183.579 395.807 186.292 396.722 188.995 397.434C191.763 398.163 194.595 398.721 197.405 399.319L198.171 399.483C200.026 399.883 201.898 400.251 203.742 400.687C204.529 400.873 205.33 401.064 206.102 401.294C207.005 401.561 207.662 401.98 208.375 402.435C209.016 404.367 211.755 405.416 214.008 405.282C215.191 405.211 216.252 404.865 217.217 404.357C218.902 405.595 220.758 406.704 222.476 407.851C224.881 409.457 227.296 411.052 229.725 412.632C234.732 415.889 239.777 419.102 244.874 422.253C253.923 427.845 263.166 433.181 272.568 438.319C276.488 440.461 280.435 442.6 284.42 444.688L283.995 444.824L283.151 445.099C281.157 445.742 278.935 446.78 278.549 448.787C278.243 450.379 279.273 451.477 281.095 451.671C283.26 451.902 284.945 450.582 286.293 449.322C286.888 448.766 287.554 448.25 288.124 447.678C288.356 447.444 288.535 447.175 288.692 446.892C292.625 448.892 296.6 450.825 300.638 452.632L301.648 453.081C311.661 457.5 321.407 462.341 331.505 466.634C334.139 467.754 337.351 468.965 340.698 469.792C339.81 472.763 339.824 476.025 339.801 479.041C339.78 481.98 345.192 481.966 345.078 479.041L345.023 477.628C344.924 475.253 344.763 472.788 344.11 470.476C353.973 471.888 363.827 468.82 365.661 467.899C367.686 466.883 369.524 465.257 371.054 463.748C374.327 460.52 376.599 456.649 378.614 452.756C382.931 444.418 385.989 435.505 388.225 426.592C396.469 393.729 392.923 358.556 379.536 327.054C376.191 319.183 372.242 311.486 367.717 304.067L367.155 303.15C362.64 295.813 357.621 288.505 351.246 282.262C344.606 275.759 336.415 270.702 327.496 266.776C323.144 264.861 318.666 263.2 314.088 261.729C313.353 261.492 312.613 261.28 311.871 261.078C307.101 258.454 301.312 255.944 295.521 256.042C295.128 256.048 294.809 256.177 294.571 256.371C294.292 256.413 294.013 256.465 293.733 256.535C293.116 256.689 292.464 257.273 292.553 257.873L292.583 258.072C292.599 258.169 292.62 258.264 292.655 258.355C292.448 258.382 292.245 258.425 292.046 258.483C286.505 257.133 281.054 255.068 275.647 253.402L274.415 253.027C269.887 251.657 265.241 250.315 261.527 247.605C257.831 244.909 255.052 241.416 253.043 237.641C250.568 232.989 249.46 227.95 247.427 223.175ZM136.497 468.504C135.4 467.799 134.102 468.617 133.692 469.489C132.344 472.349 133.01 476.795 134.91 479.324C136.878 481.945 141.59 480.911 141.704 477.736C141.823 474.426 139.593 470.493 136.497 468.504ZM125.165 389.507C125.066 389.135 124.397 389.139 124.297 389.507C123.383 392.864 123.405 396.479 123.137 399.921L123.106 400.303C122.784 404.098 122.513 407.904 122.321 411.706C121.942 419.187 121.49 426.668 120.983 434.143C120.731 437.85 120.462 441.556 120.174 445.261C119.274 444.828 118.346 444.448 117.385 444.112C115.945 443.61 114.542 443.552 112.995 443.566C111.11 443.582 109.691 445.013 109.94 446.606C110.212 448.341 111.983 449.085 113.821 448.837C115.857 448.562 117.902 448.136 119.958 447.96C119.729 450.825 119.493 453.689 119.242 456.551C118.909 460.341 118.476 464.126 118.171 467.917C118.142 468.279 118.111 468.641 118.078 469.004C116.853 468.454 115.551 468.172 114.075 467.826L113.691 467.733C111.549 467.202 109.258 466.468 107.275 467.711C105.942 468.547 105.676 469.922 106.78 471.024C108.454 472.697 110.931 472.372 113.243 472.287L114.487 472.248C115.66 472.208 116.741 472.143 117.825 471.888C117.626 474.358 117.521 476.837 117.872 479.271C118.062 480.586 120.068 480.931 120.6 479.589C121.987 476.082 122.274 472.3 122.781 468.627C123.255 465.197 123.544 461.741 123.854 458.295L123.948 457.262C124.647 449.681 125.206 442.096 125.614 434.499C126.022 426.903 126.267 419.309 126.365 411.706C126.41 408.254 126.343 404.79 126.187 401.338L126.137 400.303C125.957 396.753 126.083 392.986 125.165 389.507ZM308.516 469.063C308.462 468.578 308.012 467.976 307.342 468.051C306.725 468.12 306.089 468.087 305.479 468.175C304.673 468.29 304.025 468.701 303.275 468.959C302.057 469.38 300.73 469.597 299.48 469.941C297.135 470.586 295.858 472.716 296.829 474.705C297.85 476.796 300.415 477.271 302.632 476.393C304.38 475.702 305.682 474.596 306.857 473.317L307.19 472.952C307.696 472.403 308.271 471.789 308.483 471.123C308.69 470.475 308.588 469.723 308.516 469.063ZM194.607 459.233C191.686 458.879 189.192 459.74 186.49 460.552L186.27 460.618C183.52 461.437 179.507 462.004 178.098 464.433C177.248 465.898 177.908 467.843 179.909 468.277C183.079 468.963 185.92 466.964 188.541 465.618L188.679 465.548C191.208 464.269 193.819 463.194 195.434 460.989C195.865 460.4 195.491 459.341 194.607 459.233ZM296.55 258.816C297.719 259.042 298.889 259.242 300.058 259.435C304.504 261.491 308.819 263.625 313.409 265.457C318.28 267.401 323.132 269.409 327.758 271.76C337.104 276.512 344.809 282.689 351.175 290.261C362.172 303.341 370.352 318.425 376.207 333.73C377.711 337.662 379.057 341.639 380.248 345.648C378.143 343.968 375.65 342.935 372.855 342.05C371.67 341.675 370.196 342.31 369.595 343.195C369.325 343.592 369.173 343.986 369.201 344.452C369.263 345.481 370.039 346.65 371.32 346.854C374.306 347.329 377.21 348.254 380.089 349.067C380.526 349.191 380.901 349.144 381.201 348.999C384.059 359.448 385.848 370.112 386.481 380.84C387.017 389.923 386.686 399.077 385.52 408.147C384.625 407.799 383.748 407.474 382.766 407.276C381.492 407.021 380.239 406.709 378.997 406.358C375.411 405.343 373.775 410.452 377.44 411.23C378.804 411.52 380.177 411.761 381.567 411.937C382.778 412.09 383.849 412.022 384.991 411.862C384.119 417.52 382.927 423.138 381.409 428.676L381.074 429.887C379.102 436.96 376.804 444.099 373.481 450.783C371.851 454.062 369.692 457.176 367.027 459.91C365.718 461.254 364.265 462.406 362.68 463.498C361.361 464.407 356.876 466.378 351.564 466.378C346.253 466.378 344.815 465.945 342.135 465.149C336.836 463.575 331.804 461.062 326.834 458.823L326.32 458.593C324.122 457.612 321.933 456.616 319.75 455.612C320.025 453.691 319.543 452.077 318.383 450.303C317.129 448.383 314.022 449.339 313.791 451.302L313.784 451.378C313.749 451.82 313.663 452.271 313.556 452.721C298.956 445.819 284.665 438.434 270.601 430.739C261.542 425.781 252.58 420.676 243.748 415.421C239.333 412.794 234.957 410.12 230.624 407.394C228.354 405.966 226.094 404.526 223.845 403.074C222.908 402.469 221.99 401.834 221.051 401.225C221.279 400.979 221.502 400.733 221.717 400.49C225.223 396.529 227.497 391.808 228.63 386.937C229.315 383.998 229.645 380.947 229.746 377.95L229.79 376.648C229.859 374.452 229.877 372.155 229.408 370.028C230.046 370.33 230.698 370.627 231.348 370.945C233.679 372.084 236.012 373.221 238.349 374.353C243.029 376.618 247.723 378.858 252.476 381.007C260.967 384.845 269.54 388.497 278.346 391.769L282.63 393.363C290.066 396.123 297.563 398.833 305.294 400.885C309.655 402.042 314.048 403.031 318.472 403.913L316.683 405.722C315.47 406.948 315.449 408.707 316.999 409.739C318.522 410.754 320.567 410.331 321.582 408.984L323.433 406.528C323.828 406.003 324.053 405.511 324.18 404.993C326.218 405.36 328.26 405.714 330.309 406.055L334.181 406.693C339.711 407.614 345.072 409.438 350.015 411.772C351.733 412.583 352.212 411.007 350.391 409.909C345.068 406.697 338.859 404.88 332.452 403.355L332.137 403.28C329.787 402.725 327.441 402.146 325.1 401.546C325.357 400.742 325.506 399.908 325.476 398.989C325.41 396.94 325.2 394.884 325.074 392.837C324.81 388.541 324.472 384.258 324.077 379.97C323.925 378.318 323.754 376.661 323.56 375.006C324.815 374.425 325.898 373.654 327.298 373.274L327.534 373.215C329.031 372.867 328.526 371.202 327.196 371.06C325.991 370.931 324.793 370.99 323.605 371.21C323.421 371.245 323.247 371.283 323.081 371.327C322.863 369.793 322.621 368.264 322.346 366.744C321.618 362.726 321.104 358.493 319.59 354.632C319.478 354.346 318.986 354.244 318.804 354.544C316.601 358.159 316.525 362.594 316.277 366.62L316.246 367.101C315.953 371.493 315.937 375.929 316.031 380.327C316.128 384.86 316.308 389.381 316.543 393.909C316.638 395.733 316.634 397.625 316.994 399.369C303.889 395.692 291.016 391.292 278.676 386.081C269.972 382.406 261.343 378.583 252.812 374.617C248.538 372.63 244.243 370.675 239.974 368.68C238.478 367.981 236.983 367.28 235.489 366.578L233.248 365.523C231.15 364.536 229.4 363.553 226.958 363.484C226.229 363.463 225.576 363.757 225.113 364.203C223.8 363.4 222.283 362.906 220.691 362.918C218.294 360.061 215.861 357.227 213.33 354.456L211.461 352.403C208.226 348.863 204.799 345.268 200.673 342.573C198.832 341.371 196.806 340.469 194.694 339.724C195.191 339.619 195.678 339.408 196.111 339.061C198.129 337.447 198.407 334.449 198.816 332.196C199.241 329.86 199.077 327.769 198.657 325.441C198.494 324.536 196.758 324.348 196.334 325.179C195.44 326.931 194.494 328.611 193.681 330.383L193.442 330.917C192.569 332.912 190.711 335.011 190.833 337.175C190.867 337.768 191.097 338.284 191.453 338.7C189.68 338.192 187.881 337.739 186.111 337.267C180.537 335.78 174.943 334.336 169.262 333.183C167.75 332.876 166.23 332.592 164.705 332.33C163.905 329.055 162.74 325.84 161.367 322.683C162.667 322.108 163.509 321.144 164.629 320.287C165.677 319.484 166.397 318.506 167.292 317.585C168.106 316.746 167.648 315.231 166.185 315.28L165.771 315.295C164.255 315.356 162.788 315.491 161.413 316.101L160.924 316.319C160.252 316.62 159.517 316.965 158.863 317.372C158.007 315.673 157.117 313.99 156.218 312.324L155.05 310.169C152.024 304.562 149.007 298.742 145.208 293.521C143.519 291.2 141.271 289.75 138.045 289.526C134.722 289.295 131.268 289.593 127.942 289.696C124.085 289.815 120.23 289.956 116.377 290.131C117.364 289.238 118.266 288.244 119.257 287.388C120.904 285.967 122.643 284.621 124.472 283.376C128.091 280.912 132.07 278.883 136.202 277.135C140.336 275.387 144.591 273.863 148.472 271.703C150.927 270.336 153.122 268.617 155.124 266.756C156.385 278.491 162.951 289.393 172.816 297.584C183.062 306.091 197.221 310.765 211.072 312.753C225.2 314.781 239.946 314.036 253.461 309.799C260.43 307.613 267.113 304.491 273.074 300.576C273.139 300.916 273.218 301.253 273.373 301.569C273.58 301.995 273.835 302.357 274.126 302.731L274.646 303.386C274.973 303.798 275.307 304.207 275.679 304.589C276.58 305.515 277.857 305.921 279.231 305.916C281.864 305.909 283.858 303.681 283.149 301.478C282.704 300.094 281.751 299.261 280.264 298.719C279.794 298.547 279.315 298.404 278.833 298.263L278.472 298.157C277.985 298.013 277.501 297.876 277 297.796C279.823 295.647 282.441 293.309 284.786 290.786C292.141 282.875 299.396 271.795 296.937 261.288C296.894 261.108 296.706 260.994 296.503 260.966C296.36 260.228 295.906 259.515 295.283 259.035C295.702 258.94 296.125 258.867 296.55 258.816ZM220.176 440.474C218.719 439.775 217.215 441.436 218.398 442.462L220.166 443.988C221.806 445.41 223.403 446.848 224.807 448.469L225.147 448.865C227.042 451.09 229.063 453.668 232.168 454.5C235.924 455.506 239.534 451.557 237.359 448.673C235.459 446.153 231.8 445.202 228.645 444.16C225.661 443.174 222.966 441.812 220.176 440.474ZM341.347 428.842C340.491 427.876 338.259 428.385 338.844 429.753C340.743 434.196 341.517 440.254 346.313 443.205C347.86 444.157 350.291 443.719 351.564 442.62C353.012 441.371 353.07 439.612 352.242 438.088C351.232 436.23 348.749 434.882 347.008 433.466L346.852 433.337C344.98 431.767 342.954 430.659 341.347 428.842ZM140.904 433.955C139.376 433.387 135.395 432.283 134.215 433.59C134.16 433.638 134.113 433.69 134.075 433.748C133.786 434.182 133.743 434.794 134.075 435.225C135.45 437.008 136.882 438.339 138.836 439.608L139.056 439.748C141.184 441.098 143.183 442.684 145.776 443.293C149.369 444.137 151.88 440.254 149.356 437.986C147.322 436.16 144.218 435.211 141.524 434.193L140.904 433.955ZM285.225 408.57C285.826 407.633 284.598 406.483 283.485 407.069C280.312 408.743 276.616 409.998 273.051 410.9C271.609 411.265 270.308 412.527 270.415 413.889L270.432 414.095C270.474 414.576 270.551 415.053 270.905 415.453C272.146 416.854 273.922 417.394 275.819 416.565C280.045 414.717 282.938 412.137 285.225 408.57ZM192.479 405.731C192.556 405.337 192.222 405.032 191.757 405.108C189.076 405.547 186.599 406.665 184.296 407.949C183.061 408.638 181.87 409.395 180.638 410.091C179.115 410.951 178.546 411.66 178.321 413.237C178.172 414.278 179.298 415.229 180.331 415.516C183.146 416.299 186.371 413.729 188.277 412.059L188.363 411.984C190.359 410.228 192.006 408.152 192.479 405.731ZM111.936 403.003C112.547 401.579 110.441 400.398 109.063 401.097C107.766 401.756 106.358 402.302 105.134 403.057C104.01 403.751 102.985 404.573 101.906 405.325L101.373 405.689C99.3953 407.061 96.1308 410.454 98.9586 412.423C101.65 414.296 105.218 411.904 107.025 410.154L107.151 410.03C108.19 408.994 109.472 407.869 110.226 406.659C110.935 405.52 111.417 404.212 111.936 403.003ZM138.478 292.73C141.849 293.295 143.223 296.886 144.642 299.226C147.992 304.75 151.073 310.374 154.168 316.006C155.12 317.739 156.048 319.484 156.984 321.227C157.041 321.363 157.114 321.498 157.201 321.63C159.118 325.193 161.092 328.732 163.4 332.113C161.288 331.772 159.165 331.481 157.034 331.252C157.142 329.52 155.768 327.203 155.088 325.745L155.032 325.623C154.184 323.755 153.296 320.812 151.115 319.843C150.388 319.52 149.61 319.924 149.555 320.615C149.389 322.671 151.72 325.024 152.859 326.769C153.548 327.825 154.219 328.885 154.873 329.957C155.119 330.358 155.323 330.753 155.575 331.106C154.476 331.004 153.376 330.912 152.273 330.846L151.554 330.803C147.464 330.57 143.12 330.504 139.424 332.245C135.996 333.859 134.243 337.305 136.127 340.443C138.474 344.353 143.641 344.871 148.185 345.188C153.86 345.583 159.549 346.296 165.184 346.992C171.013 347.711 176.502 349.565 182.244 350.518C182.778 350.607 183.111 350.004 182.621 349.747C178.092 347.368 172.585 346.058 167.521 344.725L167.111 344.616C164.365 343.888 161.68 343.057 158.838 342.644C156.08 342.243 153.304 341.918 150.522 341.671L150.252 341.649C147.189 341.428 139.374 341.504 139.704 337.59C139.923 334.999 144.802 334.552 147.029 334.521C157.241 334.38 167.526 336.719 177.231 339.225L179.398 339.786C183.372 340.817 187.351 341.879 191.251 343.089C195.669 344.459 199.151 346.596 202.369 349.521C205.937 352.764 209.393 356.081 213.095 359.214C215.429 361.19 217.793 363.131 220.175 365.055C220.714 365.657 221.144 366.311 221.443 367.16C221.947 368.593 221.831 369.926 221.64 371.399C221.161 375.118 221.055 378.876 220.453 382.583C219.896 386.018 219.117 389.579 217.464 392.765C216.809 394.027 215.958 395.267 214.988 396.375L214.205 397.253C213.863 397.635 213.482 398.052 213.081 398.445C212.493 397.826 211.641 397.423 210.652 397.523C208.55 397.737 206.897 397.686 204.834 397.269C203.238 396.947 201.654 396.569 200.065 396.219C196.944 395.532 193.794 394.907 190.705 394.118L190.174 393.98C187.872 393.371 185.57 392.608 183.654 391.325C181.428 389.835 180.743 387.685 179.094 385.826C175.573 381.856 167.965 381.939 162.814 380.851C158.436 379.928 154.223 378.47 151.193 375.729L151.016 375.565C151.151 375.076 150.933 374.524 150.406 374.271L150.291 374.216C150.086 374.117 149.865 374.076 149.648 374.08C149.367 373.723 149.096 373.355 148.849 372.963C148.646 372.64 148.139 372.878 148.206 373.197C148.245 373.387 148.3 373.573 148.352 373.759C145.418 373.108 142.195 373.232 139.215 373.234L135.348 373.222C134.679 373.215 133.682 373.186 133.593 373.152L133.502 373.117C133.261 373.026 133.603 373.176 133.435 372.983C133.249 372.77 133.067 372.555 132.888 372.337C132.247 371.564 131.641 370.766 131.046 369.962C137.522 371.385 144.23 372.271 150.841 373.01C157.935 373.803 165.121 374.353 172.278 374.359C174.251 374.361 174.233 371.79 172.278 371.726C164.7 371.476 157.161 371.13 149.634 370.292C145.742 369.858 141.865 369.314 138.011 368.678C136.523 368.432 135.038 368.172 133.557 367.897L132.447 367.687C131.751 367.555 129.783 367.363 128.823 366.808C128.635 366.528 128.446 366.249 128.259 365.969C128.351 364.988 131.242 365.12 131.919 365.118C133.841 365.115 135.763 365.128 137.685 365.133C141.528 365.142 145.371 365.114 149.214 365.087C156.894 365.033 164.602 364.802 172.275 365.085C174.137 365.153 175.116 362.575 173.275 361.897C165.148 358.903 156.126 358.252 147.448 357.332C142.884 356.848 138.318 356.289 133.857 355.31L132.754 355.068C129.952 354.448 126.857 353.691 124.497 352.214C128.044 350.976 132.453 351.118 136.13 350.942L136.411 350.928C141.56 350.655 146.717 350.516 151.875 350.509C162.429 350.497 172.987 350.819 183.529 351.251C183.794 351.262 183.848 350.901 183.591 350.853C172.756 348.813 161.743 347.83 150.654 347.679C145.49 347.608 140.323 347.671 135.163 347.868L133.27 347.944C128.87 348.107 123.988 348.151 120.308 350.444C119.746 350.793 119.451 351.239 119.404 351.711C114.468 343.22 109.908 334.55 105.331 325.939C101.772 319.243 98.3459 312.491 94.6574 305.847L93.4633 303.697C91.8643 300.829 90.2263 297.961 88.4074 295.197C95.209 294.413 102.049 293.868 108.892 293.451C115.128 293.07 135.476 292.228 138.478 292.73ZM141.49 384.764C140.714 384.392 139.526 384.696 139.334 385.521C139.192 386.136 138.949 386.818 138.949 387.447C138.949 388.2 139.261 389.018 139.428 389.755C139.811 391.45 140.282 392.827 141.28 394.336C141.905 395.281 143.166 395.922 144.434 395.897C145.438 395.877 146.327 395.644 147.016 394.974C147.841 394.17 148.408 392.989 147.955 391.907C146.77 389.073 144.59 386.25 141.49 384.764ZM306.011 381.937C304.196 379.194 299.894 376.742 296.139 376.985C290.502 377.349 289.352 383.9 294.81 385.463C298.072 386.397 302.561 385.438 305.415 383.9C306.184 383.486 306.466 382.625 306.011 381.937ZM363.951 372.565C364.363 372.048 363.682 371.457 363.067 371.573C361.705 371.831 360.236 371.944 358.902 372.295C357.535 372.653 356.213 373.248 354.859 373.658C352.023 374.515 348.995 374.945 346.25 375.98C345.153 376.393 344.291 377.764 344.392 378.775L344.418 379.011C344.479 379.513 344.579 379.951 344.904 380.409C345.778 381.64 347.508 382.276 349.141 381.897C352.171 381.195 355.131 379.39 357.714 377.891L358.192 377.618C359.32 376.976 360.534 376.305 361.443 375.479C362.393 374.617 363.173 373.541 363.951 372.565ZM259.805 362.587C260.154 361.503 258.592 360.787 257.681 361.52C255.861 362.983 253.958 364.34 252.175 365.84L252.055 365.942C250.779 367.049 248.922 369.182 250.582 370.615C252.709 372.45 255.671 369.727 256.812 368.307C258.26 366.507 259.128 364.693 259.805 362.587ZM120.524 353.626C123.224 356.094 127.384 357.229 131.047 358.169C135.39 359.282 139.864 359.948 144.343 360.495C148.672 361.024 152.966 361.497 157.226 362.103C154.004 362.138 150.782 362.158 147.568 362.208C143.86 362.266 140.155 362.335 136.449 362.428C133.75 362.496 130.583 362.176 128.018 363.042C127.556 363.198 127.124 363.414 126.747 363.676C124.59 360.368 122.524 357.013 120.524 353.626ZM287.067 330.547C284.249 329.775 281.599 328.75 278.611 329.016C277.817 329.086 277.249 329.753 277.682 330.412C279.098 332.562 281.4 333.776 283.666 335.214L283.866 335.342C286.347 336.934 289.01 338.385 291.708 339.691C296.352 341.94 300.514 335.503 295.824 333.614C293.002 332.478 290.037 331.362 287.067 330.547ZM236.329 324.959C232.018 325.203 227.709 325.37 223.392 325.52C218.391 325.695 220.072 332.335 224.25 330.991C228.376 329.663 232.503 328.352 236.667 327.114C237.935 326.737 237.833 324.94 236.409 324.956L236.329 324.959ZM346.912 313.145C345.795 313.078 344.668 313.288 343.549 313.382L342.358 313.482C339.903 313.692 337.602 313.952 335.261 314.814C330.941 316.405 333.261 322.397 337.597 322.26C340.802 322.158 343.543 320.97 346.249 319.587C348.615 318.379 350.065 316.866 351.663 314.968C352.192 314.34 351.455 313.635 350.734 313.572C349.465 313.46 348.182 313.222 346.912 313.145ZM130.392 300.908C131.107 304.757 132.881 308.365 135.554 311.505C136.898 313.083 139.257 313.143 140.588 311.505C142.472 309.188 141.31 306.533 139.891 304.308L139.472 303.656C138.836 302.679 137.86 301.254 136.745 300.269L136.727 300.169C136.129 296.139 129.656 296.943 130.392 300.908ZM304.777 276.208C303.702 275.372 301.722 275.623 301.374 276.983C300.885 278.887 300.588 281.033 300.908 282.965C301.081 284.013 301.146 285.189 301.624 286.165C302.137 287.215 303.124 288.022 304.054 288.812C305.911 290.387 309.825 289.866 310.322 287.384L310.386 287.079C310.636 285.904 310.956 284.649 310.585 283.484C310.306 282.606 309.681 281.71 309.164 280.895L309.055 280.721C308.019 279.057 306.405 277.472 304.777 276.208ZM153.693 280.259L153.304 280.262C150.304 280.314 144.819 280.944 144.79 284.143C144.783 284.897 145.43 285.678 146.298 285.852C148.091 286.211 149.25 285.296 150.528 284.372C151.573 283.617 152.792 283.014 154.057 282.58C155.424 282.11 155.335 280.257 153.693 280.259Z" fill="black"/>
<path fill-rule="evenodd" clip-rule="evenodd" d="M148.511 155.577C150.06 144.911 154.925 133.587 160.042 123.643C171.548 102.62 197.888 99.7253 221.5 95.3907C244.801 92.4632 269.476 89.8199 292.426 95.6607C305.327 98.3883 310.367 111.649 308.33 122.113C307.168 128.633 303.729 134.805 300.796 140.848C294.967 153.258 291.268 166.545 291.262 179.982C291.662 188.763 293.098 198.785 281.405 202.504C270.278 207.279 269.338 220.223 255.406 227.567C249.772 237.415 234.426 238.282 223.38 240.566C216.399 241.719 209.339 242.568 202.26 243.116C181.762 245.383 165.364 240.257 154.634 224.499C147.454 214.909 142.107 203.836 143.428 192.214C144.743 179.974 146.935 167.8 148.511 155.577Z" fill="white"/>
<path fill-rule="evenodd" clip-rule="evenodd" d="M221.323 69.84C220.153 68.6957 218.351 69.0882 217.257 69.9931C216.545 70.1742 215.854 70.4435 215.203 70.8C213.73 70.6369 212.186 70.6369 210.741 70.6826C210.391 70.513 210.015 70.3621 209.606 70.2325C206.685 69.3111 204.099 69.7792 201.965 71.0128C200.938 70.1738 199.641 69.6474 197.984 69.727C196.505 69.7983 195.451 70.3989 194.547 71.19C193.647 70.069 192.19 69.2693 190.376 69.158C187.84 69.0025 185.403 69.88 183.383 71.2386C182.205 70.0734 180.601 69.4036 178.812 69.3971C177.636 69.2128 176.394 69.2855 175.272 69.5779C173.643 70.0024 172.213 70.7978 171.074 71.8302C169.271 70.3409 167.065 69.2693 164.522 69.4256C161.23 69.6308 158.501 71.7196 157.232 74.2906C155.004 75.0608 152.947 76.1594 151.228 77.7257C151.136 77.8082 151.049 77.8946 150.957 77.9814C150.031 78.2763 149.159 78.6944 148.391 79.2449C145.958 80.9917 145.416 83.5194 146.221 85.9964C146.108 86.3928 146.012 86.7961 145.925 87.199C143.647 87.4979 141.577 88.6325 140.4 90.4797C138.79 93.0147 139.107 96.3558 140.851 98.7759C141.601 99.8169 142.553 100.694 143.622 101.461C142.413 103.83 142.993 106.658 144.942 108.574C145.417 109.235 146 109.831 146.655 110.371C145.932 112.82 147.219 115.348 149.789 116.657L150.009 117.132C150.046 117.21 150.084 117.289 150.122 117.367C150.151 117.468 150.186 117.565 150.22 117.663C150.282 118.533 150.614 119.386 151.272 120.189C152.62 121.837 154.291 122.911 155.177 124.833L155.266 125.035C155.646 125.945 156.877 126.587 157.925 126.306C152.105 136.619 149.054 148.095 146.96 159.341C145.915 164.951 145.109 170.581 144.456 176.232L143.814 181.86C143.251 186.863 142.749 191.882 142.745 196.9C142.737 208.254 146.501 219.175 154.579 228.21C162.219 236.75 173.03 242.94 185.243 245.378C197.852 247.891 212.644 246.901 223.951 241.147C227.285 239.455 224.364 235.386 220.972 236.747C214.551 239.325 208.025 241.241 200.906 241.669C193.967 242.09 187.012 241.341 180.432 239.383C169.546 236.139 160.283 229.344 154.328 220.882C151.395 216.712 149.271 212.186 148.14 207.404C146.733 201.444 146.945 195.283 147.462 189.246L147.498 188.835C148.52 177.204 149.868 165.502 152.046 153.987C153.971 143.804 156.932 133.828 160.775 124.072C162.28 122.929 163.964 121.982 165.767 121.264C178.963 120.788 192.183 120.927 205.363 121.713C216.603 122.387 227.788 123.528 238.889 125.191L240.078 125.371C242.536 125.749 245.265 125.965 247.58 126.819C249.566 127.553 250.372 128.965 250.872 130.7C252.133 135.089 252.325 139.893 252.537 144.394C252.746 148.794 252.274 153.231 252.683 157.616C253.03 161.285 254.119 165.041 257.269 167.695C258.917 169.084 260.945 169.844 262.848 170.899C264.079 171.58 264.6 172.282 264.442 173.542C264.099 176.3 261.525 179.775 264.417 182.137C264.926 182.551 265.806 182.605 266.307 182.137C267.5 181.018 269.148 180.164 270.563 179.26C271.155 178.886 270.663 178.159 269.991 178.418C269.106 178.76 268.205 179.163 267.283 179.516C269.319 178.069 272.215 177.359 274.627 176.938C275.841 176.729 277.118 176.668 278.382 176.765C279.317 177.15 280.272 177.507 281.228 177.856C282.442 178.296 283.669 178.695 284.904 179.073C289.189 182.087 291.233 186.988 290.341 191.781C289.852 194.427 288.438 197.304 285.772 198.849C282.613 200.678 278.382 199.893 274.969 201.251C271.773 202.521 269.828 205.089 268.372 207.746L267.765 208.853C266.413 211.302 265.024 213.687 263.177 215.916C261.041 218.498 258.425 220.817 255.571 222.808C254.186 223.772 252.71 224.639 251.185 225.429L250.768 225.642C249.224 226.424 248.119 227.169 248.014 228.821C247.981 229.398 248.402 229.923 248.945 230.222C251.281 231.5 253.606 229.902 255.55 228.785C257.649 227.583 259.656 226.229 261.512 224.753C265.042 221.952 268.097 218.624 270.446 215.012C272.236 212.262 273.254 208.391 276.083 206.259C277.81 204.959 280.251 204.949 282.409 204.711C284.416 204.488 286.314 204.128 288.1 203.274C295.364 199.792 297.417 191.363 295.694 184.849C295.402 183.75 294.993 182.681 294.488 181.651C297.192 182.04 300.229 179.628 299.132 177.193C299.049 177.01 298.953 176.837 298.861 176.661C300.643 175.649 302.049 174.115 302.716 172.109C303.058 171.072 303.108 170.024 302.929 169.012C303.793 168.512 304.506 167.824 304.965 166.978C306.401 166.405 307.673 165.549 308.433 164.325C309.484 162.635 309.351 161.08 308.549 159.679C308.662 159.503 308.771 159.323 308.875 159.139C311.817 157.53 313.869 154.757 313.636 151.682C313.561 150.663 313.269 149.745 312.818 148.917C312.856 148.812 312.893 148.704 312.926 148.6C315.388 147.519 317.424 145.745 318.15 143.375C318.876 140.991 318.021 138.615 316.31 136.785C318.814 135.205 320.32 132.998 319.406 129.659C319.035 128.302 318.288 127.067 317.278 126.026C317.283 125.994 317.291 125.962 317.299 125.929L317.533 125.772C320.624 123.668 322.401 120.986 320.504 117.687C319.653 116.204 318.438 115.17 317.011 114.489L316.94 114.295C317.963 112.405 318.309 110.305 317.604 108.098C317.028 106.28 315.664 104.832 313.92 103.871C314.036 103.057 314.02 102.189 313.832 101.249C313.519 99.6617 312.605 98.2754 311.27 97.2924C311.22 97.0832 311.157 96.8783 311.086 96.6727C310.636 95.4164 309.793 94.0517 308.817 93.0395C308.011 92.2005 307.11 91.8945 306.008 91.8621C306.075 91.0882 306.029 90.3029 305.846 89.5071C305.282 87.0518 303.471 84.7433 300.789 83.6955C299.687 83.267 298.527 83.1413 297.409 83.2454C296.457 81.517 294.601 80.2643 292.318 79.9942C291.43 79.8862 290.603 79.8931 289.844 79.9906C289.414 79.8174 288.968 79.663 288.5 79.5222C288.192 79.4286 287.879 79.3421 287.566 79.2561C286.51 78.1254 285.121 77.2213 283.498 76.6779C281.624 76.0478 279.717 76.1122 278.027 76.6415L277.489 76.5443C276.646 75.2841 275.303 74.3082 273.237 73.8653C270.892 73.3648 268.485 74.0634 266.641 75.3348C266.632 75.3348 266.624 75.3348 266.611 75.3309C265.647 73.4693 263.999 72.173 261.233 72.263C259.51 72.3206 257.953 73.0591 256.752 74.1106C256.084 74.0382 255.416 73.9734 254.745 73.9089C254.035 73.192 253.247 72.5226 252.375 71.9213C250.948 70.9343 249.091 71.0139 248.039 72.4034C247.81 72.7059 247.597 73.012 247.384 73.318L246.42 73.2604C245.285 71.9389 243.737 71.0459 241.618 70.9743C239.673 70.9055 238.288 71.7268 237.232 72.8751C236.373 72.8571 235.509 72.8431 234.646 72.8319C233.64 71.8273 232.455 70.9415 231.103 70.2069C230.068 69.6452 228.541 69.8364 227.702 70.5854C227.136 71.0945 226.608 71.626 226.118 72.1762C224.854 70.9534 223.147 70.1479 221.323 69.84ZM282.734 184.183C280.785 183.225 278.165 184.262 276.279 185.076C273.98 186.066 271.698 187.56 270.291 189.433C268.376 191.982 272.878 194.042 274.894 191.755C276.133 190.347 277.122 188.929 278.624 187.697C279.997 186.566 281.987 185.81 282.776 184.32C282.805 184.269 282.797 184.212 282.734 184.183ZM281.365 122.303L281.329 122.213C280.775 120.905 283.193 120.341 283.742 121.638C284.575 123.605 283.615 125.743 281.365 126.592C280.741 126.827 280.028 126.745 279.652 126.204C279.336 125.749 279.483 124.959 280.101 124.726C281.367 124.249 281.792 123.405 281.365 122.303ZM302.199 118.645C300.989 117.723 302.765 116.2 303.97 117.118C305.094 117.974 305.927 119.137 305.711 120.475C305.49 121.838 304.299 122.8 302.995 123.481C301.613 124.202 300.353 122.334 301.732 121.615L301.886 121.533C302.465 121.223 303.142 120.797 303.24 120.187C303.344 119.539 302.708 119.033 302.199 118.645ZM295.328 102.38L295.242 102.325C293.942 101.524 295.191 99.6498 296.506 100.46C297.712 101.202 298.679 102.168 298.781 103.498C298.88 104.792 298.117 105.913 297.12 106.823C296.011 107.835 294.242 106.306 295.35 105.296C296.429 104.311 296.64 103.237 295.328 102.38Z" fill="black"/>
<path fill-rule="evenodd" clip-rule="evenodd" d="M176.609 208.417C176.319 208.349 176.064 208.685 176.304 208.869C177.286 209.621 177.91 211.022 178.627 211.978C179.309 212.886 179.966 213.786 180.566 214.737C181.238 215.803 181.887 216.866 182.41 217.994L182.514 218.221C182.357 218.543 182.235 218.861 182.144 219.069L182.118 219.128C181.224 221.098 183.1 223.287 185.216 223.837C188.836 224.779 191.941 222.214 192.027 219.164C192.095 216.764 190.21 214.626 188.295 213.04C186.62 211.652 184.744 210.471 182.646 209.606C181.72 209.225 180.758 208.906 179.753 208.721C178.725 208.532 177.616 208.652 176.609 208.417ZM183.43 217.113C183.165 217.221 182.938 217.485 182.747 217.793C182.843 217.532 183.039 217.272 183.43 217.113ZM181.166 183.772C178.015 185.425 173.214 189.279 176.603 193.376C180.593 196.989 186.338 192.847 189.169 190.973C191.793 189.522 194.743 193.256 192.307 194.951C171.852 208.02 163.551 184.204 179.572 181.829C181.336 181.567 181.991 183.261 181.166 183.772ZM207.066 167.902L206.509 167.862C204.094 167.678 201.649 167.398 199.268 167.869C196.069 168.503 196.304 172.52 199.268 173.258C201.881 173.909 204.776 173.627 207.473 173.649C207.898 173.653 208.321 173.662 208.745 173.669C208.829 174.539 209.16 175.289 209.666 176.039C210.029 176.577 210.492 177.088 210.948 177.566C212.031 178.701 214.586 178.676 215.679 177.566C216.488 176.744 217.132 175.799 217.142 174.686C217.145 174.402 217.105 174.099 217.026 173.802L218.498 173.824C222.101 173.871 225.731 173.85 229.269 173.356C230.528 173.581 231.557 171.621 229.82 171.035C225.098 169.441 219.823 168.972 214.812 168.493C212.237 168.247 209.648 168.078 207.066 167.902ZM166.838 166.255L166.709 166.244C163.585 165.968 160.14 165.49 157.009 165.765C152.334 166.175 152.342 171.629 157.009 172.037C158.722 172.186 160.527 172.114 162.327 171.97C161.407 173.655 162.499 175.666 164.716 175.924C166.776 176.162 168.911 174.435 168.235 172.582L168.204 172.5C168.072 172.178 167.953 171.819 167.813 171.464L168.558 171.41C170.787 171.24 173.88 170.893 174.7 169.374C174.947 168.917 174.89 168.492 174.509 168.101C172.947 166.496 169.096 166.443 166.838 166.255ZM200.066 153.768C197.805 153.059 195.454 154.718 195.161 156.588C194.823 158.743 196.624 160.162 198.907 160.419L199.021 160.431C204.06 160.91 209.061 161.786 214.106 162.281C216.398 162.505 218.706 162.653 221.013 162.706L222.662 162.738C224.682 162.782 226.849 162.822 228.714 162.222L228.707 162.211C229.202 162.087 229.43 161.471 228.879 161.134C226.893 159.922 224.216 159.464 221.905 158.888C219.581 158.309 217.239 157.775 214.892 157.273C209.962 156.221 204.842 155.265 200.066 153.768ZM179.209 154.272C178.61 151.546 174.135 151.253 172.491 153.237C171.429 153.552 169.871 153.88 168.906 154.127C167.225 154.557 165.542 154.985 163.855 155.4C160.363 156.258 156.955 157.346 153.521 158.361C153.167 158.465 153.265 158.853 153.605 158.891C158.397 159.43 163.109 159.68 167.93 159.507L168.919 159.469C173.167 159.326 180.38 159.599 179.209 154.272Z" fill="black"/>
<path fill-rule="evenodd" clip-rule="evenodd" d="M172.328 224.079C176.214 221.091 180.57 215.085 186.152 219.838C187.533 221.18 188.092 224.191 190.203 224.781C193.007 225.566 195.786 223.006 196.742 221.04C200.651 210.116 184.489 207.12 175.282 208.885C170.784 210.479 167.471 216.895 167.271 220.244C167.142 222.495 169.349 225.804 172.328 224.079ZM143.012 207.242C143.05 207.097 143.103 206.966 143.167 206.846C144.885 206.286 146.245 206.858 147.086 207.926C147.058 208.191 146.966 208.46 146.908 208.723C147.557 209.902 148.142 211.361 149.02 212.379C149.194 212.391 149.374 212.375 149.547 212.332C164.114 213.645 157.002 200.491 171.777 197.224C183.199 195.598 203.842 197.461 209.23 207.72C213.479 224.106 235.086 212.688 242.18 204.166C249.75 196.411 254.644 186.933 259.363 177.737C260.36 175.791 263.473 177.182 263.134 179.05C267.496 186.601 267.351 195.671 268.431 203.944C270.269 220.448 272.059 243.593 254.29 253.671C231.138 276.254 173.324 284.223 146.62 263.473C137.376 246.322 138.516 225.399 143.012 207.242Z" fill="black"/>
</svg>
